<?xml version="1.0" encoding="UTF-8" standalone="no"?>
<!-- Created with Inkscape (http://www.inkscape.org/) -->

<svg
   width="118.88301mm"
   height="158.11171mm"
   viewBox="0 0 118.88301 158.11171"
   version="1.1"
   id="svg1574"
   inkscape:version="1.2.2 (b0a8486541, 2022-12-01)"
   sodipodi:docname="rei.svg"
   xmlns:inkscape="http://www.inkscape.org/namespaces/inkscape"
   xmlns:sodipodi="http://sodipodi.sourceforge.net/DTD/sodipodi-0.dtd"
   xmlns="http://www.w3.org/2000/svg"
   xmlns:svg="http://www.w3.org/2000/svg">
  <sodipodi:namedview
     id="namedview1576"
     pagecolor="#ffffff"
     bordercolor="#000000"
     borderopacity="0.25"
     inkscape:showpageshadow="2"
     inkscape:pageopacity="0.0"
     inkscape:pagecheckerboard="0"
     inkscape:deskcolor="#d1d1d1"
     inkscape:document-units="mm"
     showgrid="false"
     inkscape:zoom="0.70699408"
     inkscape:cx="200.14312"
     inkscape:cy="558.70341"
     inkscape:window-width="2240"
     inkscape:window-height="1431"
     inkscape:window-x="26"
     inkscape:window-y="23"
     inkscape:window-maximized="0"
     inkscape:current-layer="layer1" />
  <defs
     id="defs1571" />
  <g
     inkscape:label="Layer 1"
     inkscape:groupmode="layer"
     id="layer1"
     transform="translate(-2.852986,118.06857)">
    <g
       id="g1531"
       transform="translate(-62.10805,-189.28711)">
      <path
         style="fill:#6d68ac;stroke-width:0.264583"
         d="m 77.236287,229.01271 c 0.182075,-0.18207 0.317921,-1.05669 0.318489,-2.05052 0.0012,-2.10536 0.218144,-2.49876 3.274816,-5.93852 2.846341,-3.20306 3.087885,-3.88942 3.268722,-9.28825 0.0867,-2.58836 0.258445,-4.21417 0.493789,-4.67435 0.198467,-0.38808 1.983267,-2.38198 3.966218,-4.43088 3.152064,-3.25689 3.584464,-3.80855 3.439126,-4.38762 -0.14202,-0.56585 -0.317375,-0.66236 -1.203513,-0.66236 -1.172067,0 -6.496071,1.25175 -8.830186,2.0761 -0.84874,0.29976 -2.049336,0.84165 -2.66799,1.20421 -1.619132,0.94887 -5.509324,5.14607 -6.769407,7.30363 -1.409817,2.41394 -2.643435,5.46832 -2.644574,6.54783 -7.67e-4,0.72391 0.09641,0.8599 0.61443,0.8599 0.567068,0 1.765913,0.96474 1.765913,1.42107 0,0.10799 -0.342258,-0.006 -0.760574,-0.25294 -0.632533,-0.37364 -0.908107,-0.39785 -1.636944,-0.14377 -0.531506,0.18528 -0.971867,0.21 -1.119047,0.0628 -0.281785,-0.28178 1.093666,-4.43231 2.204443,-6.65207 1.932861,-3.8626 6.309468,-8.94324 8.525174,-9.89655 2.558809,-1.10093 3.946089,-1.5163 8.479831,-2.539 3.023454,-0.68202 5.072647,-1.02737 5.220258,-0.87976 0.147611,0.14762 0.140944,0.61262 -0.01699,1.18459 -0.192418,0.69688 -1.325621,2.00681 -4.360363,5.04039 l -4.100375,4.0988 v 2.17197 c 0,2.42133 -0.428001,6.80906 -0.804754,8.25009 -0.155686,0.59548 -1.226592,2.07442 -2.924052,4.03817 -2.922906,3.38144 -3.246061,4.08433 -2.972504,6.46546 0.152231,1.32507 0.131088,1.38906 -0.458929,1.38906 -0.481064,0 -0.547956,-0.0705 -0.301011,-0.3175 z m 15.237849,-0.10022 c 0.08817,-0.22976 0.568101,-1.03343 1.066525,-1.78594 0.805707,-1.21645 0.955305,-1.73507 1.348648,-4.6755 0.243329,-1.81902 0.664212,-4.72324 0.935294,-6.45384 0.50832,-3.24514 0.390737,-4.34164 -0.431731,-4.02603 -0.530432,0.20354 -0.475237,-0.69571 0.159088,-2.59194 0.287462,-0.85933 0.526701,-1.81183 0.531638,-2.11666 0.0049,-0.30483 0.239022,-1.03049 0.52019,-1.61258 0.281167,-0.58208 0.515252,-1.30241 0.520189,-1.60073 0.0049,-0.29831 0.113657,-0.6555 0.241599,-0.79375 0.127942,-0.13824 0.384874,-0.7276 0.570963,-1.30968 0.849987,-2.65876 2.796281,-4.73022 6.024001,-6.41142 0.82874,-0.43165 2.24474,-1.18932 3.14667,-1.68372 l 1.63988,-0.8989 0.88626,0.859 c 1.13926,1.10422 1.80433,1.13801 0.88458,0.0449 -0.37674,-0.44772 -0.68497,-0.91221 -0.68497,-1.03219 0,-0.11999 0.40107,-0.45479 0.89127,-0.74402 0.4902,-0.28922 1.23434,-0.97561 1.65364,-1.52529 1.65254,-2.16639 1.76645,-2.23445 3.74014,-2.23445 1.05593,0 1.94359,-0.13239 2.1287,-0.3175 0.17462,-0.17462 0.3175,-0.80676 0.3175,-1.40474 0,-0.9892 -0.13123,-1.20054 -1.45521,-2.34358 -1.22679,-1.05913 -1.45521,-1.39612 -1.45521,-2.14683 0,-0.572 0.24499,-1.18165 0.68498,-1.70454 0.56319,-0.66933 0.88071,-0.81388 1.78593,-0.81307 2.15258,0.002 3.34992,1.44786 3.34992,4.0454 0,0.70283 0.17716,1.08164 0.69714,1.49066 1.3587,1.06875 3.27161,0.43167 3.27161,-1.08958 0,-1.0343 0.51836,-2.8705 0.95853,-3.39543 0.32733,-0.39035 1.52628,-0.65427 6.12346,-1.34794 2.06632,-0.31179 2.22718,-0.30029 2.91042,0.208 0.57728,0.42946 0.73953,0.78712 0.80403,1.77247 l 0.0808,1.23444 -1.66832,0.78925 c -0.91757,0.43408 -1.86803,0.78934 -2.11213,0.78945 -0.63666,2.7e-4 -1.54056,1.26328 -1.54056,2.15256 0,0.41694 0.24281,1.00087 0.53957,1.29764 0.47181,0.4718 0.84233,0.53405 2.95014,0.49563 2.2517,-0.041 2.44243,-0.002 2.89413,0.58491 0.40737,0.52976 0.48449,0.55442 0.48945,0.15652 0.003,-0.25978 -0.16149,-0.73603 -0.36606,-1.05834 -0.20456,-0.3223 -0.5212,-1.27076 -0.70363,-2.10769 -0.26869,-1.2326 -0.26614,-1.79498 0.0134,-2.96025 0.21148,-0.88152 0.27846,-2.00563 0.17299,-2.90302 -0.15629,-1.32983 -0.11726,-1.49868 0.42468,-1.83691 0.32823,-0.20486 0.95398,-0.4544 1.39054,-0.55454 0.43656,-0.10014 1.18094,-0.5546 1.65416,-1.00992 0.55465,-0.53366 0.95143,-0.73683 1.11653,-0.57173 0.14087,0.14086 0.38441,1.44437 0.54121,2.89667 0.27682,2.56393 0.75433,4.14408 1.36669,4.52254 0.21048,0.13008 0.25105,-0.0817 0.13724,-0.71636 -0.13419,-0.74843 -0.0513,-0.65944 0.48939,0.5254 0.35802,0.78454 0.91051,1.8561 1.22775,2.38125 l 0.5768,0.95481 -0.61986,-0.52917 -0.61986,-0.52916 0.20387,0.66145 c 0.53737,1.74358 0.48037,2.61618 -0.22573,3.45533 -1.06011,1.25986 -0.94737,2.54512 0.37528,4.27837 1.45654,1.90871 4.13816,7.22039 4.64599,9.20265 0.37294,1.45572 0.37986,2.3739 0.0655,8.68377 -0.19337,3.88076 -0.34595,8.48468 -0.33905,10.23093 0.0119,3.0036 0.0583,3.27338 0.85989,4.99753 0.84967,1.82749 1.02904,2.54309 0.63744,2.54309 -0.11545,0 -0.34523,-0.44648 -0.51061,-0.99219 -0.16537,-0.5457 -0.56242,-1.70656 -0.88232,-2.57968 l -0.58163,-1.5875 0.31709,-9.83985 c 0.17439,-5.41192 0.23176,-10.41254 0.12747,-11.1125 -0.31496,-2.11393 -3.3772,-7.9233 -5.45245,-10.34384 -0.40983,-0.478 -0.74513,-1.01556 -0.74513,-1.19456 0,-0.17901 0.36814,-1.08006 0.81809,-2.00235 0.9992,-2.04808 0.93426,-2.60271 -0.66187,-5.65328 -0.62934,-1.20283 -1.33924,-2.78227 -1.57755,-3.50987 -0.67696,-2.06692 -2.38958,-2.82748 -3.72367,-1.65365 -0.64997,0.57189 -0.67917,0.72541 -0.74236,3.9026 -0.0641,3.22573 -0.0435,3.36164 0.83596,5.51098 0.74914,1.83078 1.14089,2.41015 2.3151,3.4239 0.77736,0.67112 1.41338,1.4233 1.41338,1.67151 0,0.83012 -1.65337,1.96273 -3.58667,2.45699 -1.01051,0.25834 -2.39544,0.63945 -3.07763,0.84692 -0.68218,0.20746 -1.41874,0.3772 -1.63679,0.3772 -0.21805,0 -1.31011,0.35182 -2.4268,0.78182 -2.32287,0.89446 -5.25056,2.78387 -6.56064,4.23397 -0.82926,0.9179 -1.0297,1.00216 -2.70343,1.13651 -2.39697,0.19241 -2.82299,-0.009 -3.53957,-1.67493 -0.33642,-0.78202 -1.19296,-1.984 -1.96055,-2.75124 -1.29791,-1.29731 -4.4621,-3.31363 -5.20004,-3.31363 -0.19056,0 -0.75539,-0.31189 -1.25518,-0.6931 -0.74271,-0.56649 -1.10141,-0.66725 -1.96373,-0.55158 -0.58027,0.0778 -1.26354,0.33019 -1.51836,0.5608 -0.25483,0.23062 -0.59639,0.4193 -0.75904,0.4193 -0.57718,0 -3.65052,1.97274 -4.91318,3.15371 -1.220277,1.14133 -2.28817,2.77996 -2.291689,3.51648 -7.93e-4,0.1877 -0.154712,0.63893 -0.341815,1.00273 -0.898943,1.74791 -2.302388,6.48294 -2.302388,7.76794 0,0.40932 0.210693,0.79287 0.529166,0.96331 0.635119,0.3399 0.651338,0.67529 0.14073,2.91042 -0.216083,0.94588 -0.639562,3.58113 -0.941063,5.85609 -0.645541,4.87091 -0.842131,5.66742 -1.716989,6.95659 -0.361723,0.53303 -0.657678,1.20198 -0.657678,1.48657 0,0.29884 -0.179607,0.51741 -0.425183,0.51741 -0.278669,0 -0.369945,-0.14394 -0.264885,-0.41772 z m 32.983244,-28.18568 c 1.17373,-1.03427 2.07899,-1.93555 2.0117,-2.00284 -0.1658,-0.1658 -1.88,0.77953 -3.42163,1.88692 -0.78071,0.56081 -1.73421,0.97827 -2.49498,1.09236 -1.153,0.1729 -1.27462,0.13277 -1.91137,-0.63071 -2.13214,-2.55649 -3.08407,-3.5837 -3.89254,-4.20034 -1.56655,-1.19487 -1.29118,-0.43623 0.46971,1.29402 0.93081,0.91462 1.86378,2.02014 2.07326,2.4567 0.82111,1.71127 1.26532,1.98437 3.22753,1.98437 h 1.80429 z m -2.622,0.18999 c 0.53013,-0.18939 1.48263,-0.75531 2.11666,-1.25759 1.9311,-1.52982 5.39816,-3.11286 8.03196,-3.66734 1.82283,-0.38375 4.85128,-1.27315 5.88698,-1.72889 1.05468,-0.46409 1.10848,-1.12439 0.16249,-1.99446 -0.38356,-0.35279 -0.91502,-1.12509 -1.18102,-1.71622 -0.8073,-1.79411 -1.23126,-2.02174 -3.98729,-2.14083 -3.14135,-0.13574 -3.49333,-0.4012 -3.34014,-2.51902 l 0.10869,-1.50259 -0.69621,0.36002 c -0.38292,0.19801 -0.85725,0.55406 -1.05408,0.79123 -0.24782,0.29861 -0.68904,0.40729 -1.43489,0.35343 -0.94169,-0.068 -1.1194,0.0106 -1.41423,0.62579 -0.32947,0.68741 -0.38905,0.70233 -2.59873,0.65077 -2.15492,-0.0503 -3.04389,0.21163 -2.55396,0.75244 0.10787,0.11908 0.0533,0.13456 -0.12132,0.0344 -0.18063,-0.10363 -0.43626,0.0399 -0.59311,0.33295 -0.15161,0.28329 -0.63383,0.59374 -1.07161,0.68989 -0.43777,0.0961 -0.79595,0.33693 -0.79595,0.53506 0,0.53573 -0.45195,0.71599 -1.02552,0.40902 -0.42597,-0.22797 -0.53368,-0.16631 -0.67197,0.38465 -0.183,0.72916 -0.33783,0.77455 -1.34108,0.39312 -0.63044,-0.2397 -0.8231,-0.13061 -2.17347,1.23059 -1.75877,1.77288 -1.72533,1.92067 0.73858,3.26405 1.0731,0.58508 2.57513,1.80897 4.09241,3.33461 2.95877,2.97507 3.08863,3.03806 4.91681,2.38493 z m 54.8222,27.92956 c 0.24083,-0.26612 0.43832,-0.83167 0.43887,-1.25677 5.3e-4,-0.42511 0.23692,-1.15987 0.52528,-1.63282 0.68583,-1.12485 1.57129,-1.14113 2.49292,-0.0458 l 0.68498,0.81405 v -0.96209 c 0,-2.35051 -2.28014,-10.20332 -4.21438,-14.51438 -0.8528,-1.90074 -3.2505,-4.63777 -4.91975,-5.61601 -0.61445,-0.36009 -2.11462,-0.99913 -3.33371,-1.4201 -4.25326,-1.46868 -5.62801,-2.12634 -6.75313,-3.23055 -0.89039,-0.87386 -1.23799,-1.05616 -1.76272,-0.92446 -0.40384,0.10136 -0.71722,0.41742 -0.82003,0.82704 -0.17851,0.71127 0.23761,1.63142 2.33467,5.16245 2.4538,4.13171 2.36608,3.80459 2.52498,9.4158 l 0.14302,5.05018 0.88251,1.00405 c 0.9605,1.09278 2.53757,4.32301 2.80118,5.73749 0.0907,0.48685 -0.31969,-0.24591 -0.91206,-1.62835 -0.76464,-1.7845 -1.4255,-2.86841 -2.27845,-3.737 l -1.20141,-1.22346 0.1824,-4.72967 0.18239,-4.72967 -1.12079,-2.22141 c -0.61644,-1.22178 -1.61315,-3.06725 -2.21492,-4.10104 -2.8379,-4.87538 -3.0188,-5.75678 -1.21788,-5.93407 0.72683,-0.0715 1.07163,0.10757 2.08998,1.08571 1.60604,1.54262 2.38683,2.04269 3.18938,2.04269 h 0.66146 l -0.65419,-0.44256 c -0.3598,-0.24341 -1.48762,-1.17849 -2.50626,-2.07797 -1.01865,-0.89948 -2.20927,-1.81982 -2.64584,-2.0452 -0.43656,-0.22538 -1.08317,-0.80834 -1.4369,-1.29546 -0.60254,-0.82975 -0.56531,-0.81466 0.5894,0.23879 0.6779,0.61847 1.34197,1.12448 1.47571,1.12448 0.13373,0 1.14181,0.81625 2.24016,1.81389 1.09836,0.99765 2.33106,1.94483 2.73933,2.10485 0.40827,0.16003 1.8734,0.7184 3.25584,1.24083 7.27907,2.75077 9.03139,4.66996 11.83724,12.96439 0.14768,0.43656 0.34999,1.03188 0.44958,1.32292 0.0996,0.29104 -0.0594,0.11244 -0.35324,-0.39688 -0.29387,-0.50932 -0.5393,-1.0863 -0.5454,-1.28217 -0.006,-0.19587 -0.4108,-1.2079 -0.89933,-2.24896 -0.48853,-1.04105 -1.10865,-2.48814 -1.37805,-3.21574 -0.53319,-1.44007 -2.68825,-3.78465 -4.16022,-4.52608 l -0.84953,-0.42792 1.08111,1.15409 c 2.91619,3.11299 3.75012,4.5512 5.27163,9.09157 1.26433,3.77289 1.90321,6.15408 2.65007,9.8771 0.78343,3.90536 0.78796,4.01353 0.16778,4.01353 -0.47687,0 -1.1008,-0.97798 -1.1008,-1.72545 0,-0.4028 -1.29502,-1.18497 -1.96193,-1.18497 -0.56718,0 -0.94849,0.84394 -0.94849,2.09927 0,0.92513 -0.0798,1.07573 -0.57017,1.07573 -0.53562,0 -0.54364,-0.0293 -0.13229,-0.48385 z m -17.15691,-10.71478 c -0.69827,-0.53612 -1.65249,-1.0999 -4.7625,-2.81382 -0.43657,-0.24059 -1.21047,-0.59876 -1.7198,-0.79593 -0.50932,-0.19718 -1.19393,-0.59812 -1.52135,-0.89097 -0.57499,-0.5143 -0.59531,-0.69273 -0.59531,-5.22777 0,-4.55774 -0.0236,-4.76227 -0.80681,-6.98115 -0.44374,-1.25721 -1.57483,-3.79405 -2.51354,-5.63742 -0.9387,-1.84337 -1.70674,-3.66097 -1.70674,-4.03911 0,-0.39184 0.28536,-0.95562 0.6635,-1.31086 0.65736,-0.61756 0.67264,-0.61897 1.65364,-0.15216 1.33887,0.63711 5.94463,4.02912 7.73101,5.69368 l 1.44918,1.35036 -1.11845,1.02236 c -1.25431,1.14655 -1.33072,1.45857 -0.58929,2.40642 0.28457,0.3638 0.52004,0.75263 0.52328,0.86406 0.006,0.20337 3.17717,6.16802 4.46415,8.39636 0.65528,1.1346 0.68547,1.35758 0.64146,4.73871 -0.0336,2.58153 -0.13989,3.60752 -0.39015,3.76626 -0.47892,0.30379 -0.51183,0.29466 -1.40228,-0.38902 z m -73.800412,-2.26543 c -0.07985,-0.1292 -0.165068,-2.03614 -0.189383,-4.23765 l -0.04421,-4.00276 3.425106,-3.50141 c 1.883807,-1.92577 4.313486,-4.69156 5.399289,-6.14618 2.217618,-2.9709 3.036988,-3.60257 7.5885,-5.85016 3.08692,-1.52436 4.11634,-1.70648 4.25286,-0.75241 0.0549,0.38337 -0.25521,0.77942 -1.05833,1.35178 -1.58731,1.13124 -5.14905,3.26535 -5.44972,3.26535 -0.51832,0 -2.805608,2.66381 -3.671452,4.27583 -0.942832,1.75536 -1.936633,4.46804 -1.936633,5.28624 0,0.26337 -0.348996,1.24083 -0.77555,2.17215 -0.42655,0.93132 -0.861954,2.15469 -0.96756,2.7186 -0.243747,1.30156 -0.772483,2.57475 -1.218165,2.93331 -0.19031,0.15312 -1.017482,0.6337 -1.838161,1.06796 -0.82068,0.43426 -1.769907,0.98412 -2.109394,1.22191 -0.687144,0.48129 -1.18831,0.55161 -1.4072,0.19744 z m 36.829452,-1.32814 c -1.92234,-0.20572 -2.6312,-0.85275 -2.84708,-2.59874 l -0.15606,-1.26218 -0.44934,1.48674 c -0.60759,2.0103 -0.93515,2.23118 -3.19315,2.15322 -1.02275,-0.0353 -2.08602,-0.13608 -2.36282,-0.22393 -0.90892,-0.28848 -1.28993,-1.7615 -1.11133,-4.29647 0.20595,-2.92324 0.74638,-4.49025 1.66967,-4.84129 1.25217,-0.47607 5.3285,-0.28324 5.34074,0.25265 0.002,0.0976 0.11064,0.34579 0.2409,0.55158 0.1936,0.30584 0.38986,0.24544 1.07459,-0.33073 0.68402,-0.57557 1.1034,-0.7049 2.28577,-0.7049 1.73112,0 2.85561,0.52288 3.40365,1.58267 0.33987,0.65723 0.36268,1.24982 0.14497,3.76584 -0.25471,2.94368 -0.27151,2.99802 -1.18872,3.84576 -0.5117,0.47295 -1.0214,0.84239 -1.13268,0.821 -0.11128,-0.0214 -0.88488,-0.11194 -1.71911,-0.20122 z m -4.4939,-1.30396 c 0.64568,-0.48704 1.09231,-2.93486 1.10773,-6.071 0.01,-1.97937 -0.0767,-2.04221 -2.80833,-2.04221 -2.95048,0 -3.52929,0.86758 -3.53203,5.29416 -10e-4,2.17965 0.0495,2.41752 0.59384,2.77813 1.18479,0.78488 3.62397,0.8064 4.63879,0.0409 z m -2.52213,-0.74782 c -0.1819,-0.0734 -0.33072,-0.33227 -0.33072,-0.57527 0,-0.57659 1.78628,-3.08596 2.19673,-3.08596 0.38082,0 0.30251,2.59245 -0.1011,3.3466 -0.24876,0.4648 -1.0422,0.60625 -1.76491,0.31463 z m 9.82213,0.81303 c 0.73029,-0.64214 0.76555,-0.78255 0.89793,-3.57548 l 0.13779,-2.90709 -0.749,-0.78178 c -0.67595,-0.70554 -0.91311,-0.78178 -2.43192,-0.78178 -1.48002,0 -1.76115,0.0844 -2.33175,0.70009 -0.61078,0.65904 -0.64882,0.87912 -0.64882,3.75326 0,2.77061 0.0532,3.10984 0.57529,3.66553 0.48117,0.51219 0.83827,0.611 2.18281,0.60401 1.33516,-0.007 1.73631,-0.12161 2.36767,-0.67676 z m -15.80907,-22.28133 c -0.29234,-0.47302 0.38154,-2.57198 1.24163,-3.86737 1.4283,-2.15118 1.79213,-3.22814 1.9935,-5.901 0.20582,-2.73179 0.5223,-3.34765 1.34003,-2.60762 0.39622,0.35858 0.46453,0.61276 0.28884,1.07485 -0.12655,0.33287 -0.34819,1.6629 -0.49252,2.95563 -0.31474,2.81907 -0.95426,4.54281 -2.47418,6.66874 -1.11827,1.56414 -1.66713,2.0492 -1.8973,1.67677 z m 14.65205,-14.85454 c 0,-0.13759 1.69091,-1.47704 3.75759,-2.97656 2.06667,-1.49953 4.83487,-3.7504 6.15156,-5.00193 1.31669,-1.25154 2.65894,-2.41502 2.98278,-2.58552 0.52398,-0.27586 0.60695,-0.23774 0.75352,0.34627 0.0906,0.36094 0.12329,1.78471 0.0727,3.16392 -0.0868,2.36542 -0.13709,2.55518 -0.88581,3.34528 -0.85894,0.90641 -3.62441,2.30109 -5.95312,3.00227 -2.56108,0.77115 -6.87917,1.21448 -6.87917,0.70627 z m -4.23333,-1.32167 c -0.65485,-0.26655 -2.53695,-1.27209 -4.18245,-2.23453 -1.64551,-0.96244 -3.06658,-1.7499 -3.15795,-1.7499 -0.0914,0 -0.41192,-0.22727 -0.71234,-0.50505 -0.30043,-0.27778 -1.49872,-0.99173 -2.66289,-1.58657 -1.30775,-0.6682 -2.82447,-1.74527 -3.96875,-2.81834 l -1.85208,-1.73681 1.85208,0.14183 c 2.56521,0.19644 3.32599,-0.44939 1.48959,-1.26451 -2.56297,-1.13762 -6.91355,-5.09717 -6.91355,-6.29216 0,-0.44446 0.14884,-0.4776 1.45521,-0.32406 0.87962,0.10338 1.45521,0.0697 1.45521,-0.0851 0,-0.14089 -0.56555,-0.65574 -1.25677,-1.14412 -1.7811,-1.25842 -6.142242,-5.71086 -7.295341,-7.44809 -0.934106,-1.40729 -1.324025,-3.13074 -0.708308,-3.13074 0.395716,0 0.319233,-0.97893 -0.146915,-1.88036 -0.532212,-1.02919 -0.594466,-2.7045 -0.121666,-3.2742 0.290343,-0.34984 0.632568,-0.4124 1.576485,-0.28819 1.512697,0.19905 1.955515,0.19836 3.539178,-0.006 1.389387,-0.17888 7.324007,0.68912 9.532077,1.39416 0.77991,0.24903 1.67539,0.34657 2.2857,0.24898 0.84666,-0.13539 1.0645,-0.0677 1.39436,0.43329 0.62792,0.95364 3.90341,4.16562 4.24788,4.16551 0.22487,-7e-5 0.31948,-0.90533 0.33124,-3.16942 0.009,-1.74312 0.0983,-3.2512 0.19844,-3.35129 0.36657,-0.36657 0.56552,0.24103 0.667,2.03709 0.0571,1.01084 0.17971,1.83606 0.27243,1.83383 0.84049,-0.0202 1.6109,-2.19851 1.72973,-4.89074 0.0514,-1.16416 0.23382,-3.54541 0.4054,-5.29166 0.37657,-3.83247 0.029,-10.28866 -0.58702,-10.90471 -0.32508,-0.32507 -0.43209,-0.257 -0.78879,0.50181 -0.22698,0.48284 -0.48582,1.47321 -0.57521,2.20081 -0.24467,1.9918 -0.69392,4.17661 -0.96493,4.69277 -0.13267,0.25269 -0.24122,0.87001 -0.24122,1.37184 0,0.50182 -0.12983,1.24758 -0.28851,1.65723 -0.33722,0.87061 -0.73675,4.16982 -0.94727,7.82243 -0.0818,1.41883 -0.25501,2.57969 -0.38496,2.57969 -0.26235,0 -1.36306,-2.2612 -2.5759,-5.29166 -0.68607,-1.71428 -1.07557,-2.91824 -2.43946,-7.54063 -0.63304,-2.14546 -1.3014,-5.50999 -1.3014,-6.55123 0,-0.64118 -0.0674,-1.23317 -0.14974,-1.31553 -0.0823,-0.0824 -0.18904,-0.84634 -0.23708,-1.69774 -0.50723,-8.9899 -0.45227,-8.52143 -0.86436,-7.36864 -0.20804,0.58197 -0.47708,1.65345 -0.59788,2.38105 -0.12079,0.72761 -0.40272,1.81238 -0.62651,2.4106 -0.22379,0.59823 -0.45441,1.37214 -0.51248,1.7198 -0.0581,0.34765 -0.17363,0.8107 -0.25678,1.02898 -0.35531,0.93272 -0.37621,2.58749 -0.0403,3.19384 0.19579,0.35344 0.3602,1.16121 0.36535,1.79505 0.005,0.63384 0.19415,1.86547 0.41998,2.73697 0.87547,3.37857 -0.15327,2.04152 -1.26218,-1.64045 -0.63344,-2.10324 -1.15005,-5.36291 -1.39575,-8.8068 -0.10159,-1.424 -0.2769,-2.91228 -0.38957,-3.30729 l -0.20486,-0.7182 -0.14293,0.66146 c -0.22932,1.0613 -0.72418,4.47803 -0.93284,6.44075 -0.143,1.3451 -0.32596,1.90815 -0.71168,2.19019 -0.45121,0.32994 -0.53794,0.80301 -0.66243,3.61342 -0.13333,3.01014 -0.16462,3.16058 -0.4525,2.17543 -0.72667,-2.48671 -1.274895,-6.07084 -1.655681,-10.82436 -0.138845,-1.7333 -0.357097,-3.2561 -0.484999,-3.384 -0.133681,-0.13368 -0.475343,-0.0312 -0.803609,0.24103 -0.49625,0.41154 -0.607189,0.90681 -0.846905,3.78087 -0.151717,1.81901 -0.386236,4.00929 -0.521155,4.86729 -0.134916,0.85799 -0.326122,2.91182 -0.424902,4.56406 -0.09878,1.65224 -0.266306,3.00407 -0.372282,3.00407 -0.354674,0 -0.523409,-1.62623 -0.523409,-5.04454 0,-1.90692 -0.112398,-3.46036 -0.256826,-3.54962 -0.278077,-0.17186 -0.393724,0.21019 -0.799441,2.64103 -0.66474,3.98278 -1.028343,7.15606 -1.205088,10.51719 -0.105216,2.00091 -0.29188,3.63802 -0.414805,3.63802 -0.122926,0 -0.463455,-0.47034 -0.756733,-1.04521 -1.076248,-2.10962 -2.009462,-5.46822 -2.607886,-9.38566 -0.26528,-1.73659 -0.573527,-2.93351 -0.772243,-2.99861 -0.181901,-0.0596 -0.330729,0.0601 -0.330729,0.266 0,0.35424 -0.475022,2.0466 -1.575744,5.61388 -0.267888,0.86819 -0.603888,1.61747 -0.746668,1.66506 -0.349612,0.11654 -0.611756,-2.16692 -0.616789,-5.37266 -0.0048,-3.05541 0.609124,-7.23738 1.396458,-9.51259 0.844114,-2.43928 2.468973,-5.76478 3.086248,-6.31644 0.305009,-0.27259 0.740328,-1.13463 0.967378,-1.91565 0.302842,-1.04175 0.817383,-1.86125 1.931485,-3.07626 2.577055,-2.81048 5.082633,-5.69666 5.082633,-5.85469 0,-0.0828 -0.177827,-0.0823 -0.395171,0.001 -0.250698,0.0962 -0.47393,-0.0613 -0.610593,-0.43069 -0.209505,-0.56635 -0.233862,-0.55803 -0.886917,0.30307 -0.369324,0.48698 -0.88922,1.36167 -1.155327,1.94375 -0.266105,0.58208 -0.975641,1.65365 -1.576742,2.38125 -1.548083,1.87387 -2.189282,2.8218 -3.843838,5.68262 -0.801421,1.38571 -1.631342,2.51946 -1.844273,2.51946 -0.247261,0 -0.571939,-0.61884 -0.898589,-1.71273 l -0.511442,-1.71273 0.741169,-2.08598 c 0.407644,-1.14729 1.199825,-2.77283 1.760403,-3.6123 0.812176,-1.21622 1.019236,-1.77255 1.019236,-2.73846 0,-1.16941 0.05098,-1.24756 1.44517,-2.215599 1.689457,-1.173049 1.915544,-1.640785 0.425712,-0.88073 -1.930172,0.9847 -5.775227,4.425549 -7.465486,6.680679 -0.488228,0.65139 -1.393704,1.80882 -2.012167,2.57206 -1.643604,2.02835 -1.565816,2.9265 0.695081,8.02553 0.30761,0.69376 1.052177,1.79609 1.654588,2.44963 l 1.095293,1.18826 -0.474945,2.31286 c -0.362879,1.76713 -0.46798,3.43661 -0.445413,7.07536 0.01624,2.61938 -0.0691,5.00063 -0.189659,5.29167 -0.349557,0.8439 -0.813266,3.6304 -0.817203,4.91072 -0.0042,1.35186 -0.230592,2.36532 -0.528476,2.36532 -0.205298,0 -0.839383,-2.82702 -1.364923,-6.08541 -0.161353,-1.0004 -0.220159,-3.69151 -0.140582,-6.43341 0.117189,-4.03788 0.0846,-4.64477 -0.227305,-4.23334 -0.200259,0.26416 -0.367893,0.69647 -0.372521,0.9607 -0.01041,0.59418 -0.433058,1.41596 -1.207082,2.347 -0.456114,0.54864 -0.692337,1.42366 -1.035705,3.83646 -0.559841,3.93392 -0.638934,4.31634 -0.892732,4.31634 -0.374895,0 -0.89435,-3.25489 -1.034523,-6.4823 -0.09709,-2.23543 -0.0066,-4.07541 0.305904,-6.2177 0.447705,-3.06948 1.320929,-6.53431 1.76373,-6.99823 0.131951,-0.13825 0.23991,-0.46567 0.23991,-0.72761 0,-1.98223 -3.17612,2.7612 -4.372181,6.52972 -0.349471,1.1011 -0.741297,2.19123 -0.870724,2.4225 -0.764182,1.36552 -0.485059,-4.65685 0.412462,-8.8993 0.422153,-1.99545 1.634798,-5.12014 2.46434,-6.35 0.245386,-0.3638 0.765129,-1.25677 1.154985,-1.98438 1.528977,-2.85359 3.644853,-5.69221 6.999075,-9.389825 2.498185,-2.753948 0.815681,-1.835481 -2.24572,1.22592 -1.463877,1.463875 -2.082209,1.924565 -2.296083,1.710685 -0.291456,-0.29145 0.124303,-1.875404 1.014632,-3.865526 0.347577,-0.776928 2.745099,-3.252889 4.121703,-4.256553 0.381669,-0.27827 2.048544,-1.604853 3.704166,-2.94796 1.655623,-1.343108 3.784127,-3.054184 4.730013,-3.802392 1.860592,-1.471754 8.070042,-5.621444 10.847912,-7.249511 0.94589,-0.554369 2.02657,-1.215899 2.40151,-1.470068 0.37494,-0.254168 1.68463,-0.784763 2.91042,-1.179098 1.9298,-0.620815 2.93006,-0.751173 7.45823,-0.971982 5.89012,-0.287222 6.68898,-0.159711 9.46296,1.510443 2.12474,1.279255 2.5119,1.318086 4.90337,0.491779 2.93141,-1.012871 4.03305,-0.976165 6.53322,0.217687 1.12859,0.538915 2.43828,1.262236 2.91041,1.607382 5.72218,4.183109 7.31065,5.614556 11.90847,10.731299 5.01127,5.576865 5.87758,6.657831 8.40842,10.49191 2.23095,3.37977 3.0925,5.50794 4.49029,11.09178 1.35898,5.42875 1.49788,6.24049 1.06789,6.24049 -0.29224,0 -1.73686,-2.938 -2.01649,-4.10104 -0.10496,-0.43656 -0.40295,-1.21047 -0.66219,-1.71979 -0.25925,-0.50932 -0.842,-1.72429 -1.29499,-2.69992 -1.22902,-2.64699 -3.90516,-5.99555 -4.36153,-5.45745 -0.0409,0.0482 1.01664,1.78214 2.34998,3.85327 1.33335,2.07113 2.64718,4.39285 2.91964,5.15938 0.27245,0.76652 0.64658,1.6318 0.8314,1.92284 0.18481,0.29105 0.6863,1.42214 1.1144,2.51355 0.42811,1.0914 1.41107,3.41312 2.18436,5.15937 1.25312,2.82979 1.40712,3.37638 1.41638,5.02708 0.008,1.4187 -0.1671,2.31644 -0.74809,3.83646 -0.90168,2.35904 -1.73821,3.82662 -2.00932,3.5251 -0.10771,-0.11979 -0.33842,-1.52749 -0.51268,-3.12822 -0.59594,-5.47424 -0.99334,-7.14394 -1.8944,-7.95938 -0.27774,-0.25136 -0.50671,-0.70645 -0.50881,-1.01132 -0.006,-0.80838 -1.17197,-5.39278 -1.43435,-5.63756 -0.3496,-0.32616 0.0256,2.59127 0.89911,6.99179 0.91217,4.59508 1.0843,8.2826 0.60254,12.90814 -1.07497,10.32094 -2.71895,14.85979 -7.6041,20.99409 -2.1395,2.68657 -3.82587,4.47371 -4.35107,4.61105 -0.53439,0.13975 -0.51067,0.0522 0.77267,-2.85098 0.25731,-0.58208 0.72305,-1.7523 1.03499,-2.60048 0.31194,-0.84818 0.79563,-1.97927 1.07486,-2.51354 0.6277,-1.20102 1.76822,-5.07099 1.95092,-6.6198 0.0751,-0.63637 0.37666,-1.40696 0.67491,-1.72443 1.12215,-1.19448 2.73126,-5.2056 3.4028,-8.48235 0.59767,-2.91628 0.64437,-3.63362 0.53565,-8.22797 -0.0915,-3.86478 -0.21762,-5.24671 -0.5435,-5.95312 -0.23342,-0.50599 -0.55984,-1.69229 -0.72537,-2.63623 -0.33876,-1.93168 -1.27231,-4.31561 -2.29549,-5.86173 -0.64279,-0.97132 -0.66758,-1.12371 -0.39329,-2.41788 1.65795,-7.82263 0.55991,-11.8152 -3.868,-14.064341 -1.68309,-0.854922 -1.39705,-0.255286 0.72593,1.521801 2.34768,1.96517 2.85424,2.81795 3.10628,5.22932 0.22194,2.12338 -0.37943,6.62727 -1.06662,7.98829 -0.46811,0.92714 -0.69587,1.11871 -1.33003,1.11871 -1.06448,0 -1.87176,-1.12853 -1.8528,-2.59012 0.008,-0.61273 0.11125,-2.2606 0.22956,-3.66194 l 0.21511,-2.54789 -1.34911,-1.95002 c -0.74201,-1.07252 -2.01027,-2.72394 -2.81835,-3.669821 -1.63202,-1.910334 -1.80387,-2.723845 -0.60453,-2.861844 0.40018,-0.04605 0.7276,-0.201427 0.7276,-0.345289 0,-0.651672 -6.98698,-3.130689 -9.40029,-3.335276 -1.882,-0.159544 -2.23233,0.109191 -2.50769,1.923602 -0.20965,1.381456 -0.35376,1.215564 3.2871,3.783983 1.59474,1.124995 3.35896,2.676775 4.49792,3.956305 4.14954,4.66168 8.65824,12.04616 9.88691,16.1931 0.15091,0.50933 0.59061,2.47386 0.97712,4.36563 0.38651,1.89177 0.82723,3.97536 0.97937,4.63021 0.38387,1.65223 0.57021,9.34638 0.22113,9.13064 -0.14776,-0.0913 -0.26865,-0.38752 -0.26865,-0.65822 0,-1.05667 -0.9031,-3.94419 -1.88269,-6.01964 -0.56525,-1.19758 -1.02773,-2.28873 -1.02773,-2.42479 0,-0.53428 -1.63992,-4.50463 -1.97571,-4.78331 -0.28696,-0.23815 -0.27719,0.0294 0.05,1.36978 0.22364,0.91616 0.56664,2.08246 0.76221,2.59179 1.51437,3.94381 3.01498,14.12051 2.56662,17.40597 -0.17351,1.27148 -0.62651,1.35481 -0.91892,0.16904 -1.09281,-4.43156 -3.58165,-12.29399 -4.0352,-12.74754 -0.50893,-0.50893 -0.4003,0.57686 0.33401,3.33859 1.22598,4.61087 1.10143,5.41576 -0.424,2.74013 -5.62676,-9.86938 -8.08601,-16.149 -8.44005,-21.55148 -0.33317,-5.0839 -0.92231,-2.20611 -0.91973,4.49261 0.002,3.98502 0.31427,7.71246 0.83808,9.98913 0.30985,1.34671 0.3242,2.77813 0.0278,2.77813 -0.24184,0 -1.16083,-1.30212 -2.12613,-3.0125 -0.8197,-1.45242 -1.95994,-4.86776 -2.66006,-7.96771 -0.76288,-3.37781 -0.75949,-3.36729 -1.03273,-3.19842 -0.12673,0.0783 -0.29014,0.9771 -0.36314,1.99728 -0.073,1.02018 -0.24932,2.00544 -0.39184,2.18947 -0.14253,0.18402 -0.40981,0.9299 -0.59397,1.6575 -0.68928,2.72329 -1.68498,5.68855 -1.91015,5.68855 -0.12822,0 -0.15997,-0.74414 -0.0706,-1.65365 0.28036,-2.85233 0.27006,-8.64764 -0.0155,-8.72537 -0.14552,-0.0396 -0.30155,0.34469 -0.34673,0.85402 -0.13232,1.49153 -0.97947,3.95224 -2.09706,6.09128 -2.05405,3.93139 -5.09684,8.25759 -5.09684,7.24663 0,-0.0857 0.26227,-1.60376 0.58282,-3.37344 1.0055,-5.5511 0.73501,-14.27223 -0.47378,-15.27543 -0.31484,-0.2613 -0.37362,-0.056 -0.37362,1.30446 0,0.88799 -0.16845,2.06343 -0.37434,2.61208 -0.20588,0.54865 -0.44303,2.18817 -0.527,3.64337 -0.21625,3.7478 -1.35463,8.49014 -2.80686,11.69297 -1.33907,2.95325 -0.32099,2.8952 1.3484,-0.0769 0.59653,-1.06202 1.02648,-1.60501 1.02727,-1.29732 0.002,0.80338 -0.65127,3.22571 -1.42085,5.26821 -0.37896,1.00575 -0.62482,1.89282 -0.54638,1.97127 0.0784,0.0785 0.82322,-0.54014 1.65505,-1.37463 0.83183,-0.8345 1.81007,-1.67068 2.17387,-1.8582 0.3638,-0.18751 0.89959,-0.46614 1.19063,-0.61917 3.04927,-1.60337 3.42996,-1.69305 3.99056,-0.94009 0.31891,0.42833 0.40039,0.39944 1.0875,-0.38562 0.68269,-0.77999 0.99325,-0.89235 3.83921,-1.38906 3.95035,-0.68946 4.97335,-0.70245 4.97335,-0.0632 0,0.2625 -0.38854,0.85385 -0.86342,1.31413 l -0.86342,0.83686 -3.17148,-0.046 c -3.7597,-0.0546 -5.45949,0.45906 -7.10884,2.14815 -1.2515,1.28165 -0.86301,1.6432 0.68638,0.63877 0.89834,-0.58237 1.42,-0.72868 2.50747,-0.70328 0.94589,0.0221 1.41668,-0.0814 1.51305,-0.33252 0.34939,-0.9105 2.0086,0.0214 2.0086,1.1281 0,0.62109 -1.23115,1.85554 -1.98438,1.9897 -0.43122,0.0768 -0.54454,0.33742 -0.61223,1.40807 -0.0457,0.7226 -0.21149,1.46855 -0.36844,1.65766 -0.45529,0.54859 -0.077,0.68384 2.24096,0.80125 2.11913,0.10734 2.19845,0.0896 2.87317,-0.64293 0.45002,-0.48857 0.85522,-1.42744 1.15298,-2.67154 0.46027,-1.92311 0.9846,-2.47148 1.32814,-1.38906 0.0924,0.29104 0.26453,0.52917 0.38257,0.52917 0.23005,0 2.66014,-2.7577 2.66014,-3.01876 0,-0.0859 -0.52875,-0.15624 -1.17501,-0.15624 -0.64625,0 -1.25277,-0.12583 -1.34782,-0.27963 -0.23844,-0.3858 0.0445,-1.31771 0.62688,-2.06455 0.47529,-0.60952 0.50737,-0.61379 1.34759,-0.17929 1.10788,0.57291 1.5505,0.38502 1.65495,-0.70251 0.0774,-0.80559 0.16428,-0.88167 1.09469,-0.95828 1.5871,-0.13069 1.84283,0.25356 1.62974,2.44879 -0.0997,1.02727 -0.34372,2.50279 -0.54223,3.27893 -0.67327,2.63235 -4.16965,8.52913 -6.90682,11.64863 -1.17549,1.33967 -1.52683,1.88916 -1.20795,1.88916 0.21426,0 1.43557,-0.98432 4.37929,-3.52948 1.60491,-1.38762 1.76961,-1.43994 1.76961,-0.56218 0,0.90415 -2.32694,4.27322 -4.97742,7.20658 -1.08779,1.20389 -1.90358,2.26311 -1.81286,2.35382 0.0907,0.0907 0.66271,-0.1799 1.2711,-0.60138 1.00472,-0.69605 1.65707,-1.11326 3.41738,-2.18563 0.57603,-0.35092 0.58768,-0.33667 0.41815,0.51101 -0.37976,1.8988 -2.91381,5.39707 -6.75919,9.33111 -5.37335,5.49724 -10.78589,9.23659 -13.25299,9.15608 -0.21829,-0.007 -0.93266,-0.23104 -1.5875,-0.49759 z m 4.92369,-1.10286 c 4.91458,-2.59381 13.82392,-11.3342 14.91108,-14.62832 0.17946,-0.54378 0.25876,-1.05624 0.1762,-1.1388 -0.0825,-0.0825 -0.96478,0.34215 -1.9605,0.94377 -1.80673,1.09164 -2.70464,1.35686 -2.70464,0.79886 0,-0.16226 0.96,-1.30919 2.13334,-2.54874 2.99116,-3.15996 4.41256,-5.35834 3.46452,-5.35834 -0.23965,0 -2.52098,1.47774 -3.77831,2.4474 -1.91569,1.4774 -1.74267,0.64586 0.42667,-2.05052 0.93662,-1.16417 1.854,-2.41432 2.03863,-2.77813 0.18463,-0.3638 0.69506,-1.09694 1.13428,-1.62919 1.02878,-1.24671 2.96586,-5.10174 3.18781,-6.34415 0.10544,-0.59025 0.0604,-1.03074 -0.11651,-1.1401 -0.15859,-0.098 -0.28835,-0.4093 -0.28835,-0.69176 0,-0.28245 -0.14381,-0.51355 -0.31957,-0.51355 -0.35702,0 -2.32626,1.83921 -2.32626,2.17266 0,0.42799 -1.3998,1.76962 -1.92801,1.84789 -0.29876,0.0443 -0.77205,0.49721 -1.05177,1.00654 -0.98357,1.79095 -1.75656,2.38288 -3.08899,2.36548 -1.91141,-0.025 -3.71842,-0.39762 -4.18354,-0.86273 -0.3942,-0.39421 -0.39283,-0.46675 0.0174,-0.92004 0.24974,-0.27596 0.44534,-0.92527 0.44534,-1.47836 0,-0.76793 0.18374,-1.15409 0.83001,-1.74437 1.25006,-1.14174 0.91232,-1.53639 -1.27955,-1.49515 -1.65286,0.0311 -1.93322,0.12192 -3.16232,1.02442 l -1.34867,0.9903 -0.67032,-0.52728 c -0.43833,-0.34479 -1.07234,-0.52727 -1.83195,-0.52727 -0.9736,0 -1.30945,0.14853 -2.07493,0.91764 -1.22069,1.22648 -1.83935,1.22931 -1.83935,0.008 0,-0.50932 -0.0893,-0.92433 -0.19844,-0.92223 -0.33855,0.007 -1.65364,2.60746 -1.65364,3.27054 0,0.34554 -0.0744,1.00032 -0.16537,1.45507 -0.13912,0.69564 -0.28588,0.82683 -0.92494,0.82683 -0.56472,0 -1.23094,-0.43257 -2.59692,-1.68613 -2.08885,-1.91694 -2.48021,-1.97616 -4.12108,-0.62361 -1.12264,0.92537 -1.79786,2.2911 -1.5739,3.18344 0.27231,1.08493 -0.56221,1.49714 -3.40967,1.68418 -2.08128,0.13671 -2.56315,0.0992 -2.60366,-0.20287 -0.0273,-0.20385 -0.0571,-1.37255 -0.0661,-2.59711 -0.0162,-2.19395 -0.0272,-2.23006 -0.75253,-2.47227 -0.92234,-0.308 -1.95594,0.29481 -2.20466,1.28578 -0.13029,0.51912 0.0381,0.97515 0.70706,1.91489 0.96872,1.36084 1.07222,2.21957 0.52525,4.35797 -0.47668,1.86359 -0.22712,2.42043 1.71657,3.83005 2.0066,1.45524 2.17615,2.03169 0.6685,2.27277 -1.26749,0.20268 -1.48341,0.49141 -0.96227,1.28678 0.46484,0.70943 3.96231,3.49801 5.38789,4.29583 1.21935,0.68241 1.41177,1.5066 0.45366,1.94314 -0.37731,0.17192 -0.85901,0.31257 -1.07045,0.31257 -1.06432,0 0.46735,1.88703 2.26141,2.78607 0.50932,0.25524 2.29526,1.32039 3.96875,2.36701 5.77444,3.6114 6.7482,4.05913 8.89244,4.0887 1.02624,0.0142 1.7272,-0.17948 2.91042,-0.80396 z m -7.73911,-10.42397 c -0.0882,-0.22985 -0.085,-0.49328 0.007,-0.58539 0.26151,-0.26151 5.03027,-0.5639 5.28052,-0.33484 0.12279,0.11239 0.18094,0.42535 0.12923,0.69547 -0.0827,0.43202 -0.40463,0.50024 -2.67525,0.5669 -2.15461,0.0633 -2.60774,0.007 -2.7416,-0.34214 z m -1.55021,-5.09577 c -0.71235,-0.14992 -2.51354,-1.91214 -2.51354,-2.45916 0,-0.24082 0.3958,-1.19893 0.87955,-2.12912 0.48376,-0.93019 0.96209,-1.98891 1.06296,-2.35271 l 0.18341,-0.66146 0.54994,0.65599 c 0.48841,0.5826 0.53009,0.86782 0.37252,2.5493 -0.11622,1.24023 -0.064,2.27177 0.15132,2.99052 0.35832,1.19598 0.16788,1.58639 -0.68616,1.40664 z m -0.16492,-2.12096 c -0.005,-0.39545 0.0741,-1.50637 0.17694,-2.46872 0.12846,-1.20261 0.0932,-1.80767 -0.11286,-1.935 -0.17047,-0.10536 -0.36376,0.0217 -0.44813,0.29452 -0.0816,0.26389 -0.37841,0.98899 -0.65959,1.61135 -0.65834,1.45716 -0.64513,2.13139 0.0564,2.87813 0.67795,0.72165 1.0008,0.5973 0.98724,-0.38028 z m -8.28331,-7.74575 c 0.15855,-0.13158 0.23374,-0.61075 0.16709,-1.06482 -0.0666,-0.45406 -0.1976,-0.7019 -0.29102,-0.55074 -0.38401,0.62135 -2.40805,0.90407 -2.40805,0.33637 0,-0.10854 0.60389,-0.3618 1.34198,-0.56278 0.82798,-0.22547 1.45082,-0.57315 1.62613,-0.90773 0.15628,-0.29826 0.44536,-0.6375 0.64239,-0.75388 0.64171,-0.37899 0.37967,-1.16269 -0.72134,-2.15739 -1.37668,-1.24375 -3.01168,-1.94046 -5.43951,-2.31791 -1.48352,-0.23063 -2.1572,-0.22495 -2.92927,0.0247 -0.828339,0.26785 -1.232683,0.25331 -2.325587,-0.0836 -0.727604,-0.22431 -1.412214,-0.40913 -1.521354,-0.41071 -0.414986,-0.006 -0.171509,0.65775 0.49739,1.35593 0.816393,0.85213 0.685366,1.55163 -0.29065,1.55163 -0.847834,0 -0.899393,0.71809 -0.07445,1.03693 0.327422,0.12655 1.102167,0.79746 1.721652,1.4909 0.619487,0.69344 1.206862,1.18028 1.30528,1.08187 0.09841,-0.0984 0.03805,-0.31983 -0.134155,-0.49203 -0.610708,-0.61071 -0.35416,-1.70388 0.595567,-2.53775 1.234667,-1.08405 1.999507,-1.3028 2.441537,-0.69828 0.30579,0.41818 0.42811,0.43268 1.01235,0.12001 0.55529,-0.29718 0.77329,-0.29746 1.326,-0.002 0.3638,0.1947 0.66146,0.56287 0.66146,0.81816 0,0.25528 -0.29766,0.8179 -0.66146,1.25025 -0.68745,0.81699 -0.8211,1.50307 -0.41711,2.14125 0.14595,0.23054 0.11911,0.56232 -0.0702,0.86797 -0.243,0.39232 -0.22428,0.55022 0.0904,0.7626 0.44989,0.3036 3.4049,0.0742 3.8549,-0.29929 z m 47.59793,-35.9585 c 0.6331,-0.69956 0.95475,-2.55135 0.95317,-5.48757 -7.9e-4,-1.61659 -0.14183,-2.77295 -0.4193,-3.43958 -0.56213,-1.35056 -2.30083,-3.09245 -4.212,-4.219722 -1.31426,-0.775197 -1.66994,-0.88061 -2.18281,-0.646927 -0.81769,0.372562 -0.77458,0.696936 0.26353,1.983059 0.48194,0.59707 1.50469,2.00231 2.27278,3.12276 l 1.39653,2.03717 -0.27276,2.98991 c -0.22888,2.50888 -0.21045,3.08568 0.11457,3.58522 0.47891,0.73607 1.45656,0.77153 2.08629,0.0757 z m -67.641474,-1.37805 c 0.390787,-0.46164 0.889117,-1.11013 1.107398,-1.44109 0.218281,-0.33096 1.246635,-1.7119 2.285228,-3.06877 1.038592,-1.35686 2.17561,-3.05985 2.526704,-3.78443 0.351092,-0.72457 0.962068,-1.86743 1.357723,-2.53968 1.280951,-2.176465 0.14283,-2.958658 -2.231118,-1.533384 -2.125451,1.276083 -3.144787,2.322954 -3.144787,3.229744 0,0.42193 -0.244573,1.11062 -0.543494,1.53041 -1.220084,1.71345 -2.896089,5.71335 -2.896089,6.91171 0,1.80846 0.431249,2.00342 1.538435,0.69549 z M 123.85587,80.466558 c 1.49523,-0.627318 2.11347,-1.120147 1.94756,-1.5525 -0.0837,-0.217992 -0.30433,-0.396349 -0.49041,-0.396349 -0.18608,0 -0.67936,-0.17786 -1.09617,-0.395245 -0.41682,-0.217385 -1.24974,-0.395979 -1.85094,-0.396875 -0.88133,-0.0013 -1.25293,0.161864 -1.91823,0.842348 -1.33841,1.36896 -0.84425,2.211043 0.73421,1.251128 1.03334,-0.628414 0.95995,-0.641899 1.02872,0.18901 0.0321,0.387756 -0.14783,0.88632 -0.40581,1.12448 -1.12586,1.039365 -1.16404,1.379496 -0.0656,0.58437 0.65484,-0.474018 1.60734,-1.036683 2.11666,-1.250367 z m 28.76752,75.929922 c -0.0739,-0.12296 -0.023,-0.81887 0.11299,-1.54648 0.13604,-0.7276 0.39267,-2.47568 0.57029,-3.88461 0.17762,-1.40894 0.41042,-2.64917 0.51733,-2.75608 0.71008,-0.71008 0.9364,2.69743 0.34062,5.12854 -0.44375,1.81074 -1.2863,3.48283 -1.54123,3.05863 z m 11.80325,-17.156 c 0.0963,-1.57374 0.17507,-3.91438 0.17507,-5.20143 0,-2.2153 0.24345,-2.90856 0.65915,-1.87707 0.28473,0.70648 0.15312,7.16662 -0.17233,8.45909 -0.5591,2.22038 -0.84565,1.62268 -0.66189,-1.38059 z m -58.10246,-0.90864 c -0.69291,-0.0966 -1.45541,-0.37117 -1.69445,-0.61021 -0.4794,-0.4794 -1.6668,-3.9571 -1.6724,-4.89819 -0.006,-0.96508 0.44833,-0.69732 1.78267,1.05123 0.69107,0.9056 1.76251,2.19787 2.38098,2.87171 0.61846,0.67384 1.12447,1.36165 1.12447,1.52845 0,0.32405 -0.004,0.32418 -1.92127,0.057 z m -12.073843,-0.84897 c -0.614492,-0.23175 -0.628496,-0.30003 -0.463021,-2.25761 0.09385,-1.11025 0.170638,-2.29833 0.170638,-2.64018 0,-0.91835 0.459108,-0.75458 0.66819,0.23836 0.09959,0.47294 0.406704,1.54075 0.682482,2.3729 0.275775,0.83216 0.501412,1.63164 0.501412,1.77663 0,0.46938 -0.893027,0.76133 -1.559701,0.5099 z m 3.31537,-0.29381 c -0.717426,-1.14441 -0.981305,-3.18088 -0.859994,-6.63694 0.06556,-1.8677 0.185627,-3.46224 0.266824,-3.54344 0.322774,-0.32277 0.98057,0.59862 1.360575,1.90579 0.220584,0.75878 0.777105,1.9636 1.236713,2.67736 1.250005,1.94125 3.119375,5.44195 3.119375,5.84155 0,0.26554 -0.57826,0.351 -2.37515,0.351 -2.17615,0 -2.406414,-0.0499 -2.748343,-0.59532 z m 29.729753,-2.40127 c 0,-0.19292 0.28374,-0.61732 0.63054,-0.94312 0.34679,-0.32579 1.02553,-1.38835 1.50831,-2.36122 1.08248,-2.18137 1.77797,-3.22407 2.15046,-3.22407 0.42097,0 0.0128,4.74715 -0.4719,5.48872 -0.70385,1.0768 -3.81741,1.92479 -3.81741,1.03969 z m 6.08541,-1.64212 c 0,-0.36847 0.194,-1.11262 0.43111,-1.65365 0.23711,-0.54102 0.81618,-2.17431 1.28683,-3.62952 0.51452,-1.59085 0.99561,-2.64583 1.20654,-2.64583 0.19717,0 0.66141,0.86916 1.0599,1.98437 0.38999,1.09141 1.08171,2.75828 1.53714,3.70417 0.45544,0.94589 0.82816,1.91157 0.82827,2.14596 2.4e-4,0.48901 -1.61259,0.75836 -4.56385,0.76216 -1.73526,0.002 -1.78594,-0.0167 -1.78594,-0.66766 z m 10.00905,-0.31046 c -0.36328,-0.43772 -0.95059,-3.8232 -1.17865,-6.79425 -0.15013,-1.95571 -0.11804,-2.32992 0.19093,-2.22703 0.20426,0.068 0.41419,0.35193 0.46652,0.63091 0.0523,0.27899 0.73694,2.0885 1.52136,4.02113 0.78441,1.93264 1.42621,3.73584 1.42621,4.00711 0,0.38339 -0.2391,0.51602 -1.07381,0.59562 -0.65992,0.0629 -1.18124,-0.0271 -1.35256,-0.23349 z M 83.873627,117.08073 c -1.417669,-1.92708 -2.615673,-4.68184 -2.615673,-6.01463 0,-0.98472 0.220074,-1.53383 1.222451,-3.05017 1.316324,-1.99127 4.246518,-5.15655 4.77356,-5.15655 0.177517,0 0.400847,0.12634 0.496284,0.28077 0.217742,0.35231 -0.697232,2.50386 -1.829789,4.30271 -1.523238,2.41937 -1.623769,2.86593 -1.099929,4.88584 0.253246,0.97651 0.690277,2.41547 0.971175,3.1977 0.467315,1.30135 0.475734,1.47563 0.09905,2.05052 -0.590632,0.90142 -1.076986,0.78178 -2.017133,-0.49619 z m 0.807646,-3.639 c -0.695714,-2.57836 -0.603673,-3.57788 0.544174,-5.90949 0.819322,-1.66428 0.865577,-2.29161 0.168963,-2.29161 -0.424114,0 -2.73753,3.14257 -3.11902,4.23692 -0.668409,1.9174 0.393044,5.27655 2.09123,6.61805 0.725482,0.57311 0.728054,0.57321 0.81057,0.0329 0.04553,-0.29814 -0.177634,-1.50717 -0.495917,-2.68674 z m 64.457777,-6.40476 c -0.97578,-1.35179 -2.31277,-3.14659 -2.97109,-3.98844 -1.21733,-1.55672 -4.05519,-3.998098 -5.53972,-4.765782 -1.37039,-0.708654 -2.52717,-2.224307 -2.43354,-3.188517 0.077,-0.792708 0.14248,-0.837772 1.32876,-0.914091 1.4257,-0.09172 6.2858,1.286283 6.82406,1.934851 0.18755,0.225983 0.26378,0.71883 0.17772,1.14909 -0.16509,0.825471 0.164,1.372918 3.22677,5.367759 0.92772,1.21005 1.80329,2.45582 1.9457,2.7684 0.31974,0.70175 -0.066,3.85671 -0.48869,3.99662 -0.1627,0.0539 -1.09418,-1.00809 -2.06997,-2.35989 z m 2.23201,-0.0104 c -0.004,-1.41793 -0.68128,-2.70329 -2.91308,-5.52456 -1.64791,-2.083172 -2.37711,-3.221444 -2.37711,-3.710693 0,-0.815793 -1.22846,-1.988733 -2.33549,-2.229935 -0.38897,-0.08475 -1.0524,-0.263308 -1.4743,-0.396799 -1.30607,-0.413244 -2.48548,-0.302786 -2.66067,0.249185 -0.0859,0.270542 -0.085,0.67709 0.002,0.903441 0.15937,0.415303 2.33723,2.379258 4.13607,3.729831 0.53609,0.40249 1.80014,1.76547 2.809,3.02884 1.89004,2.36685 4.0686,4.546 4.54476,4.546 0.14878,0 0.26983,-0.26789 0.26902,-0.59532 z m -10.0889,-28.641626 c -0.52924,-0.346939 -1.79327,-1.054309 -2.80896,-1.571933 -2.09991,-1.070173 -4.09869,-1.252855 -5.82336,-0.53224 -0.77846,0.32526 -1.09792,0.345054 -1.56183,0.09677 -0.53448,-0.286045 -0.5509,-0.361433 -0.19648,-0.902349 0.42772,-0.652773 0.17746,-1.706188 -0.61279,-2.579398 -0.68351,-0.755268 -0.86662,-0.545727 -0.86662,0.991703 0,1.633762 -0.27104,1.811004 -1.21379,0.79375 -0.86244,-0.930583 -1.27431,-0.841813 -0.75486,0.162693 0.65615,1.268863 0.14528,1.503604 -1.38535,0.636554 -0.70191,-0.397609 -1.75246,-0.877155 -2.33454,-1.065657 -0.59019,-0.191126 -0.82426,-0.351731 -0.52917,-0.363078 0.29105,-0.01119 1.04819,0.215162 1.68254,0.503008 0.63436,0.287845 1.31897,0.523355 1.52136,0.523355 0.42259,0 0.49871,-0.681724 0.1034,-0.926041 -0.14553,-0.08994 -0.26459,-0.335089 -0.26459,-0.544782 0,-0.564806 1.16168,-0.468797 1.71415,0.141668 0.68608,0.758106 0.93169,0.433255 0.93169,-1.232273 0,-1.460531 0.005,-1.468867 0.58647,-1.082464 0.91946,0.610502 1.5728,1.637437 1.9256,3.026744 l 0.3247,1.278607 h 2.7488 2.7488 l 2.43942,1.401419 c 1.34168,0.77078 2.50957,1.514921 2.5953,1.653646 0.21451,0.347087 0.13029,0.311509 -0.96989,-0.409705 z"
         id="path1535" />
      <path
         style="fill:#31315d;stroke-width:0.264583"
         d="m 65.150345,227.41198 c 0.370181,-3.75084 2.713299,-13.53865 3.892556,-16.26021 0.428398,-0.98868 0.866421,-2.08651 0.973385,-2.43963 0.480165,-1.58515 4.202366,-5.93832 6.960699,-8.14065 2.141595,-1.70991 3.753994,-2.34886 8.897824,-3.52599 2.61203,-0.59775 4.861348,-1.15616 4.998484,-1.24091 0.137139,-0.0848 1.119156,-0.23927 2.18226,-0.34336 1.557158,-0.15246 2.201683,-0.36352 3.315452,-1.08566 2.227807,-1.44446 12.052035,-6.58494 12.584795,-6.58494 0.32716,0 2.33189,-2.1105 2.71529,-2.85856 0.57047,-1.11303 1.06637,-3.07893 1.08094,-4.28519 0.0241,-1.99547 0.41865,-3.4366 1.14974,-4.19969 0.38152,-0.39823 0.69369,-0.85032 0.69369,-1.00463 0,-0.15431 0.26133,-0.6128 0.58074,-1.01887 l 0.58075,-0.7383 -0.82356,-0.68644 c -2.35247,-1.9608 -6.95252,-3.65182 -6.95252,-2.55582 0,0.24834 0.47625,1.01632 1.05833,1.70664 2.45019,2.90577 0.56572,2.47593 -5.03814,-1.14918 -1.04558,-0.67639 -1.97185,-1.15899 -2.05838,-1.07246 -0.17135,0.17134 1.17292,2.76403 2.3749,4.58045 1.61558,2.44145 0.61491,2.20659 -2.59254,-0.60847 -3.446945,-3.02526 -7.21717,-7.3908 -9.025984,-10.45115 -0.817089,-1.38245 -1.624274,-2.69213 -1.793743,-2.91042 -0.466481,-0.60085 -2.766856,-6.21777 -2.777569,-6.78211 -0.0052,-0.27166 -0.188016,-0.79158 -0.406358,-1.15539 -0.423296,-0.7053 -0.421375,-0.86089 -0.0481,3.89599 0.07536,0.96036 -0.326061,1.19978 -0.726791,0.43349 -0.145521,-0.27827 -0.770599,-1.30379 -1.389063,-2.27894 -0.618464,-0.97514 -1.124479,-1.84642 -1.124479,-1.93617 0,-0.0898 -0.228778,-0.45404 -0.508394,-0.80951 -0.494123,-0.62818 -0.513192,-0.6312 -0.679289,-0.10788 -0.258046,0.81303 -0.647272,0.65006 -1.083673,-0.45375 -0.215748,-0.5457 -0.612489,-1.52797 -0.881646,-2.18281 -0.269157,-0.65484 -0.752405,-2.26219 -1.073885,-3.57187 -0.738291,-3.00775 -1.154074,-3.73378 -0.947013,-1.65365 0.116505,1.17041 0.06967,1.52135 -0.203038,1.52135 -0.638616,0 -1.788783,-3.0447 -2.448753,-6.48229 -0.195566,-1.01864 -0.486867,-2.44739 -0.647335,-3.175 -0.802995,-3.641 -0.84868,-4.17322 -0.683971,-7.96818 0.09401,-2.16594 0.232304,-4.59291 0.30733,-5.39328 l 0.13641,-1.45521 -0.642013,1.01652 c -1.081739,1.71275 -2.078437,6.43827 -2.014988,9.55341 0.06633,3.25657 0.07527,3.18904 -0.372837,2.81715 -1.02221,-0.84836 -1.233955,-12.06462 -0.315163,-16.69437 0.538314,-2.71253 1.426744,-5.75797 1.891047,-6.48229 0.186563,-0.29104 0.546224,-1.06495 0.799246,-1.71979 0.253022,-0.65484 0.966597,-2.08359 1.585723,-3.175 0.629136,-1.10905 1.244986,-2.62628 1.396146,-3.43958 0.869469,-4.678105 3.577918,-9.007912 7.158968,-11.44454 0.666326,-0.453384 1.901708,-1.443824 2.745295,-2.200977 1.642073,-1.47383 7.331536,-5.588128 10.372458,-7.500775 4.449822,-2.7988 5.076632,-3.170815 5.953122,-3.533174 0.50933,-0.210565 1.81902,-0.976059 2.91042,-1.701099 1.09141,-0.72504 2.4011,-1.452358 2.91042,-1.616263 0.50932,-0.163905 3.45658,-0.425218 6.54947,-0.580695 6.20482,-0.311913 6.77248,-0.241805 9.27707,1.145735 1.66118,0.920298 2.19172,0.716499 1.51939,-0.583649 -0.51945,-1.004506 -0.10758,-1.093276 0.75486,-0.162693 0.94275,1.017254 1.21379,0.840012 1.21379,-0.79375 0,-1.53743 0.18311,-1.746971 0.86662,-0.991703 0.79025,0.87321 1.04051,1.926625 0.61279,2.579398 -0.35442,0.540916 -0.338,0.616304 0.19648,0.902349 0.46391,0.248281 0.78337,0.228487 1.56183,-0.09677 1.71141,-0.715076 3.72516,-0.537063 5.78191,0.511116 4.03289,2.055272 7.80621,4.773599 10.20329,7.350517 0.57412,0.617199 1.39516,1.433609 1.82453,1.814245 4.35682,3.862307 11.47499,13.045848 13.30639,17.167308 0.29098,0.65484 0.83314,1.87205 1.20479,2.70489 0.37165,0.83285 1.21763,3.74988 1.87996,6.48229 0.66233,2.73242 1.44404,5.861 1.73712,6.9524 0.29308,1.09141 0.63616,2.4011 0.7624,2.91042 0.12624,0.50932 0.41915,1.59135 0.65092,2.4045 0.80954,2.84029 0.60128,3.84457 -2.10758,10.16321 -0.68625,1.60073 -1.4029,3.75345 -1.59254,4.78382 -0.40951,2.22487 -0.93404,3.60621 -2.25995,5.95149 -0.54088,0.95671 -1.42424,2.92124 -1.96303,4.36562 -1.22514,3.28435 -1.31579,3.45304 -3.34783,6.23046 -2.54315,3.476 -5.29723,6.62921 -6.68053,7.64868 -2.51659,1.8547 -5.06645,3.93688 -5.95457,4.86242 -1.30341,1.35833 -2.31564,1.29451 -1.82428,-0.11501 0.14488,-0.41562 0.22446,-1.00793 0.17683,-1.31626 -0.0716,-0.46342 -0.35052,-0.2368 -1.60913,1.30732 -0.8374,1.02735 -1.65055,1.86792 -1.807,1.86792 -0.19364,0 -0.22348,-0.56938 -0.0935,-1.78343 0.17514,-1.63547 0.15494,-1.75351 -0.24353,-1.42281 -0.66096,0.54855 -0.59716,2.97703 0.0947,3.60311 0.40786,0.36912 0.52916,0.81491 0.52916,1.94476 0,1.22441 0.11524,1.58615 0.6996,2.1961 0.62206,0.64929 0.72478,1.03211 0.92675,3.45406 0.12493,1.49811 0.34589,3.06902 0.49103,3.49092 0.33509,0.97411 0.33784,1.55881 0.006,1.35396 -0.57153,-0.35323 -1.05517,-1.99422 -1.32539,-4.49702 -0.1568,-1.4523 -0.40034,-2.75581 -0.54121,-2.89667 -0.1651,-0.1651 -0.56188,0.0381 -1.11652,0.57173 -0.47323,0.45532 -1.2176,0.90978 -1.65417,1.00992 -0.43656,0.10014 -1.0623,0.34968 -1.39054,0.55454 -0.54194,0.33823 -0.58097,0.50708 -0.42467,1.83691 0.10547,0.89739 0.0385,2.0215 -0.17299,2.90302 -0.27955,1.16527 -0.2821,1.72765 -0.0134,2.96025 0.18244,0.83693 0.49907,1.78539 0.70364,2.10769 0.20456,0.32231 0.36928,0.79856 0.36605,1.05834 -0.005,0.3979 -0.0821,0.37324 -0.48945,-0.15652 -0.4517,-0.5874 -0.64242,-0.62594 -2.89413,-0.58491 -2.1078,0.0384 -2.47833,-0.0238 -2.95014,-0.49563 -0.29675,-0.29677 -0.53956,-0.8807 -0.53956,-1.29764 0,-0.88928 0.9039,-2.15226 1.54056,-2.15256 0.2441,-1.1e-4 1.19456,-0.35537 2.11213,-0.78945 l 1.66832,-0.78925 -0.0808,-1.23444 c -0.0645,-0.98535 -0.22675,-1.34301 -0.80403,-1.77247 -0.68324,-0.50829 -0.8441,-0.51979 -2.91042,-0.208 -4.59718,0.69367 -5.79613,0.95759 -6.12346,1.34794 -0.44017,0.52493 -0.95853,2.36113 -0.95853,3.39543 0,1.52125 -1.91291,2.15833 -3.27161,1.08958 -0.51998,-0.40902 -0.69714,-0.78783 -0.69714,-1.49066 0,-2.59754 -1.19734,-4.04346 -3.34992,-4.0454 -0.90522,-7.9e-4 -1.22274,0.14374 -1.78593,0.81307 -0.43999,0.52289 -0.68498,1.13254 -0.68498,1.70454 0,0.75071 0.22842,1.0877 1.45521,2.14683 1.32398,1.14304 1.45521,1.35438 1.45521,2.34358 0,0.59798 -0.14288,1.23012 -0.3175,1.40474 -0.18511,0.18511 -1.07277,0.3175 -2.1287,0.3175 -1.97369,0 -2.0876,0.0681 -3.74014,2.23445 -0.4193,0.54968 -1.16344,1.23607 -1.65364,1.52529 -0.4902,0.28923 -0.89127,0.62403 -0.89127,0.74402 0,0.11998 0.30823,0.58447 0.68497,1.03219 0.91975,1.09307 0.25468,1.05928 -0.88458,-0.0449 l -0.88626,-0.859 -1.63988,0.8989 c -0.90193,0.4944 -2.31793,1.25207 -3.14667,1.68372 -3.22772,1.6812 -5.174015,3.75266 -6.024002,6.41142 -0.186089,0.58208 -0.443021,1.17144 -0.570963,1.30968 -0.127942,0.13825 -0.236662,0.49544 -0.241599,0.79375 -0.0049,0.29832 -0.239022,1.01865 -0.520189,1.60073 -0.281168,0.58209 -0.515253,1.30775 -0.52019,1.61258 -0.0049,0.30483 -0.244176,1.25733 -0.531638,2.11666 -0.634325,1.89623 -0.68952,2.79548 -0.159088,2.59194 0.822468,-0.31561 0.940051,0.78089 0.431731,4.02603 -0.271082,1.7306 -0.691965,4.63482 -0.935294,6.45384 -0.393343,2.94043 -0.542941,3.45905 -1.348648,4.6755 -0.498424,0.75251 -0.97836,1.55618 -1.066525,1.78594 -0.140515,0.36617 -1.033875,0.41772 -7.239312,0.41772 H 78.15581 l -0.159583,-1.38906 c -0.273557,-2.38113 0.0496,-3.08402 2.972504,-6.46546 1.69746,-1.96375 2.768366,-3.44269 2.924052,-4.03817 0.376753,-1.44103 0.804754,-5.82876 0.804754,-8.25009 v -2.17197 l 4.100378,-4.0988 c 3.034742,-3.03358 4.167944,-4.34351 4.360363,-5.04039 0.157927,-0.57197 0.164594,-1.03697 0.01699,-1.18459 -0.147611,-0.14761 -2.196804,0.19774 -5.220259,0.87976 -4.533741,1.0227 -5.921022,1.43807 -8.479831,2.539 -2.215706,0.95331 -6.592312,6.03395 -8.525174,9.89655 -1.083053,2.16436 -2.485525,6.37099 -2.214438,6.64208 0.133853,0.13385 0.634349,0.1094 1.178363,-0.0576 0.786101,-0.24126 1.064016,-0.2127 1.646939,0.16925 0.697995,0.45734 0.701229,0.47503 0.695031,3.80249 -0.006,3.24134 -0.434558,5.7951 -1.349002,8.03936 l -0.296469,0.7276 h -2.824696 -2.824696 l 0.189315,-1.91823 z m 22.957113,-11.74327 c 0.339487,-0.23779 1.288714,-0.78765 2.109394,-1.22191 0.820679,-0.43426 1.647851,-0.91484 1.838161,-1.06796 0.445682,-0.35856 0.974418,-1.63175 1.218165,-2.93331 0.105606,-0.56391 0.54101,-1.78728 0.96756,-2.7186 0.426554,-0.93132 0.77555,-1.90878 0.77555,-2.17215 0,-0.8182 0.993801,-3.53088 1.936633,-5.28624 0.865844,-1.61202 3.153129,-4.27583 3.671449,-4.27583 0.30067,0 3.86241,-2.13411 5.44972,-3.26535 0.80312,-0.57236 1.11319,-0.96841 1.05833,-1.35178 -0.13652,-0.95407 -1.16594,-0.77195 -4.25286,0.75241 -4.551509,2.24759 -5.370879,2.87926 -7.588497,5.85016 -1.085803,1.45462 -3.515482,4.22041 -5.399289,6.14618 l -3.425106,3.50141 0.04421,4.00276 c 0.02432,2.20151 0.109537,4.10845 0.189383,4.23765 0.21889,0.35417 0.720056,0.28385 1.4072,-0.19744 z m 24.316582,-26.32755 c 1.51992,-2.12593 2.15944,-3.84967 2.47418,-6.66874 0.14433,-1.29273 0.36597,-2.62276 0.49252,-2.95563 0.17569,-0.46209 0.10738,-0.71627 -0.28884,-1.07485 -0.81773,-0.74003 -1.13421,-0.12417 -1.34003,2.60762 -0.20137,2.67286 -0.5652,3.74982 -1.9935,5.901 -0.52066,0.78418 -1.03934,1.93258 -1.15261,2.55199 -0.37351,2.04256 0.16679,1.93457 1.80828,-0.36139 z m 16.32662,-13.19198 c 3.57077,-0.48949 7.83578,-2.19096 9.26042,-3.69433 0.74872,-0.7901 0.79897,-0.97986 0.88581,-3.34528 0.0506,-1.37921 0.0179,-2.80298 -0.0727,-3.16392 -0.14657,-0.58401 -0.22954,-0.62213 -0.75352,-0.34627 -0.32384,0.1705 -1.66609,1.33398 -2.98278,2.58552 -1.31669,1.25153 -4.08489,3.5024 -6.15156,5.00193 -2.06668,1.49952 -3.75759,2.83897 -3.75759,2.97656 0,0.31559 1.20081,0.31082 3.57187,-0.0142 z m -4.788,-1.08369 c 0.56806,-0.15772 1.99681,-0.88963 3.175,-1.62646 6.2606,-3.91534 14.68757,-12.98739 15.40748,-16.58691 0.16953,-0.84768 0.15788,-0.86193 -0.41815,-0.51101 -1.76031,1.07237 -2.41266,1.48958 -3.41738,2.18563 -0.60839,0.42148 -1.18038,0.6921 -1.2711,0.60138 -0.0907,-0.0907 0.72507,-1.14993 1.81286,-2.35382 2.65048,-2.93336 4.97742,-6.30243 4.97742,-7.20658 0,-0.87776 -0.1647,-0.82544 -1.76961,0.56218 -2.94372,2.54516 -4.16503,3.52948 -4.37929,3.52948 -0.31888,0 0.0325,-0.54949 1.20795,-1.88916 2.73717,-3.1195 6.23355,-9.01628 6.90682,-11.64863 0.19851,-0.77614 0.44252,-2.25166 0.54223,-3.27893 0.21309,-2.19523 -0.0426,-2.57948 -1.62974,-2.44879 -0.93041,0.0766 -1.01732,0.15269 -1.09469,0.95828 -0.10445,1.08753 -0.54707,1.27542 -1.65495,0.70251 -0.84022,-0.4345 -0.8723,-0.43023 -1.34759,0.17929 -0.58236,0.74684 -0.86532,1.67875 -0.62688,2.06455 0.0951,0.1538 0.70157,0.27963 1.34782,0.27963 0.64626,0 1.17501,0.0703 1.17501,0.15624 0,0.26106 -2.43009,3.01876 -2.66014,3.01876 -0.11804,0 -0.29019,-0.23813 -0.38257,-0.52917 -0.34354,-1.08242 -0.86787,-0.53405 -1.32814,1.38906 -0.29776,1.2441 -0.70296,2.18297 -1.15298,2.67154 -0.67472,0.73252 -0.75404,0.75027 -2.87317,0.64293 -2.31798,-0.11741 -2.69625,-0.25266 -2.24096,-0.80125 0.15695,-0.18911 0.32275,-0.93506 0.36844,-1.65766 0.0677,-1.07065 0.18101,-1.33126 0.61223,-1.40807 0.75323,-0.13416 1.98438,-1.36861 1.98438,-1.9897 0,-1.10672 -1.65921,-2.0386 -2.0086,-1.1281 -0.0964,0.25114 -0.56716,0.35461 -1.51305,0.33252 -1.08747,-0.0254 -1.60913,0.12091 -2.50747,0.70328 -1.54939,1.00443 -1.93788,0.64288 -0.68638,-0.63877 1.64935,-1.68909 3.34914,-2.20273 7.10884,-2.14815 l 3.17148,0.046 0.86342,-0.83686 c 0.47488,-0.46028 0.86342,-1.05163 0.86342,-1.31413 0,-0.63929 -1.023,-0.6263 -4.97335,0.0632 -2.84596,0.49671 -3.15652,0.60907 -3.83921,1.38906 -0.68711,0.78506 -0.76859,0.81395 -1.0875,0.38562 -0.5606,-0.75296 -0.94129,-0.66328 -3.99056,0.94009 -0.29104,0.15303 -0.82683,0.43166 -1.19063,0.61917 -0.3638,0.18752 -1.34204,1.0237 -2.17387,1.8582 -0.83183,0.83449 -1.5766,1.45308 -1.65505,1.37463 -0.0784,-0.0785 0.16742,-0.96552 0.54638,-1.97127 0.76958,-2.0425 1.42289,-4.46483 1.42085,-5.26821 -8e-4,-0.30769 -0.43074,0.2353 -1.02727,1.29732 -1.66939,2.97209 -2.68747,3.03014 -1.3484,0.0769 1.45223,-3.20283 2.59061,-7.94517 2.80686,-11.69297 0.084,-1.4552 0.32112,-3.09472 0.527,-3.64337 0.20589,-0.54865 0.37434,-1.72409 0.37434,-2.61208 0,-1.36051 0.0588,-1.56576 0.37362,-1.30446 1.20879,1.0032 1.47928,9.72433 0.47378,15.27543 -0.32055,1.76968 -0.58282,3.28773 -0.58282,3.37344 0,1.01096 3.04279,-3.31524 5.09683,-7.24663 1.1176,-2.13904 1.96475,-4.59975 2.09706,-6.09128 0.0452,-0.50933 0.20121,-0.89363 0.34673,-0.85402 0.28557,0.0777 0.29587,5.87304 0.0155,8.72537 -0.0894,0.90951 -0.0576,1.65365 0.0706,1.65365 0.22518,0 1.22088,-2.96526 1.91016,-5.68855 0.18416,-0.7276 0.45144,-1.47348 0.59396,-1.6575 0.14252,-0.18403 0.31886,-1.16929 0.39185,-2.18947 0.073,-1.02018 0.23641,-1.91895 0.36314,-1.99728 0.27324,-0.16887 0.26985,-0.17939 1.03272,3.19842 0.70013,3.09995 1.84036,6.51529 2.66007,7.96771 0.9653,1.71038 1.88429,3.0125 2.12613,3.0125 0.29636,0 0.28201,-1.43142 -0.0278,-2.77813 -0.96976,-4.21488 -1.18212,-17.06562 -0.28201,-17.06562 0.10688,0 0.27053,1.16275 0.36366,2.58388 0.35404,5.40248 2.81329,11.6821 8.44005,21.55148 1.52543,2.67563 1.64998,1.87074 0.424,-2.74013 -0.73431,-2.76173 -0.84294,-3.84752 -0.33401,-3.33859 0.45355,0.45355 2.94239,8.31598 4.0352,12.74754 0.29241,1.18577 0.74541,1.10244 0.91892,-0.16904 0.44836,-3.28546 -1.05225,-13.46216 -2.56662,-17.40597 -0.19557,-0.50933 -0.53857,-1.67563 -0.76221,-2.59179 -0.32719,-1.34036 -0.33696,-1.60793 -0.05,-1.36978 0.33579,0.27868 1.97571,4.24903 1.97571,4.78331 0,0.13606 0.46248,1.22721 1.02773,2.42479 0.97959,2.07545 1.88269,4.96297 1.88269,6.01964 0,0.2707 0.12089,0.5669 0.26865,0.65822 0.34908,0.21574 0.16274,-7.47841 -0.22113,-9.13064 -0.15214,-0.65485 -0.59286,-2.73844 -0.97937,-4.63021 -0.38651,-1.89177 -0.82621,-3.8563 -0.97712,-4.36563 -1.22867,-4.14694 -5.73737,-11.53142 -9.88691,-16.1931 -1.13896,-1.27953 -2.90318,-2.83131 -4.49792,-3.956305 -3.64086,-2.568419 -3.49675,-2.402527 -3.2871,-3.783983 0.27536,-1.814411 0.62569,-2.083146 2.50769,-1.923602 2.41331,0.204587 9.40029,2.683604 9.40029,3.335276 0,0.143862 -0.32742,0.299243 -0.7276,0.345289 -1.19934,0.137999 -1.02749,0.95151 0.60453,2.861844 0.80808,0.945881 2.07634,2.597301 2.81835,3.669821 l 1.34911,1.95002 -0.21511,2.54789 c -0.11831,1.40134 -0.22161,3.04921 -0.22956,3.66194 -0.019,1.46159 0.78832,2.59012 1.8528,2.59012 0.63416,0 0.86192,-0.19157 1.33003,-1.11871 0.68719,-1.36102 1.28856,-5.86491 1.06662,-7.98829 -0.25204,-2.41137 -0.7586,-3.26415 -3.10628,-5.22932 -2.12298,-1.777087 -2.40902,-2.376723 -0.72593,-1.521801 4.42791,2.249141 5.52595,6.241711 3.868,14.064341 -0.27429,1.29417 -0.2495,1.44656 0.39329,2.41788 1.02318,1.54612 1.95673,3.93005 2.29549,5.86173 0.16553,0.94394 0.49195,2.13024 0.72537,2.63623 0.32588,0.70641 0.45205,2.08834 0.5435,5.95312 0.10872,4.59435 0.062,5.31169 -0.53565,8.22797 -0.67154,3.27675 -2.28065,7.28787 -3.4028,8.48235 -0.29825,0.31747 -0.59984,1.08806 -0.67491,1.72443 -0.1827,1.54881 -1.32322,5.41878 -1.95092,6.6198 -0.27923,0.53427 -0.76292,1.66536 -1.07486,2.51354 -0.31194,0.84818 -0.77768,2.0184 -1.03499,2.60048 -1.28334,2.9032 -1.30706,2.99073 -0.77267,2.85098 0.5252,-0.13734 2.21157,-1.92448 4.35107,-4.61105 4.88515,-6.1343 6.52913,-10.67315 7.6041,-20.99409 0.48176,-4.62554 0.30963,-8.31306 -0.60254,-12.90814 -0.87355,-4.40052 -1.24871,-7.31795 -0.89911,-6.99179 0.26238,0.24478 1.42878,4.82918 1.43435,5.63756 0.002,0.30487 0.23107,0.75996 0.50881,1.01132 0.90106,0.81544 1.29846,2.48514 1.8944,7.95938 0.17426,1.60073 0.40497,3.00843 0.51268,3.12822 0.27111,0.30152 1.10764,-1.16606 2.00932,-3.5251 0.58099,-1.52002 0.75604,-2.41776 0.74809,-3.83646 -0.009,-1.6507 -0.16326,-2.19729 -1.41638,-5.02708 -0.77329,-1.74625 -1.75625,-4.06797 -2.18436,-5.15937 -0.4281,-1.09141 -0.92959,-2.2225 -1.1144,-2.51355 -0.18482,-0.29104 -0.55895,-1.15632 -0.8314,-1.92284 -0.27246,-0.76653 -1.58629,-3.08825 -2.91964,-5.15938 -1.33334,-2.07113 -2.39084,-3.8051 -2.34998,-3.85327 0.45637,-0.5381 3.13251,2.81046 4.36153,5.45745 0.45299,0.97563 1.03574,2.1906 1.29499,2.69992 0.25924,0.50932 0.55723,1.28323 0.66219,1.71979 0.27963,1.16304 1.72425,4.10104 2.01649,4.10104 0.42999,0 0.29109,-0.81174 -1.06789,-6.24049 -1.39779,-5.58384 -2.25934,-7.71201 -4.49029,-11.09178 -2.53084,-3.834079 -3.39715,-4.915045 -8.40842,-10.49191 -4.59782,-5.116743 -6.18629,-6.54819 -11.90847,-10.731299 -0.47213,-0.345146 -1.78182,-1.068467 -2.91041,-1.607382 -2.50017,-1.193852 -3.60181,-1.230558 -6.53322,-0.217687 -2.39147,0.826307 -2.77863,0.787476 -4.90337,-0.491779 -2.77398,-1.670154 -3.57284,-1.797665 -9.46296,-1.510443 -4.52817,0.220809 -5.52843,0.351167 -7.45823,0.971982 -1.22579,0.394335 -2.53548,0.92493 -2.91042,1.179098 -0.37494,0.254169 -1.45562,0.915699 -2.40151,1.470068 -2.77787,1.628067 -8.98732,5.777757 -10.847912,7.249511 -0.945886,0.748208 -3.07439,2.459284 -4.730013,3.802392 -1.655622,1.343107 -3.322497,2.66969 -3.704166,2.94796 -1.376604,1.003664 -3.774126,3.479625 -4.121703,4.256553 -0.890329,1.990122 -1.306088,3.574076 -1.014632,3.865526 0.213874,0.21388 0.832206,-0.24681 2.296083,-1.710685 3.061401,-3.061401 4.743905,-3.979868 2.24572,-1.22592 -3.354222,3.697615 -5.470098,6.536235 -6.999075,9.389825 -0.389856,0.72761 -0.909599,1.62058 -1.154985,1.98438 -0.829542,1.22986 -2.042187,4.35455 -2.46434,6.35 -0.897521,4.24245 -1.176644,10.26482 -0.412462,8.8993 0.129427,-0.23127 0.521253,-1.3214 0.870724,-2.4225 1.196061,-3.76852 4.372181,-8.51195 4.372181,-6.52972 0,0.26194 -0.107959,0.58936 -0.23991,0.72761 -0.442801,0.46392 -1.316025,3.92875 -1.76373,6.99823 -0.312469,2.14229 -0.402994,3.98227 -0.305904,6.2177 0.140173,3.22741 0.659628,6.4823 1.034523,6.4823 0.253798,0 0.332891,-0.38242 0.892732,-4.31634 0.343368,-2.4128 0.579591,-3.28782 1.035705,-3.83646 0.774024,-0.93104 1.196675,-1.75282 1.207082,-2.347 0.0046,-0.26423 0.172262,-0.69654 0.372521,-0.9607 0.311907,-0.41143 0.344494,0.19546 0.227305,4.23334 -0.07958,2.7419 -0.02077,5.43301 0.140582,6.43341 0.52554,3.25839 1.159625,6.08541 1.364923,6.08541 0.297884,0 0.524317,-1.01346 0.528476,-2.36532 0.0039,-1.28032 0.467646,-4.06682 0.817203,-4.91072 0.120555,-0.29104 0.205902,-2.67229 0.189659,-5.29167 -0.02257,-3.63875 0.08253,-5.30823 0.445413,-7.07536 l 0.474945,-2.31286 -1.095293,-1.18826 c -0.602411,-0.65354 -1.346978,-1.75587 -1.654588,-2.44963 -2.260897,-5.09903 -2.338685,-5.99718 -0.695081,-8.02553 0.618463,-0.76324 1.523939,-1.92067 2.012167,-2.57206 1.690259,-2.25513 5.535314,-5.695979 7.465486,-6.680679 1.489832,-0.760055 1.263745,-0.292319 -0.425712,0.88073 -1.394195,0.968039 -1.44517,1.046189 -1.44517,2.215599 0,0.96591 -0.20706,1.52224 -1.019236,2.73848 -0.560578,0.83947 -1.352759,2.46501 -1.760403,3.6123 l -0.741169,2.08598 0.511442,1.71273 c 0.32665,1.09388 0.651328,1.71273 0.898589,1.71273 0.212931,0 1.042852,-1.13375 1.844273,-2.51946 1.654556,-2.86082 2.295755,-3.80875 3.843838,-5.68262 0.601101,-0.72761 1.310637,-1.79917 1.576742,-2.38125 0.266107,-0.58209 0.786003,-1.45677 1.155327,-1.94375 0.653055,-0.8611 0.677412,-0.86942 0.886917,-0.30308 0.136663,0.36944 0.359895,0.5269 0.610593,0.4307 0.217344,-0.0834 0.395171,-0.0839 0.395171,-0.001 0,0.15803 -2.505578,3.0442 -5.082633,5.85468 -1.114102,1.21502 -1.628643,2.03452 -1.931485,3.07627 -0.22705,0.78102 -0.662369,1.64306 -0.967378,1.91564 -0.617275,0.55167 -2.242134,3.87717 -3.086248,6.31645 -1.159269,3.35001 -1.71582,9.55682 -1.215795,13.55889 0.292669,2.34244 0.515136,1.9659 2.2142,-3.74772 0.299387,-1.00677 0.544338,-1.99896 0.544338,-2.20486 0,-0.2059 0.148828,-0.3256 0.330729,-0.26601 0.198716,0.0651 0.506963,1.26203 0.772243,2.99862 0.598424,3.91744 1.531638,7.27604 2.607886,9.38565 0.293278,0.57487 0.633807,1.04522 0.756733,1.04522 0.122925,0 0.309589,-1.63711 0.414805,-3.63802 0.176745,-3.36113 0.540348,-6.53441 1.205088,-10.51719 0.405717,-2.43084 0.521364,-2.8129 0.799441,-2.64104 0.144428,0.0893 0.256826,1.64271 0.256826,3.54963 0,3.41831 0.168735,5.04454 0.523409,5.04454 0.105976,0 0.273502,-1.35183 0.372282,-3.00407 0.09878,-1.65224 0.289986,-3.70607 0.424902,-4.56406 0.134919,-0.858 0.369438,-3.04828 0.521155,-4.86729 0.239716,-2.87406 0.350655,-3.36933 0.846905,-3.78087 0.328266,-0.27224 0.669928,-0.37471 0.803609,-0.24103 0.127902,0.1279 0.346154,1.6507 0.484999,3.384 0.380786,4.75352 0.929011,8.33765 1.655681,10.82436 0.28788,0.98515 0.31917,0.83471 0.4525,-2.17544 0.12449,-2.8104 0.21122,-3.28347 0.66243,-3.61341 0.38572,-0.28204 0.56868,-0.8451 0.71168,-2.19019 0.20866,-1.96272 0.70352,-5.37945 0.93284,-6.44075 l 0.14293,-0.66146 0.20486,0.7182 c 0.11267,0.39501 0.28798,1.88329 0.38957,3.30729 0.2457,3.44389 0.76231,6.70356 1.39575,8.8068 1.10891,3.68196 2.13765,5.01902 1.26218,1.64044 -0.22583,-0.87149 -0.41482,-2.10312 -0.41998,-2.73696 -0.005,-0.63384 -0.16956,-1.44161 -0.36535,-1.79505 -0.33589,-0.60635 -0.31499,-2.26112 0.0403,-3.19385 0.0832,-0.21828 0.1987,-0.68132 0.25678,-1.02898 0.0581,-0.34766 0.28869,-1.12156 0.51248,-1.71979 0.22379,-0.59823 0.50572,-1.683 0.62651,-2.4106 0.1208,-0.7276 0.38984,-1.79908 0.59788,-2.38105 0.41209,-1.15279 0.35713,-1.62127 0.86436,7.36864 0.048,0.8514 0.15473,1.61539 0.23708,1.69774 0.0824,0.0824 0.14974,0.67435 0.14974,1.31553 0,1.04124 0.66836,4.40577 1.3014,6.55122 1.36389,4.62239 1.75339,5.82635 2.43946,7.54063 1.21284,3.03046 2.31355,5.29167 2.5759,5.29167 0.12995,0 0.30318,-1.16086 0.38496,-2.57969 0.21052,-3.65261 0.61005,-6.95183 0.94727,-7.82244 0.15868,-0.40965 0.28851,-1.15541 0.28851,-1.65723 0,-0.50183 0.10855,-1.11915 0.24122,-1.37184 0.27101,-0.51616 0.72026,-2.70097 0.96493,-4.69276 0.0894,-0.72761 0.34823,-1.71797 0.57521,-2.20082 0.3567,-0.7588 0.46371,-0.82688 0.78879,-0.5018 0.61604,0.61604 0.96359,7.07223 0.58702,10.9047 -0.17158,1.74625 -0.35401,4.1275 -0.4054,5.29167 -0.11883,2.69222 -0.88924,4.87054 -1.72973,4.89074 -0.0927,0.002 -0.21531,-0.823 -0.27243,-1.83383 -0.10148,-1.79606 -0.30043,-2.40366 -0.667,-2.03709 -0.10009,0.10008 -0.18938,1.60816 -0.19844,3.35129 -0.0118,2.26408 -0.10637,3.16934 -0.33124,3.16941 -0.34447,1.1e-4 -3.61996,-3.21186 -4.24788,-4.16551 -0.32986,-0.50098 -0.5477,-0.56867 -1.39436,-0.43329 -0.61031,0.0976 -1.50579,5e-5 -2.2857,-0.24898 -2.20807,-0.70504 -8.14269,-1.57303 -9.532077,-1.39415 -1.583663,0.20389 -2.026481,0.20458 -3.539178,0.006 -0.943917,-0.12421 -1.286142,-0.0616 -1.576485,0.28819 -0.4728,0.56969 -0.410546,2.24501 0.121666,3.2742 0.466148,0.90141 0.542631,1.88034 0.146915,1.88034 -0.615717,0 -0.225798,1.72345 0.708308,3.13074 1.153099,1.73723 5.514241,6.18967 7.295341,7.44809 0.69122,0.48838 1.25677,1.00323 1.25677,1.14412 0,0.15484 -0.57559,0.18851 -1.45521,0.0851 -1.30637,-0.15354 -1.45521,-0.1204 -1.45521,0.32406 0,1.19499 4.35058,5.15454 6.91355,6.29216 1.8364,0.81512 1.07562,1.46095 -1.48959,1.26451 l -1.85208,-0.14183 1.85208,1.73681 c 1.14428,1.07307 2.661,2.15014 3.96875,2.81834 1.16417,0.59484 2.36246,1.30879 2.66289,1.58657 0.30042,0.27778 0.62097,0.50505 0.71234,0.50505 0.0914,0 1.51244,0.78746 3.15795,1.7499 2.98193,1.74411 5.01657,2.70753 5.76995,2.73212 0.21828,0.007 0.86165,-0.11609 1.4297,-0.27382 z m -8.53499,-18.58705 c -0.70153,-0.74674 -0.71474,-1.42097 -0.0564,-2.87813 0.28118,-0.62236 0.57799,-1.34746 0.65959,-1.61135 0.0844,-0.27284 0.27766,-0.39988 0.44813,-0.29452 0.20603,0.12733 0.24132,0.73239 0.11286,1.935 -0.1028,0.96235 -0.18242,2.07327 -0.17694,2.46872 0.0135,0.97758 -0.30929,1.10193 -0.98724,0.38028 z m -11.15097,-7.82675 c -0.3147,-0.21238 -0.33342,-0.37028 -0.0904,-0.7626 0.1893,-0.30564 0.21614,-0.63742 0.0702,-0.86797 -0.40399,-0.63818 -0.27034,-1.32426 0.41711,-2.14125 0.3638,-0.43235 0.66146,-0.99496 0.66146,-1.25025 0,-0.25529 -0.29766,-0.62346 -0.66146,-0.81816 -0.55271,-0.2958 -0.77071,-0.29553 -1.326,0.002 -0.58424,0.31268 -0.70656,0.29818 -1.01235,-0.12001 -0.44203,-0.60451 -1.20687,-0.38577 -2.441536,0.69828 -0.949727,0.83388 -1.206275,1.92704 -0.595567,2.53775 0.172202,0.1722 0.232569,0.39361 0.134155,0.49203 -0.09842,0.0984 -0.685793,-0.38842 -1.30528,-1.08187 -0.619485,-0.69344 -1.39423,-1.36434 -1.721652,-1.49089 -0.824944,-0.31878 -0.773385,-1.03688 0.07445,-1.03688 0.976016,0 1.107043,-0.69949 0.29065,-1.55163 -0.668899,-0.69818 -0.912376,-1.36191 -0.49739,-1.35592 0.10914,0.002 0.79375,0.18639 1.521354,0.4107 1.092904,0.33693 1.497248,0.35147 2.325586,0.0836 0.77207,-0.24965 1.44575,-0.25533 2.92927,-0.0247 2.42783,0.37744 4.06283,1.07416 5.43951,2.31791 1.10101,0.99469 1.36305,1.77839 0.72134,2.15739 -0.19703,0.11637 -0.48611,0.45561 -0.64239,0.75387 -0.17531,0.33459 -0.79815,0.68226 -1.62613,0.90773 -0.73809,0.20099 -1.34198,0.45424 -1.34198,0.56279 0,0.5677 2.02404,0.28497 2.40805,-0.33637 0.0934,-0.15117 0.22438,0.0967 0.29102,0.55074 0.0667,0.45406 -0.009,0.93323 -0.16709,1.06481 -0.45,0.37347 -3.40501,0.60289 -3.8549,0.29928 z m 16.66825,-66.582093 c 0.21801,-0.280049 0.60494,-0.701718 0.85985,-0.937042 0.25798,-0.23816 0.4379,-0.736724 0.40581,-1.12448 -0.0688,-0.830909 0.005,-0.817424 -1.02872,-0.18901 -1.57846,0.959915 -2.07262,0.117832 -0.73421,-1.251128 0.6653,-0.680484 1.0369,-0.843662 1.91823,-0.842348 0.6012,9e-4 1.43412,0.17949 1.85094,0.396875 0.41681,0.217385 0.91009,0.395245 1.09617,0.395245 0.18608,0 0.40676,0.178357 0.49041,0.396349 0.16591,0.432353 -0.45233,0.925182 -1.94756,1.5525 -0.50932,0.213684 -1.46182,0.776349 -2.11666,1.250367 -0.67728,0.49026 -1.01973,0.642316 -0.79426,0.352672 z m 33.21967,71.268253 c 0.59578,-2.43111 0.36946,-5.83862 -0.34062,-5.12854 -0.10691,0.10691 -0.33971,1.34714 -0.51733,2.75608 -0.17762,1.40893 -0.43425,3.15701 -0.57029,3.88461 -0.13604,0.72761 -0.18688,1.42352 -0.11299,1.54648 0.25493,0.4242 1.09748,-1.24789 1.54123,-3.05863 z m 10.92391,-12.71678 c 0.32545,-1.29247 0.45706,-7.75261 0.17233,-8.45909 -0.4157,-1.03149 -0.65915,-0.33823 -0.65915,1.87707 0,1.28705 -0.0788,3.62769 -0.17507,5.20143 -0.18376,3.00327 0.10279,3.60097 0.66189,1.38059 z m -56.84308,-2.34624 c 0,-0.1668 -0.50601,-0.85461 -1.12447,-1.52845 -0.61847,-0.67384 -1.68991,-1.96611 -2.38098,-2.87171 -1.33434,-1.74855 -1.78841,-2.01631 -1.78267,-1.05123 0.006,0.94109 1.193,4.41879 1.6724,4.89819 0.36347,0.36347 1.37963,0.61748 3.285,0.82115 0.1819,0.0194 0.33072,-0.10113 0.33072,-0.26795 z m -12.435412,-1.30186 c 0,-0.14499 -0.225637,-0.94447 -0.501412,-1.77663 -0.275778,-0.83215 -0.582896,-1.89996 -0.682482,-2.3729 -0.209082,-0.99294 -0.66819,-1.15671 -0.66819,-0.23836 0,0.34185 -0.07679,1.52993 -0.170638,2.64018 -0.165475,1.95758 -0.151471,2.02586 0.463021,2.25761 0.666674,0.25143 1.559701,-0.0405 1.559701,-0.5099 z m 6.879162,0.46041 c 0,-0.3996 -1.86937,-3.9003 -3.119375,-5.84155 -0.459608,-0.71376 -1.016129,-1.91858 -1.236713,-2.67736 -0.380005,-1.30717 -1.037801,-2.22856 -1.360575,-1.90579 -0.312319,0.31232 -0.379208,6.96898 -0.08302,8.26216 0.549704,2.40006 0.704308,2.51354 3.424533,2.51354 1.79689,0 2.37515,-0.0855 2.37515,-0.351 z m 27.08229,-2.69309 c 1.37949,-0.57639 1.70532,-1.26312 1.91371,-4.03352 0.25719,-3.41912 -0.25677,-3.24178 -2.25089,0.77668 -0.48278,0.97287 -1.16152,2.03543 -1.50831,2.36122 -0.3468,0.3258 -0.63054,0.7502 -0.63054,0.94312 0,0.47451 1.2857,0.44985 2.47603,-0.0475 z m 8.57032,-1.09611 c 1.67365,-0.20103 1.70614,-0.35978 0.56058,-2.73897 -0.45543,-0.94589 -1.14715,-2.61276 -1.53714,-3.70417 -0.39849,-1.11521 -0.86273,-1.98437 -1.0599,-1.98437 -0.21093,0 -0.69202,1.05498 -1.20654,2.64583 -0.47065,1.45521 -1.04972,3.0885 -1.28683,3.62952 -0.23711,0.54103 -0.43111,1.28518 -0.43111,1.65365 0,0.65095 0.0507,0.66989 1.78594,0.66766 0.98227,-0.001 2.41102,-0.0774 3.175,-0.16915 z m 7.47448,-1.1711 c 0,-0.27127 -0.6418,-2.07447 -1.42621,-4.00711 -0.78442,-1.93263 -1.46903,-3.74214 -1.52136,-4.02113 -0.0523,-0.27898 -0.26226,-0.56289 -0.46652,-0.63091 -0.30897,-0.10289 -0.34106,0.27132 -0.19093,2.22703 0.22806,2.97105 0.81537,6.35653 1.17865,6.79425 0.17132,0.20643 0.69264,0.29642 1.35256,0.23349 0.83471,-0.0796 1.07381,-0.21223 1.07381,-0.59562 z M 85.89076,117.57692 c 0.37668,-0.57489 0.368261,-0.74917 -0.09905,-2.05052 -0.280898,-0.78223 -0.717929,-2.22119 -0.971175,-3.1977 -0.52384,-2.01991 -0.423309,-2.46647 1.099929,-4.88584 1.132557,-1.79885 2.047531,-3.9504 1.829789,-4.30271 -0.09544,-0.15443 -0.318767,-0.28077 -0.496284,-0.28077 -0.527042,0 -3.457236,3.16528 -4.77356,5.15655 -1.562022,2.36294 -1.61958,3.43188 -0.328231,6.0957 1.091147,2.25084 2.413606,4.09358 2.937798,4.09358 0.214014,0 0.574369,-0.28273 0.800788,-0.62829 z m 65.83998,-9.94318 c 0.2713,-1.99976 0.21623,-2.13896 -1.97873,-5.0019 -3.06277,-3.994841 -3.39186,-4.542288 -3.22677,-5.367759 0.0861,-0.43026 0.01,-0.923107 -0.17772,-1.14909 -0.53826,-0.648568 -5.39836,-2.026571 -6.82406,-1.934851 -1.18628,0.07632 -1.25179,0.121383 -1.32876,0.914091 -0.0936,0.96421 1.06315,2.479863 2.43354,3.188517 1.48453,0.767684 4.32239,3.209062 5.53972,4.765782 0.65832,0.84185 1.99531,2.63665 2.97109,3.98844 0.97579,1.3518 1.90727,2.41375 2.06997,2.35989 0.1627,-0.0539 0.39747,-0.84726 0.52172,-1.76312 z m -0.62278,121.33619 c 0,-0.19815 -0.38132,-1.18042 -0.84737,-2.18281 -0.80162,-1.72415 -0.84804,-1.99393 -0.85989,-4.99753 -0.007,-1.74625 0.14568,-6.35017 0.33905,-10.23093 0.3144,-6.30987 0.30748,-7.22805 -0.0655,-8.68377 -0.50783,-1.98226 -3.18945,-7.29394 -4.64599,-9.20265 -1.32265,-1.73325 -1.43539,-3.01851 -0.37528,-4.27837 0.7061,-0.83915 0.7631,-1.71175 0.22573,-3.45533 -0.20212,-0.65579 -0.19907,-0.65722 0.35687,-0.16644 0.30841,0.27226 0.69981,0.9271 0.86978,1.45521 0.4462,1.38643 0.62575,1.53095 2.12233,1.7082 1.07003,0.12673 1.74903,0.44965 3.28251,1.5611 3.67369,2.66267 6.07733,4.5747 7.32498,5.82683 0.68875,0.69122 1.37092,1.25677 1.51595,1.25677 0.14502,0 1.19048,0.8114 2.32325,1.8031 1.13277,0.99171 2.35396,2.00374 2.71376,2.24896 l 0.65419,0.44586 h -0.66146 c -0.80255,0 -1.58334,-0.50007 -3.18938,-2.04269 -1.01835,-0.97814 -1.36315,-1.15725 -2.08998,-1.08571 -1.80092,0.17729 -1.62002,1.05869 1.21788,5.93407 0.60177,1.03379 1.59848,2.87926 2.21492,4.10104 l 1.12079,2.22141 -0.18239,4.72967 -0.1824,4.72967 1.20298,1.22346 c 1.1607,1.18046 2.32641,3.46271 3.22639,6.31668 l 0.35459,1.12448 h -8.98317 c -7.40312,0 -8.98318,-0.0634 -8.98318,-0.36028 z m 10.79499,-10.44933 c 0.25026,-0.15874 0.35654,-1.18473 0.39015,-3.76626 0.044,-3.38113 0.0138,-3.60411 -0.64146,-4.73871 -1.28698,-2.22834 -4.45824,-8.19299 -4.46415,-8.39636 -0.003,-0.11143 -0.23871,-0.50026 -0.52328,-0.86406 -0.74143,-0.94785 -0.66502,-1.25987 0.58929,-2.40642 l 1.11845,-1.02236 -1.44918,-1.35036 c -1.78638,-1.66456 -6.39214,-5.05657 -7.73101,-5.69368 -0.981,-0.46681 -0.99628,-0.4654 -1.65364,0.15216 -0.37814,0.35524 -0.6635,0.91902 -0.6635,1.31086 0,0.37814 0.76804,2.19574 1.70674,4.03911 0.93871,1.84337 2.0698,4.38021 2.51354,5.63742 0.78317,2.21888 0.80681,2.42341 0.80681,6.98115 0,4.53504 0.0203,4.71347 0.59531,5.22777 0.32742,0.29285 1.01203,0.69379 1.52135,0.89097 0.50933,0.19717 1.28323,0.55534 1.7198,0.79593 3.11001,1.71392 4.06423,2.2777 4.7625,2.81382 0.89045,0.68368 0.92336,0.69281 1.40228,0.38902 z m 16.45709,9.73388 c 0,-1.25533 0.38131,-2.09927 0.94849,-2.09927 0.66691,0 1.96193,0.78217 1.96193,1.18497 0,0.74747 0.62393,1.72545 1.1008,1.72545 0.62018,0 0.61565,-0.10817 -0.16778,-4.01353 -0.74686,-3.72302 -1.38574,-6.10421 -2.65007,-9.8771 -1.52151,-4.54037 -2.35544,-5.97858 -5.27163,-9.09157 l -1.08111,-1.15409 0.84953,0.42792 c 1.47197,0.74143 3.62703,3.08601 4.16022,4.52608 0.2694,0.7276 0.88952,2.17469 1.37805,3.21574 0.48853,1.04106 0.88824,2.02807 0.88824,2.19336 0,0.16528 0.22202,0.74226 0.49338,1.28217 0.59324,1.18033 1.72627,5.51481 2.15855,8.25769 0.17201,1.0914 0.40335,2.54992 0.51408,3.24114 l 0.20133,1.25677 h -2.742 -2.74201 z M 115.91837,213.7198 c -0.50932,-0.0728 -1.19393,-0.30977 -1.52135,-0.52667 -0.54434,-0.36061 -0.59519,-0.59848 -0.59384,-2.77813 0.003,-4.42658 0.58155,-5.29416 3.53203,-5.29416 2.73164,0 2.81806,0.0628 2.80833,2.04221 -0.0154,3.13614 -0.46205,5.58396 -1.10773,6.071 -0.6687,0.5044 -1.7775,0.67717 -3.11744,0.48575 z m 2.36022,-1.5482 c 0.40361,-0.75415 0.48192,-3.3466 0.1011,-3.3466 -0.41045,0 -2.19673,2.50937 -2.19673,3.08596 0,0.82424 1.68204,1.03343 2.09563,0.26064 z m 3.50674,1.20041 c -0.52205,-0.55569 -0.57529,-0.89492 -0.57529,-3.66553 0,-2.87414 0.038,-3.09422 0.64882,-3.75326 0.5706,-0.61569 0.85173,-0.70009 2.33175,-0.70009 1.51881,0 1.75597,0.0762 2.43192,0.78178 l 0.749,0.78178 -0.13779,2.90709 c -0.13238,2.79293 -0.16764,2.93334 -0.89793,3.57548 -0.63136,0.55515 -1.03251,0.66981 -2.36767,0.67676 -1.34454,0.007 -1.70164,-0.0918 -2.18281,-0.60401 z m -2.59174,-11.36003 c -0.28666,-0.32742 -0.69259,-0.9525 -0.90206,-1.38906 -0.20948,-0.43656 -1.14245,-1.54208 -2.07326,-2.4567 -1.76089,-1.73025 -2.03626,-2.48889 -0.46971,-1.29402 0.80847,0.61664 1.7604,1.64385 3.89254,4.20034 0.63675,0.76348 0.75837,0.80361 1.91137,0.63071 0.76077,-0.11409 1.71427,-0.53155 2.49498,-1.09236 1.54163,-1.10739 3.25583,-2.05272 3.42163,-1.88692 0.0673,0.0673 -0.83797,0.96857 -2.0117,2.00284 l -2.13403,1.88048 h -1.80429 c -1.54029,0 -1.88054,-0.0871 -2.32547,-0.59531 z"
         id="path1533" />
    </g>
  </g>
</svg>
