<?xml version="1.0" encoding="UTF-8" standalone="no"?>
<!-- Created with Inkscape (http://www.inkscape.org/) -->

<svg
   width="118.13324mm"
   height="158.37982mm"
   viewBox="0 0 118.13324 158.37982"
   version="1.1"
   id="svg1574"
   inkscape:version="1.2.2 (b0a8486541, 2022-12-01)"
   sodipodi:docname="rei2.svg"
   xml:space="preserve"
   xmlns:inkscape="http://www.inkscape.org/namespaces/inkscape"
   xmlns:sodipodi="http://sodipodi.sourceforge.net/DTD/sodipodi-0.dtd"
   xmlns="http://www.w3.org/2000/svg"
   xmlns:svg="http://www.w3.org/2000/svg"><sodipodi:namedview
     id="namedview1576"
     pagecolor="#ffffff"
     bordercolor="#000000"
     borderopacity="0.25"
     inkscape:showpageshadow="2"
     inkscape:pageopacity="0.0"
     inkscape:pagecheckerboard="0"
     inkscape:deskcolor="#d1d1d1"
     inkscape:document-units="mm"
     showgrid="false"
     inkscape:zoom="0.70699408"
     inkscape:cx="198.72868"
     inkscape:cy="670.44409"
     inkscape:window-width="2240"
     inkscape:window-height="1431"
     inkscape:window-x="26"
     inkscape:window-y="23"
     inkscape:window-maximized="0"
     inkscape:current-layer="layer1" /><defs
     id="defs1571" /><g
     inkscape:label="Layer 1"
     inkscape:groupmode="layer"
     id="layer1"
     transform="translate(-6.6992872,158.89862)"><path
       id="path1533"
       style="fill:#ffd42a;stroke:#ffcc00;stroke-width:0.264583"
       d="m 70.912673,-158.75979 c -0.14343,0.0365 -0.14573,0.38218 -0.14573,1.29501 0,1.66553 -0.24513,1.99059 -0.93121,1.23248 -0.55247,-0.61046 -1.71462,-0.70639 -1.71462,-0.14159 0,0.20969 0.11905,0.45473 0.26458,0.54467 0.39531,0.24432 0.31924,0.92604 -0.10335,0.92604 -0.20239,0 -0.887,-0.23564 -1.52136,-0.52348 -0.63435,-0.28785 -1.39153,-0.514 -1.68258,-0.50281 -0.29509,0.0114 -0.061,0.17164 0.52916,0.36277 0.0505,0.0164 0.12072,0.0456 0.17777,0.0661 -1.39564,-0.44688 -2.99985,-0.41283 -7.25434,-0.19896 -3.09287,0.15548 -6.04015,0.41694 -6.54947,0.58085 -0.50932,0.1639 -1.819,0.89088 -2.91041,1.61592 -1.0914,0.72504 -2.40109,1.49062 -2.91042,1.70119 -0.87649,0.36235 -1.50331,0.73432 -5.953125,3.53311 -3.040916,1.91265 -8.729908,6.02701 -10.371977,7.50084 -0.843585,0.75715 -2.079245,1.74751 -2.745569,2.2009 -3.581042,2.43662 -6.289269,6.76668 -7.158736,11.44477 -0.15116,0.8133 -0.767163,2.33054 -1.396297,3.43959 -0.619126,1.09139 -1.332928,2.52016 -1.58595,3.175 -0.253022,0.65482 -0.612355,1.42875 -0.798918,1.71979 -0.464301,0.72432 -1.353045,3.76976 -1.891357,6.48229 -0.91879,4.62973 -0.706982,15.84571 0.315226,16.69407 0.448107,0.37189 0.439434,0.43967 0.373104,-2.81688 -0.06345,-3.11514 0.933127,-7.84069 2.014864,-9.55342 l 0.641821,-1.01648 -0.136425,1.45521 c -0.07503,0.80037 -0.212948,3.22701 -0.306958,5.39295 -0.164709,3.79496 -0.119314,4.32751 0.683679,7.96851 0.160468,0.72761 0.45194,2.15636 0.647506,3.175 0.659968,3.43757 1.809815,6.48229 2.448429,6.48229 0.272708,0 0.319593,-0.35095 0.203088,-1.52136 -0.207061,-2.08011 0.20894,-1.3541 0.947229,1.65365 0.32148,1.30968 0.80468,2.91704 1.073837,3.57188 0.269155,0.65482 0.665853,1.63711 0.881599,2.18281 0.436401,1.10381 0.825611,1.26675 1.083655,0.45372 0.166097,-0.52332 0.185424,-0.52018 0.679545,0.108 0.279616,0.35547 0.50798,0.71945 0.50798,0.80925 0,0.0897 0.506015,0.96118 1.124479,1.93632 0.618462,0.97515 1.243541,2.00066 1.389062,2.27893 0.40073,0.76629 0.802448,0.52679 0.727088,-0.43357 -0.373275,-4.75686 -0.375237,-4.60118 0.04806,-3.89588 0.218342,0.36381 0.400977,0.88382 0.406177,1.15548 0.01071,0.56434 2.311127,6.18117 2.777608,6.78202 0.169469,0.21829 0.976602,1.52797 1.793689,2.91042 1.80881,3.06033 5.579389,7.42578 9.026317,10.45104 3.20745,2.81504 4.20819,3.04968 2.59261,0.60823 -1.20198,-1.81642 -2.5464,-4.40874 -2.37505,-4.58008 0.0865,-0.0865 1.01271,0.39589 2.05827,1.07228 5.60386,3.62511 7.48813,4.05504 5.03794,1.14929 -0.58208,-0.69032 -1.05833,-1.45854 -1.05833,-1.70688 0,-1.096 4.60009,0.59512 6.95254,2.55592 l 0.82373,0.68626 -0.58085,0.73846 c -0.31941,0.40607 -0.58084,0.86475 -0.58084,1.01906 0,0.15431 -0.31198,0.60636 -0.6935,1.00459 -0.73109,0.76309 -1.1257,2.20427 -1.1498,4.19974 -0.0146,1.20626 -0.5106,3.17198 -1.08107,4.28501 -0.3834,0.74806 -2.38792,2.85874 -2.71508,2.85874 -0.53276,0 -10.356957,5.14015 -12.58476,6.58461 -1.113767,0.72214 -1.758404,0.93326 -3.31556,1.08572 -1.063102,0.10409 -2.045157,0.25885 -2.182296,0.34365 -0.137134,0.0847 -2.38612,0.643 -4.998144,1.24075 -5.14382,1.17713 -6.756574,1.81598 -8.898165,3.52589 -2.758327,2.20231 -6.480652,6.55544 -6.960815,8.14059 -0.106964,0.3531 -0.54467,1.45096 -0.973068,2.43964 C 9.747932,-16.10827 7.404579,-6.32016 7.0344,-2.56932 l -0.189136,1.91823 h 2.824634 2.824634 l 0.296622,-0.72761 c 0.914442,-2.24426 1.342755,-4.79796 1.348755,-8.0393 0.0059,-3.19031 -0.0037,-3.3408 -0.619083,-3.75068 0.352014,0.19076 0.625284,0.276 0.625284,0.18035 0,-0.45633 -1.198716,-1.4211 -1.765783,-1.4211 -0.51802,0 -0.6152,-0.13598 -0.614433,-0.85989 0.0011,-1.07951 1.234984,-4.13399 2.6448,-6.54792 1.260081,-2.15756 5.149965,-6.35457 6.769096,-7.30344 0.618653,-0.36255 1.819315,-0.90481 2.668054,-1.20457 2.334112,-0.82435 7.658403,-2.07584 8.830469,-2.07584 0.886137,0 1.061524,0.0966 1.203544,0.66249 0.145337,0.57907 -0.287006,1.13044 -3.439067,4.38733 -1.982949,2.04889 -3.768216,4.04265 -3.966683,4.43073 -0.235344,0.46018 -0.40681,2.0863 -0.49351,4.67465 -0.180837,5.39883 -0.422196,6.08527 -3.268534,9.28833 -3.056669,3.43975 -3.274052,3.83278 -3.275252,5.93813 -5.68e-4,0.99383 -0.136252,1.86846 -0.318327,2.05053 -0.246945,0.24699 -0.17979,0.31781 0.301273,0.31781 0.590017,0 0.611118,-0.064 0.458887,-1.38907 l 0.159163,1.38907 h 7.079155 c 6.205425,0 7.09832,-0.0519 7.238835,-0.41807 0.08816,-0.22976 0.568179,-1.03344 1.066601,-1.78593 0.201327,-0.30397 0.362133,-0.56447 0.495577,-0.82993 -0.133473,0.26563 -0.293634,0.52581 -0.49506,0.82993 -0.498424,0.7525 -0.978432,1.55617 -1.066602,1.78593 -0.10506,0.27378 -0.01357,0.41807 0.2651,0.41807 0.245576,0 0.424781,-0.21896 0.424781,-0.5178 0,-0.28459 0.296118,-0.95319 0.657841,-1.48622 0.874857,-1.28917 1.071667,-2.08577 1.717208,-6.95668 0.3015,-2.27496 0.724945,-4.91009 0.941027,-5.85597 0.510608,-2.23513 0.494042,-2.57052 -0.141076,-2.91042 -0.318473,-0.17044 -0.529167,-0.55393 -0.529167,-0.96325 0,-1.285 1.40376,-6.02009 2.302702,-7.768 0.187103,-0.3638 0.340788,-0.81534 0.341581,-1.00304 0.0035,-0.73652 1.071574,-2.37525 2.291853,-3.51658 1.26265,-1.18097 4.33621,-3.15329 4.91339,-3.15329 0.16265,0 0.50378,-0.189 0.75861,-0.41962 0.25482,-0.23061 0.9385,-0.48289 1.51877,-0.56069 0.86232,-0.11567 1.221,-0.0151 1.96371,0.55139 0.49979,0.38121 1.06466,0.6935 1.25522,0.6935 0.73794,0 3.90177,2.01618 5.19968,3.31349 0.76759,0.76724 1.62418,1.96924 1.9606,2.75125 0.71658,1.66593 1.14287,1.86725 3.53984,1.67484 1.67373,-0.13435 1.87393,-0.21847 2.70319,-1.13637 1.31008,-1.4501 4.23797,-3.33939 6.56084,-4.23385 1.11669,-0.43 2.20868,-0.78186 2.42673,-0.78186 0.21805,0 0.95441,-0.16978 1.63659,-0.37724 0.68219,-0.20747 2.06734,-0.58864 3.07785,-0.84698 1.9333,-0.49426 3.58634,-1.62709 3.58634,-2.45721 0,-0.24821 -0.63599,-1.0001 -1.41335,-1.67122 -1.17421,-1.01375 -1.56596,-1.5933 -2.3151,-3.42408 -0.87946,-2.14933 -0.89971,-2.28504 -0.83561,-5.51077 0.0632,-3.17719 0.0921,-3.33072 0.74207,-3.90261 1.33409,-1.17382 3.04685,-0.41327 3.72381,1.65365 0.23831,0.7276 0.94834,2.30703 1.57768,3.50986 1.59613,3.05057 1.66117,3.60481 0.66197,5.65289 -0.44995,0.92229 -0.81855,1.82345 -0.81855,2.00246 0,0.179 0.33534,0.71676 0.74517,1.19476 2.07525,2.42054 5.13794,8.22963 5.4529,10.34355 0.10429,0.69996 0.0468,5.70059 -0.12764,11.1125 l -0.31729,9.84023 0.58187,1.5875 c 0.3199,0.87312 0.71675,2.03399 0.88212,2.57969 0.16538,0.54571 0.39511,0.99219 0.51056,0.99219 0.3916,0 0.2125,-0.71551 -0.63717,-2.543 -0.80159,-1.72415 -0.84799,-1.99403 -0.85989,-4.99763 -0.007,-1.74625 0.14562,-6.35014 0.33899,-10.2309 0.31436,-6.30986 0.30732,-7.22799 -0.0656,-8.68371 -0.50783,-1.98226 -3.18918,-7.29435 -4.64572,-9.20305 -1.32264,-1.73325 -1.43579,-3.01844 -0.37568,-4.2783 0.7061,-0.83914 0.76319,-1.7115 0.22582,-3.45508 l -0.2036,-0.66146 0.6196,0.52917 0.62012,0.52916 -0.57723,-0.95498 c -0.31724,-0.52515 -0.8693,-1.59671 -1.22732,-2.38125 -0.54069,-1.18484 -0.62356,-1.27398 -0.48937,-0.52555 0.11381,0.63466 0.073,0.84684 -0.13746,0.71676 -0.61236,-0.37846 -1.09002,-1.9588 -1.36684,-4.52273 -0.1568,-1.45229 -0.40019,-2.75612 -0.54106,-2.89698 -0.16509,-0.1651 -0.56207,0.0384 -1.11672,0.57206 -0.47322,0.45532 -1.21761,0.90962 -1.65417,1.00976 -0.43655,0.10014 -1.06186,0.34963 -1.39009,0.55449 -0.54194,0.33823 -0.58107,0.50727 -0.42478,1.83709 0.10547,0.89739 0.0384,2.02167 -0.17312,2.90319 -0.27954,1.16527 -0.28212,1.72742 -0.0134,2.96002 0.18243,0.83693 0.49927,1.78558 0.70383,2.10788 0.20457,0.32231 0.36887,0.79856 0.36587,1.05834 -0.005,0.3979 -0.082,0.37318 -0.48938,-0.15658 -0.4517,-0.58691 -0.6427,-0.62598 -2.89439,-0.58498 -2.10781,0.0384 -2.47789,-0.0238 -2.94969,-0.49558 -0.29676,-0.29677 -0.54002,-0.88065 -0.54002,-1.29759 0,-0.88928 0.90433,-2.15257 1.54099,-2.15284 0.2441,-1.1e-4 1.19444,-0.35502 2.11201,-0.7891 l 1.66812,-0.78962 -0.0806,-1.23403 c -0.0645,-0.98535 -0.2268,-1.34304 -0.80408,-1.7725 -0.68324,-0.50829 -0.8441,-0.52005 -2.91042,-0.20826 -1.29088,0.19478 -2.26278,0.35109 -3.07371,0.49041 v -3.74447 c 0.91806,-0.15533 1.84034,-0.35065 2.60656,-0.58136 2.3287,-0.70118 5.09418,-2.09599 5.95312,-3.0024 0.74872,-0.7901 0.79894,-0.9796 0.88574,-3.34502 0.0506,-1.37921 0.0177,-2.80321 -0.0729,-3.16415 -0.14657,-0.58401 -0.22946,-0.62209 -0.75344,-0.34623 -0.32384,0.1705 -1.66608,1.33383 -2.98276,2.58537 -1.21379,1.15372 -3.64224,3.13449 -5.63635,4.61523 v -0.95654 c 1.98756,-1.51139 4.16215,-3.43873 6.33398,-5.66063 3.84537,-3.93404 6.37952,-7.43242 6.75927,-9.33122 0.16953,-0.84767 0.15797,-0.86199 -0.41806,-0.51107 -1.76031,1.07236 -2.41264,1.48986 -3.41736,2.18591 -0.60839,0.42148 -1.18054,0.69169 -1.27124,0.601 -0.0907,-0.0907 0.72502,-1.14946 1.81281,-2.35335 2.65048,-2.93336 4.97747,-6.30265 4.97747,-7.20679 0,-0.87776 -0.16449,-0.82538 -1.7694,0.56223 -2.94372,2.54516 -4.1648,3.5295 -4.37906,3.5295 -0.31888,0 0.0322,-0.54962 1.20768,-1.88929 2.73717,-3.11949 6.2338,-9.01603 6.90707,-11.64838 0.19851,-0.77614 0.44239,-2.25212 0.54209,-3.27939 0.21309,-2.19522 -0.0428,-2.57912 -1.62988,-2.44843 -0.93041,0.0766 -1.0171,0.1525 -1.0945,0.95809 -0.10445,1.08752 -0.54732,1.2757 -1.6552,0.70279 l -1.83296,-0.96841 c 0,-0.63925 -1.023,-0.6259 -4.97334,0.0636 -2.84596,0.49671 -3.15636,0.60907 -3.83905,1.38906 -0.6871,0.78506 -0.76836,0.81384 -1.08727,0.38551 -0.5606,-0.75296 -0.9417,-0.66337 -3.99097,0.93999 -0.29104,0.15303 -0.82682,0.43158 -1.19062,0.61909 -0.3638,0.18752 -1.34169,1.02378 -2.17351,1.85828 -0.83183,0.83449 -1.5768,1.45309 -1.6552,1.37459 -0.0784,-0.0785 0.16726,-0.9657 0.54622,-1.97145 0.76958,-2.0425 1.4231,-4.46452 1.4211,-5.2679 -7.9e-4,-0.30769 -0.4308,0.23506 -1.02733,1.29708 -1.66938,2.9721 -2.6873,3.03025 -1.34823,0.077 1.45222,-3.20283 2.59029,-7.94503 2.80654,-11.69283 0.084,-1.4552 0.32122,-3.09505 0.5271,-3.6437 0.20589,-0.54865 0.37414,-1.72374 0.37414,-2.61173 0,-1.36046 0.0588,-1.56613 0.37362,-1.30483 1.20879,1.0032 1.47937,9.72446 0.47387,15.27555 -0.32055,1.76968 -0.58291,3.28774 -0.58291,3.37344 0,1.01096 3.0428,-3.3152 5.09685,-7.24658 1.11759,-2.13904 1.96471,-4.59958 2.09703,-6.09111 0.0452,-0.50932 0.20123,-0.89381 0.34675,-0.85421 0.28556,0.0777 0.29586,5.87324 0.0155,8.72557 -0.0894,0.90951 -0.0574,1.65364 0.0708,1.65364 0.22517,0 1.22068,-2.96525 1.90996,-5.68854 0.18416,-0.7276 0.45175,-1.47376 0.59428,-1.65778 0.14252,-0.18403 0.31871,-1.16935 0.3917,-2.18953 0.073,-1.02018 0.23656,-1.91899 0.36329,-1.99729 0.27324,-0.16887 0.26962,-0.17904 1.0325,3.19877 0.70011,3.09995 1.8406,6.51505 2.6603,7.96747 0.9653,1.71038 1.88413,3.01274 2.12597,3.01274 0.2964,0 0.28194,-1.43142 -0.0279,-2.77813 -0.52381,-2.27666 -0.83619,-6.00404 -0.83819,-9.98905 -0.003,-6.69871 0.58667,-9.57665 0.91984,-4.49275 0.35404,5.40247 2.81356,11.68229 8.44031,21.55166 1.52543,2.67562 1.64973,1.87046 0.42375,-2.74041 -0.73431,-2.76172 -0.84276,-3.84722 -0.33383,-3.33829 0.45355,0.45355 2.94209,8.31598 4.03489,12.74754 0.29241,1.18577 0.74582,1.10198 0.91933,-0.1695 0.44836,-3.28546 -1.0524,-13.46185 -2.56677,-17.40566 -0.19557,-0.50932 -0.53859,-1.67593 -0.76223,-2.59208 -0.32719,-1.34038 -0.33708,-1.60758 -0.0501,-1.36943 0.33579,0.27868 1.97559,4.24889 1.97559,4.78317 0,0.13606 0.46259,1.22708 1.02784,2.42466 0.97959,2.07545 1.88257,4.96312 1.88257,6.01979 0,0.2707 0.12096,0.56705 0.26872,0.65835 0.34908,0.21574 0.16269,-7.47848 -0.22117,-9.13071 -0.15214,-0.65484 -0.59276,-2.73844 -0.97927,-4.6302 -0.38651,-1.89177 -0.82629,-3.8563 -0.9772,-4.36563 -1.22867,-4.14693 -5.7372,-11.53165 -9.88674,-16.19333 -1.13896,-1.27952 -2.90318,-2.83135 -4.49792,-3.95634 -3.64085,-2.56841 -3.49678,-2.40229 -3.28713,-3.78375 0.27536,-1.81441 0.62586,-2.08345 2.50785,-1.92391 2.41331,0.20459 9.39995,2.68404 9.39995,3.33571 0,0.14387 -0.32743,0.29915 -0.72761,0.3452 -1.19934,0.138 -1.0274,0.95151 0.60462,2.86184 0.80808,0.94588 2.07642,2.59702 2.81843,3.66954 0.63638,0.91984 1.21817,1.98752 1.75596,3.1595 l 0.0946,-1.03456 -1.39681,-2.03709 c -0.76809,-1.12045 -1.79079,-2.52574 -2.27273,-3.12281 -1.03811,-1.28611 -1.08124,-1.61025 -0.26355,-1.98282 0.51287,-0.23368 0.86855,-0.12872 2.18281,0.64648 1.91117,1.12726 3.65002,2.86933 4.21215,4.21989 0.27747,0.66663 0.4183,1.82299 0.41909,3.43958 0.002,2.9214 -0.31735,4.767 -0.94413,5.4746 6.423167,22.11183 3.393617,60.64696 9.873817,4.7656 -0.4281,-1.0914 -0.92985,-2.22249 -1.11466,-2.51354 -0.18482,-0.29104 -0.55902,-1.15636 -0.83147,-1.92288 -0.27246,-0.76653 -1.58586,-3.08824 -2.91921,-5.15937 -1.33333,-2.07113 -2.39114,-3.80531 -2.35024,-3.85351 0.45637,-0.5381 3.13247,2.81056 4.36149,5.45754 0.45299,0.97563 1.03576,2.19078 1.29501,2.7001 0.25924,0.50932 0.55753,1.28323 0.66249,1.71979 0.27963,1.16304 1.72418,4.10104 2.01642,4.10104 0.42999,0 0.29083,-0.8117 -1.06815,-6.24044 -1.39779,-5.58384 -2.25922,-7.71207 -4.49017,-11.09183 -2.53084,-3.83407 -3.397007,-4.91501 -8.408267,-10.49187 -4.59782,-5.11673 -6.18666,-6.54854 -11.90883,-10.73164 -0.47213,-0.34515 -1.78183,-1.06822 -2.91042,-1.60714 -2.50017,-1.19385 -3.60153,-1.23042 -6.53294,-0.21755 -0.85419,0.29514 -1.44834,0.47394 -1.96163,0.53123 v -4.85138 c -0.0103,0.082 -0.0161,0.18629 -0.0222,0.28938 0.006,-0.10335 0.0119,-0.20723 0.0222,-0.28938 0.0839,-0.66895 0.31498,-0.64464 0.82682,-0.0791 0.79025,0.8732 1.0406,1.92639 0.61288,2.57917 -0.35442,0.54091 -0.33811,0.61622 0.19637,0.90227 0.46391,0.24828 0.78372,0.22862 1.56218,-0.0966 1.72467,-0.72062 3.72351,-0.53791 5.82342,0.53226 1.01569,0.51763 2.27937,1.22506 2.80861,1.572 1.10018,0.72121 1.18448,0.75688 0.96997,0.4098 -0.0857,-0.13873 -1.25351,-0.88287 -2.59519,-1.65365 l -2.43965,-1.40147 h -2.74866 -2.74867 l -0.32453,-1.27899 c -0.3528,-1.3893 -1.00652,-2.41618 -1.92598,-3.02669 -0.21805,-0.1449 -0.35475,-0.23427 -0.4408,-0.21239 z m 26.70999,41.15924 c -0.59171,-2.03699 -1.26437,-3.93176 -2.0314,-5.60327 l -0.17828,1.95544 c -0.22888,2.50887 -0.2103,3.08577 0.11472,3.58531 0.47891,0.73607 1.45645,0.77127 2.08618,0.0754 0.003,-0.004 0.006,-0.009 0.009,-0.0129 z m -28.41687,-38.34081 c 0.0734,-0.007 0.18047,0.0332 0.32195,0.13281 -0.14173,-0.0998 -0.24853,-0.14 -0.32195,-0.13281 z m -0.0951,0.0656 c -0.0248,0.0673 -0.005,0.18954 0.0496,0.34985 -0.0547,-0.16054 -0.0744,-0.28248 -0.0496,-0.34985 z m -2.40347,0.75396 c 0.0127,0.006 0.0245,0.0112 0.0372,0.0171 -0.0126,-0.006 -0.0247,-0.0111 -0.0372,-0.0171 z m 0.339,0.16123 c 0.31836,0.15256 0.63271,0.31022 0.89607,0.45941 0.37043,0.20984 0.67818,0.35235 0.92707,0.43408 -0.27776,-0.0878 -0.62901,-0.24752 -1.06092,-0.48679 -0.27651,-0.1532 -0.52272,-0.28437 -0.76222,-0.4067 z m 3.62613,0.19637 c 0.11721,0.0744 0.2153,0.10599 0.29559,0.0915 -0.0804,0.0145 -0.17809,-0.0168 -0.29559,-0.0915 z m -1.1529,0.0537 c 0.13516,0.36773 0.11652,0.5937 -0.0486,0.68058 0.16102,-0.089 0.18124,-0.31546 0.0486,-0.68058 z m -0.0692,0.6935 c -0.0132,0.006 -0.0291,0.008 -0.0439,0.0124 0.0146,-0.004 0.0309,-0.007 0.0439,-0.0124 z m -0.34985,0.004 c 0.0344,0.006 0.0761,0.0196 0.10697,0.0222 -0.0307,-0.003 -0.0728,-0.0162 -0.10697,-0.0222 z m 0.23565,0.0238 c -0.005,4.8e-4 -0.0113,1.7e-4 -0.0165,5.2e-4 0.005,-3.9e-4 0.0114,10e-6 0.0165,-5.2e-4 z m -0.88057,0.84698 c 0.27872,0.16715 0.52498,0.30997 0.75241,0.43356 -0.22681,-0.12393 -0.47416,-0.26662 -0.75241,-0.43356 z m 1.22628,0.67696 c 0.0491,0.0228 0.0941,0.0391 0.1416,0.0594 -0.047,-0.0203 -0.093,-0.0367 -0.1416,-0.0594 z m 0.45166,0.1788 c 0.0634,0.0212 0.12676,0.0429 0.18862,0.0594 -0.0612,-0.0165 -0.126,-0.0383 -0.18862,-0.0594 z m -5.88337,0.031 c 0.6012,8.9e-4 1.43424,0.17949 1.85105,0.39687 0.41681,0.21739 0.90998,0.39533 1.09606,0.39533 0.18608,0 0.40671,0.17837 0.49041,0.39636 0.16591,0.43235 -0.45246,0.92504 -1.94768,1.55236 -0.50932,0.21368 -1.46183,0.77655 -2.11667,1.25057 -1.09844,0.79512 -1.06023,0.4549 0.0656,-0.58446 0.25798,-0.23816 0.43828,-0.73673 0.40618,-1.12448 -0.0688,-0.83091 0.004,-0.81755 -1.02888,-0.18914 -1.57846,0.95992 -2.07273,0.11787 -0.73432,-1.25109 0.66529,-0.68048 1.0369,-0.84362 1.91822,-0.84232 z m 6.4363,0.10128 c 0.0662,0.008 0.13355,0.01 0.20051,0.0124 -0.0662,-0.003 -0.13512,-0.004 -0.20051,-0.0124 z m 0.64648,0 c -0.0743,0.008 -0.14733,0.01 -0.21859,0.0124 0.0722,-0.003 0.14338,-0.004 0.21859,-0.0124 z m 10.38076,16.35249 c -0.11405,-0.005 -0.21682,-0.005 -0.30593,5.2e-4 -1.18627,0.0763 -1.2516,0.12145 -1.3286,0.91416 -0.0936,0.96421 1.06306,2.47978 2.43345,3.18843 1.48452,0.76769 4.32238,3.2094 5.53971,4.76612 0.65832,0.84185 1.9951,2.6366 2.97088,3.98838 0.97579,1.3518 1.90746,2.41397 2.07016,2.36007 0.42269,-0.13991 0.80859,-3.29491 0.48885,-3.99666 -0.14241,-0.31258 -1.01789,-1.55877 -1.94561,-2.76882 -3.06277,-3.99483 -3.39229,-4.54216 -3.2272,-5.36763 0.0861,-0.43026 0.01,-0.92278 -0.17776,-1.14877 -0.50462,-0.60803 -4.8073,-1.8576 -6.51795,-1.9358 z m 1.07228,0.73691 c 0.40788,0.012 0.87965,0.0931 1.36943,0.24805 0.4219,0.13349 1.08536,0.31212 1.47433,0.39687 1.10703,0.2412 2.33526,1.41405 2.33526,2.22984 0,0.48925 0.7292,1.62772 2.37711,3.71088 2.2318,2.82127 2.90952,4.1068 2.91352,5.52473 8.1e-4,0.32743 -0.12045,0.59531 -0.26923,0.59531 -0.47616,0 -2.65439,-2.17913 -4.54443,-4.54597 -1.00886,-1.26337 -2.27304,-2.62627 -2.80913,-3.02876 -1.79884,-1.35057 -3.97681,-3.3147 -4.13618,-3.73 -0.087,-0.22635 -0.088,-0.63276 -0.002,-0.90331 0.10949,-0.34498 0.6116,-0.51765 1.29139,-0.49764 z m -55.388863,1.54926 c 0.03924,-0.0105 0.0665,-0.009 0.08165,0.005 -0.152122,-0.13409 -1.526728,0.94227 -3.4401,2.85564 -1.463875,1.46387 -2.08211,1.92437 -2.295984,1.71049 -9.4e-5,-1e-4 9.3e-5,-4.3e-4 0,-5.2e-4 0.213874,0.21388 0.832108,-0.24662 2.295984,-1.71049 1.722036,-1.72203 3.007655,-2.76602 3.358451,-2.85977 z m -4.644678,0.71675 c -0.218652,0.48943 -0.408753,0.95403 -0.566373,1.3808 0.157642,-0.42681 0.347683,-0.89134 0.566373,-1.3808 z m 14.352613,0.75138 c 0.800426,0.0725 0.944771,0.88815 0.144177,2.24844 -0.395655,0.67225 -1.006448,1.81481 -1.35754,2.53938 -0.351094,0.72457 -1.48787,2.4274 -2.526461,3.78426 -1.038592,1.35687 -2.067368,2.7381 -2.285648,3.06906 -0.218281,0.33096 -0.716123,0.97962 -1.106909,1.44126 -1.107185,1.30793 -1.538925,1.11289 -1.538925,-0.69556 0,-1.19836 1.676382,-5.19828 2.896464,-6.91173 0.298921,-0.41979 0.54312,-1.10872 0.54312,-1.53065 0,-0.90679 1.019578,-1.9537 3.145027,-3.22978 0.89023,-0.53447 1.606439,-0.75817 2.086695,-0.71468 z m -3.188953,0.31781 c 1.49e-4,5e-5 -1.47e-4,4.6e-4 0,5.1e-4 -0.08939,-0.0328 -0.40663,0.0793 -0.965316,0.36432 -0.0042,0.002 -0.0092,0.005 -0.01344,0.007 0.004,-0.002 0.0094,-0.006 0.01344,-0.008 0.558687,-0.28502 0.875913,-0.39706 0.965316,-0.36432 z m -1.756482,0.83302 c -1.174675,0.76991 -2.705331,2.04541 -4.078304,3.36723 1.373273,-1.32217 2.90348,-2.59733 4.078304,-3.36723 z m -10.464994,1.17305 c -0.04368,0.25887 -0.05612,0.46964 -0.02842,0.6103 -0.02763,-0.14075 -0.01527,-0.35143 0.02842,-0.6103 z m 16.304431,0.10284 c 0.02859,-0.01 0.05327,-0.008 0.07648,0.004 -0.04626,-0.0241 -0.100172,-0.006 -0.174149,0.0594 0.037,-0.0326 0.06919,-0.0538 0.09767,-0.0636 z m 1.166854,0.75189 c 0.03627,-9e-5 0.06517,0.005 0.08527,0.0155 -0.02008,-0.0103 -0.04944,-0.0156 -0.08527,-0.0155 z m -0.627352,0.0217 c 0.104228,0.0735 0.22295,0.0889 0.348299,0.0408 0.0024,-9.3e-4 0.0038,-6.4e-4 0.0062,-0.002 -0.0022,8.3e-4 -0.004,0.001 -0.0062,0.002 -0.125461,0.0481 -0.243948,0.0323 -0.348299,-0.0413 z m -8.938473,2.574 c -0.06256,0.23986 -0.173756,0.54576 -0.310575,0.88057 0.136734,-0.33467 0.248042,-0.64079 0.310575,-0.88057 z m -2.321305,1.53272 c 0.696613,0 0.650339,0.62706 -0.168982,2.29133 -1.147846,2.33161 -1.239866,3.33136 -0.544153,5.90972 0.318283,1.17957 0.541624,2.38852 0.496094,2.68666 -0.08252,0.54031 -0.08532,0.54004 -0.810803,-0.0331 -1.698184,-1.3415 -2.759754,-4.70029 -2.091345,-6.61769 0.381489,-1.09435 2.695076,-4.23695 3.119189,-4.23695 z m -1.793689,0.0563 c -0.488226,0.65139 -1.393302,1.8087 -2.011763,2.57194 -0.0068,0.008 -0.01239,0.0159 -0.01912,0.0243 0.0071,-0.009 0.01149,-0.016 0.0186,-0.0248 0.618385,-0.76315 1.524009,-1.91999 2.01228,-2.57142 z m 0.829407,0.21239 c -0.490458,0.56539 -0.97429,1.15883 -1.388546,1.71307 0.414245,-0.55422 0.898112,-1.14771 1.388546,-1.71307 z m 6.460587,2.33474 c -0.560534,0.82866 -1.1345,1.7805 -1.961637,3.21066 0.827167,-1.43022 1.401079,-2.38192 1.961637,-3.21066 z m -0.382922,1.87947 c -0.03053,0.084 -0.05718,0.1709 -0.08423,0.25735 0.02708,-0.0865 0.05368,-0.17329 0.08423,-0.25735 z m -9.238712,1.00821 c -0.0071,0.10701 -0.01137,0.2174 -0.01137,0.33435 0,0.66639 0.299987,1.68815 0.776696,2.78432 0.05184,0.11921 0.113104,0.24113 0.168982,0.36174 -0.01682,-0.0343 -0.03445,-0.0663 -0.05116,-0.10077 -0.04529,-0.0934 -0.07585,-0.17133 -0.117823,-0.26097 -0.605231,-1.29262 -0.873248,-2.21643 -0.765327,-3.11867 z m -0.7891,0.0574 c 0.02325,0.23215 0.06871,0.48311 0.133842,0.75448 -0.06516,-0.27137 -0.110563,-0.52234 -0.133842,-0.75448 z m 0.201022,1.01286 c 0.03393,0.12396 0.06703,0.24676 0.109037,0.38034 -0.04202,-0.1336 -0.07509,-0.25636 -0.109037,-0.38034 z m 8.73125,0.22324 c -0.07653,0.0692 -0.167591,0.17859 -0.271302,0.32505 0.103402,-0.14597 0.194941,-0.25595 0.271302,-0.32505 z m 18.921329,0.14314 c 0.15172,0.0906 0.2347,1.80036 0.58342,7.98091 0.048,0.8514 0.1549,1.61569 0.2372,1.69809 0.0823,0.0824 0.14934,0.6745 0.14934,1.31568 0,1.04124 0.66869,4.40557 1.30173,6.55102 1.36389,4.62239 1.75306,5.82635 2.43913,7.54063 1.21284,3.03046 2.31372,5.29166 2.57607,5.29166 0.12995,0 0.30319,-1.16085 0.38499,-2.57968 0.21052,-3.65261 0.61001,-6.95165 0.94723,-7.82226 0.15868,-0.40965 0.28835,-1.15545 0.28835,-1.65727 0,-0.50183 0.10866,-1.11932 0.24133,-1.37201 0.27101,-0.51616 0.72065,-2.70094 0.96532,-4.69273 0.0894,-0.7276 0.34818,-1.71806 0.57516,-2.2009 0.3567,-0.75881 0.4635,-0.82685 0.78858,-0.50178 0.61602,0.61605 0.96361,7.07229 0.58704,10.90476 -0.17158,1.74625 -0.35426,4.12751 -0.40566,5.29167 -0.11883,2.69222 -0.88912,4.87045 -1.72961,4.89065 -0.0927,0.002 -0.21523,-0.82315 -0.27233,-1.83399 -0.10148,-1.79606 -0.30058,-2.40366 -0.66714,-2.03709 -0.10014,0.10009 -0.18944,1.60862 -0.19844,3.35174 -0.0118,2.26408 -0.10638,3.16924 -0.33125,3.16931 -0.34447,1.1e-4 -3.61988,-3.212 -4.2478,-4.16564 -0.32986,-0.50099 -0.54757,-0.56843 -1.39423,-0.43304 -0.61031,0.0976 -1.50574,-5e-5 -2.28565,-0.24908 -2.20807,-0.70504 -8.14285,-1.57311 -9.532234,-1.39423 -1.583662,0.20436 -2.026624,0.20473 -3.539319,0.006 -0.943916,-0.12421 -1.285789,-0.0615 -1.576131,0.28835 -3.110441,-4.48334 0.990842,-4.55498 -1.365292,-5.4932 0.199531,-2.84427 0.538205,-5.65976 1.106393,-9.06405 0.405716,-2.43083 0.521874,-2.81304 0.799951,-2.64118 0.144428,0.0893 0.256315,1.64274 0.256315,3.54965 0,3.41831 0.168809,5.04466 0.523482,5.04466 0.105976,0 0.273807,-1.35171 0.372587,-3.00395 0.09878,-1.65224 0.289865,-3.70608 0.424781,-4.56407 0.134918,-0.85799 0.369181,-3.04839 0.520898,-4.8674 0.239716,-2.87406 0.350727,-3.36962 0.846977,-3.78116 0.328265,-0.27223 0.669887,-0.37449 0.803568,-0.24082 0.127902,0.1279 0.346397,1.65048 0.485242,3.38378 0.380786,4.75351 0.929044,8.33795 1.655712,10.82466 0.28788,0.98515 0.31936,0.83456 0.45269,-2.17558 0.12449,-2.81041 0.21076,-3.28327 0.66197,-3.61321 0.38572,-0.28204 0.5691,-0.84495 0.7121,-2.19005 0.20866,-1.96272 0.70344,-5.37965 0.93276,-6.44095 l 0.14263,-0.66146 0.20515,0.7183 c 0.11267,0.39501 0.28806,1.8833 0.38965,3.30729 0.24569,3.44389 0.76234,6.70346 1.39578,8.8067 1.1089,3.68197 2.1374,5.01878 1.26193,1.64021 -0.22583,-0.8715 -0.41513,-2.10294 -0.42013,-2.73678 -0.005,-0.63384 -0.16956,-1.4418 -0.36535,-1.79524 -0.33591,-0.60635 -0.315,-2.26089 0.0403,-3.19361 0.0832,-0.21827 0.19873,-0.68122 0.25683,-1.02887 0.0581,-0.34766 0.28884,-1.12157 0.51263,-1.71979 0.22379,-0.59822 0.50553,-1.6831 0.62632,-2.41071 0.1208,-0.7276 0.38986,-1.79928 0.5979,-2.38125 0.12877,-0.36025 0.21215,-0.65354 0.28112,-0.61237 z m -21.668448,0.96015 c 0.07637,0.14549 0.15042,0.25725 0.220658,0.33228 0.07031,0.0751 0.137139,0.11369 0.198954,0.11369 0.05323,0 0.14483,-0.071 0.2651,-0.19895 -0.120379,0.1281 -0.211836,0.19947 -0.2651,0.19947 -0.06189,0 -0.128545,-0.0389 -0.198954,-0.11421 -0.07025,-0.0751 -0.144285,-0.18668 -0.220658,-0.33228 z m -8.266163,2.1761 c -0.189573,-0.0145 -0.492663,0.23475 -0.854728,0.66714 0.362469,-0.43293 0.665148,-0.68212 0.854728,-0.66714 z m 0.01757,0.006 c 0.04591,0.008 0.08593,0.0302 0.116272,0.0739 -0.0304,-0.0436 -0.0703,-0.0657 -0.116272,-0.0739 z m 6.114356,2.53628 c 0.315488,0.28887 0.575516,0.36646 0.822689,0.25787 -0.09699,0.0582 -0.1898,0.10077 -0.26355,0.10077 -0.137217,0 -0.33099,-0.13181 -0.559139,-0.35864 z m 1.794722,0.50333 c -0.09323,0.27042 -0.183699,0.56902 -0.271301,0.8878 0.08672,-0.31139 0.176195,-0.61208 0.271301,-0.8878 z m -0.293552,0.96967 c -0.175088,0.64855 -0.336803,1.38242 -0.479557,2.16162 0.139694,-0.77488 0.299399,-1.5031 0.479557,-2.16162 z m 56.266855,4.47983 c -0.21108,0.0294 -0.21922,0.52996 -0.0879,2.2412 0.22805,2.97105 0.81545,6.3567 1.17873,6.79442 0.17132,0.20639 0.69297,0.29596 1.35289,0.23306 0.83471,-0.0796 1.07332,-0.21192 1.07332,-0.59531 0,-0.27127 -0.64134,-2.07435 -1.42575,-4.00699 -0.78442,-1.93263 -1.46905,-3.74247 -1.52135,-4.02146 -0.0523,-0.27898 -0.26238,-0.56297 -0.46664,-0.63097 -0.0386,-0.0129 -0.0732,-0.0182 -0.10335,-0.0139 z m -61.306857,0.82785 c 0.01323,0.003 0.02542,0.0129 0.03669,0.0284 -0.04509,-0.0621 -0.105475,-0.0228 -0.183451,0.0801 8.2e-5,-1.1e-4 -8.2e-5,-4.1e-4 0,-5.1e-4 0.05848,-0.0772 0.107064,-0.11837 0.146761,-0.10801 z m 3.199288,0.0538 c -0.06882,1.09303 -0.08931,2.41994 -0.07803,4.23901 -0.01128,-1.81912 0.0092,-3.146 0.07803,-4.23901 z m -11.14454,0.0904 c 0.02424,0.0677 0.05184,0.11322 0.08372,0.13436 0.03187,0.0211 0.06777,0.018 0.107487,-0.0119 -0.03992,0.0301 -0.07548,0.0333 -0.107487,0.0119 -0.03188,-0.0213 -0.05948,-0.0665 -0.08372,-0.13436 z m 7.656381,0.18862 c -0.08783,0.16345 -0.159413,0.34808 -0.198438,0.51159 0.03899,-0.16362 0.110539,-0.34798 0.198438,-0.51159 z m 55.602288,0.25631 c -0.21093,0 -0.69212,1.05499 -1.20664,2.64584 -0.47065,1.45521 -1.04964,3.08821 -1.28675,3.62923 -0.23711,0.54103 -0.43149,1.28518 -0.43149,1.65365 0,0.65096 0.0507,0.66966 1.78593,0.66766 2.95126,-0.004 4.56431,-0.27322 4.56407,-0.76223 -1.1e-4,-0.23439 -0.37294,-1.19972 -0.82838,-2.1456 -0.45543,-0.94589 -1.14686,-2.61276 -1.53685,-3.70417 -0.39849,-1.11521 -0.86272,-1.98438 -1.05989,-1.98438 z m -48.230645,0.44804 c 0.03953,-0.006 0.08268,-0.002 0.128157,0.0124 0.198716,0.0651 0.507283,1.2622 0.772563,2.99878 0.243021,1.59088 0.543062,3.08229 0.883667,4.44263 -0.956032,-0.25378 -2.298899,-0.5965 -3.762561,-0.96945 0.06817,-0.1858 0.136028,-0.38441 0.199988,-0.5917 1.10072,-3.56727 1.575614,-5.25989 1.575614,-5.61413 0,-0.15442 0.08397,-0.26036 0.202572,-0.27853 z m -7.919414,1.07952 c -0.10181,0.19795 -0.227675,0.40608 -0.376204,0.62322 0.148543,-0.21712 0.274379,-0.42528 0.376204,-0.62322 z m 16.952454,0.19999 c -0.04962,0.003 -0.09505,0.0243 -0.135392,0.0646 -0.0812,0.0812 -0.201091,1.67524 -0.266651,3.54294 -0.121311,3.45605 0.142471,5.49291 0.859896,6.63732 0.341929,0.54542 0.572005,0.59531 2.748152,0.59531 1.79689,0 2.37505,-0.0853 2.37505,-0.35088 0,-0.3996 -1.86919,-3.90077 -3.11919,-5.84202 -0.459607,-0.71376 -1.016033,-1.91858 -1.236617,-2.67736 -0.332504,-1.14377 -0.877913,-1.9919 -1.225248,-1.9699 z m -12.16825,1.19372 c 0.01062,1.54262 0.07794,2.86181 0.189653,3.76256 -0.0064,-0.002 -0.0091,-0.002 -0.0155,-0.004 -0.139444,-1.11608 -0.189222,-2.4092 -0.17415,-3.75843 z m 46.645215,0.12144 c -0.37026,0 -1.06179,1.03518 -2.1332,3.18999 v 5.1e-4 c -0.006,0.0126 -0.0112,0.0208 -0.0176,0.0336 -0.24139,0.48644 -0.53184,0.99523 -0.80512,1.42317 -0.27338,0.42798 -0.52941,0.77504 -0.7028,0.93793 -0.1734,0.1629 -0.33106,0.35048 -0.44545,0.52142 -0.11439,0.17093 -0.18552,0.32522 -0.18552,0.42168 0,0.035 0.01,0.0661 0.0233,0.0956 0.0964,0.29296 0.63873,0.32024 1.2914,0.18862 0.0939,-0.0156 0.19107,-0.0374 0.28939,-0.06 0.0157,-0.004 0.0297,-0.006 0.0455,-0.01 0.16627,-0.0397 0.33548,-0.0855 0.50695,-0.14469 v -0.0253 c 0.7039,-0.26119 1.3781,-0.65077 1.66139,-1.08417 0.4847,-0.74157 0.89278,-5.48856 0.47181,-5.48856 z m 33.339047,3.43442 c -0.207,0.0183 -0.32246,0.82206 -0.32246,2.34507 0,1.28705 -0.0784,3.6275 -0.17467,5.20124 -0.18376,3.00326 0.10288,3.60117 0.66198,1.38079 0.32545,-1.29247 0.45681,-7.75243 0.17208,-8.45891 -0.12991,-0.32234 -0.24284,-0.47653 -0.33693,-0.46819 z m -70.762085,0.28577 c -0.01663,10e-4 -0.03225,0.007 -0.04754,0.0155 -0.0544,0.0317 -0.09703,0.1206 -0.12454,0.2527 -0.0034,0.0163 -0.009,0.025 -0.01189,0.0429 -0.01303,0.0816 -0.02015,0.17948 -0.02015,0.29456 0,0.17092 -0.0192,0.55293 -0.05013,1.03146 -0.03091,0.47866 -0.07346,1.05329 -0.120407,1.60868 -0.04137,0.4894 -0.07136,0.86036 -0.08371,1.14567 -6e-6,1.3e-4 5e-6,3.9e-4 0,5.2e-4 -0.0062,0.14239 -0.0082,0.26339 -0.0047,0.3669 0.0071,0.20752 0.0356,0.34494 0.09147,0.44442 0.02799,0.0498 0.0627,0.0897 0.10542,0.12454 0.08511,0.0694 0.201069,0.11732 0.3545,0.17518 0.451604,0.17032 1.000705,0.0879 1.312065,-0.12661 0.0335,-0.0231 0.07025,-0.0442 0.09767,-0.0703 0.02021,-0.0192 0.03104,-0.0418 0.04754,-0.0625 0.06037,-0.0757 0.102319,-0.15797 0.102319,-0.25012 0,-0.0721 -0.05621,-0.30679 -0.146244,-0.62632 -4.94e-4,-0.002 -5.38e-4,-0.003 -0.001,-0.005 -0.09088,-0.32201 -0.216096,-0.72958 -0.353983,-1.14566 -0.275778,-0.83215 -0.58306,-1.90005 -0.682646,-2.37299 -0.07849,-0.37272 -0.191903,-0.62828 -0.303341,-0.75395 -0.0371,-0.042 -0.07381,-0.0696 -0.109037,-0.0822 -0.01761,-0.006 -0.03505,-0.009 -0.05168,-0.008 z m -17.691427,0.10955 c 0.07426,0.7588 0.164382,1.46793 0.261483,2.07636 -0.0971,-0.60847 -0.18723,-1.31755 -0.261483,-2.07636 z m 26.696565,0.1819 c -0.0332,4.7e-4 -0.0609,0.0133 -0.0858,0.032 -0.006,0.005 -0.012,0.01 -0.0176,0.0155 -0.0118,0.0119 -0.0203,0.0314 -0.03,0.048 -0.0186,0.032 -0.0336,0.0727 -0.045,0.12196 -0.005,0.0203 -0.01,0.0393 -0.0134,0.0625 -0.0115,0.0768 -0.0187,0.16425 -0.0181,0.27233 10e-4,0.23528 0.0767,0.62919 0.19637,1.09503 0.1196,0.46586 0.28377,1.00354 0.4625,1.52704 0.26814,0.78518 0.56953,1.53787 0.80461,1.96628 0.0784,0.14281 0.14936,0.24962 0.20929,0.30955 0.13275,0.13275 0.35499,0.25065 0.67334,0.35708 0.002,7.7e-4 0.004,10e-4 0.006,0.002 0.0275,0.009 0.0594,0.0179 0.0884,0.0269 0.28777,0.0972 0.61198,0.18042 0.92656,0.22428 0.11279,0.0157 0.16102,0.0213 0.26096,0.0351 0.22028,0.0357 0.49047,0.0679 0.74983,0.10076 0.0308,0.004 0.0803,0.0111 0.10903,0.0145 0.16177,0.0198 0.29334,0.0416 0.47026,0.0605 0.06,0.006 0.11312,-0.007 0.16175,-0.0274 0.15863,-0.023 0.16898,-0.0993 0.16898,-0.2403 0,-0.0409 -0.0313,-0.11373 -0.0863,-0.20929 -0.0572,-0.0996 -0.13956,-0.22299 -0.24391,-0.36483 -0.20382,-0.27707 -0.48504,-0.61755 -0.79427,-0.95447 -0.61847,-0.67384 -1.68966,-1.96606 -2.38073,-2.87166 -0.18995,-0.24891 -0.35766,-0.45944 -0.51315,-0.64905 -0.0477,-0.0581 -0.0898,-0.10601 -0.13436,-0.15865 -0.10446,-0.12333 -0.20229,-0.23458 -0.29042,-0.32815 -0.0407,-0.0433 -0.0804,-0.0839 -0.11782,-0.12092 -0.0813,-0.0804 -0.15403,-0.14378 -0.22014,-0.19482 -0.0318,-0.0246 -0.0677,-0.0565 -0.0961,-0.0744 -0.0147,-0.009 -0.0285,-0.0163 -0.0424,-0.0238 -0.0599,-0.0323 -0.11451,-0.0544 -0.15864,-0.0538 z m -19.243273,1.94149 c -0.04369,0.10548 -0.08926,0.24155 -0.135392,0.40101 -0.230617,0.79707 -0.47781,2.1842 -0.601514,3.32021 0.123676,-1.13576 0.37088,-2.52279 0.601514,-3.32021 0.04617,-0.15965 0.09167,-0.29539 0.135392,-0.40101 z m -2.811715,0.14882 c 0.02695,0.43553 0.06097,0.79131 0.101286,1.04128 -0.04031,-0.25007 -0.07434,-0.60568 -0.101286,-1.04128 z m -3.846793,1.79783 c 0.02443,0.0246 0.0484,0.0372 0.07183,0.0372 0.03172,0 0.06082,-0.006 0.08837,-0.0243 -0.02763,0.0183 -0.05654,0.0248 -0.08837,0.0248 -0.02351,0 -0.04732,-0.0129 -0.07183,-0.0377 z m 58.361291,1.03198 3.17139,0.046 0.23616,1.22731 1.0883,-0.13436 c 0.0644,-0.10563 0.16976,-0.17878 0.26045,-0.032 0.095,0.1538 0.70199,0.27956 1.34824,0.27956 0.64626,0 1.17461,0.0702 1.17461,0.15607 0,0.26106 -2.42974,3.01893 -2.65979,3.01893 -0.11804,0 -0.29052,-0.23812 -0.38292,-0.52916 -0.34354,-1.08242 -0.86782,-0.53405 -1.32809,1.38906 -0.29776,1.2441 -0.70288,2.1831 -1.1529,2.67167 -0.67472,0.73253 -0.75408,0.7502 -2.87321,0.64286 -2.31795,-0.11741 -2.69598,-0.25291 -2.24069,-0.8015 0.15695,-0.18911 0.32276,-0.93518 0.36846,-1.65778 0.0677,-1.07065 1.18211,-1.48848 1.61333,-1.56528 0.75323,-0.13416 2.64526,0.0966 2.7895,-0.50747 0.19864,-0.83189 -2.70746,-2.74214 -3.08819,-2.06447 -0.32173,0.52702 -1.37936,-0.38507 -2.13527,-0.63975 -1.03083,-0.34729 -1.7139,0.70489 -2.61224,1.28726 -1.54939,1.00443 -1.93776,0.64292 -0.68626,-0.63872 1.64935,-1.68909 3.34943,-2.20279 7.10912,-2.14819 z m 4.7563,1.10691 -0.26045,0.032 c -0.10497,0.17209 -0.10041,0.43074 0.26045,-0.032 z m 3.79099,0.80925 c 0.17576,0 0.31936,0.23121 0.31936,0.51366 0,0.28246 0.12976,0.59343 0.28835,0.69143 0.17691,0.10936 0.22223,0.54974 0.11679,1.13998 -0.22195,1.24241 -2.15914,5.09761 -3.18792,6.34432 -0.43922,0.53225 -0.94967,1.26556 -1.1343,1.62936 -0.18463,0.36381 -1.10201,1.61395 -2.03863,2.77812 -2.16934,2.69638 -2.34202,3.52792 -0.42633,2.05052 1.25733,-0.96965 3.53841,-2.44739 3.77806,-2.44739 0.94804,0 -0.47323,2.19837 -3.46439,5.35833 -1.17334,1.23955 -2.13372,2.38642 -2.13372,2.54868 0,0.558 0.89802,0.29272 2.70475,-0.79892 0.99572,-0.60162 1.8781,-1.02611 1.9606,-0.94361 0.0826,0.0826 0.003,0.59465 -0.17622,1.13843 -1.08711,3.29399 -9.99653,12.03437 -14.91123,14.62857 -1.18281,0.62419 -1.88437,0.81776 -2.91042,0.80356 -2.14423,-0.0296 -3.11753,-0.47724 -8.89196,-4.08863 -1.67349,-1.04662 -3.45943,-2.11206 -3.96875,-2.3673 -1.79406,-0.89904 -3.3262,-2.78588 -2.26188,-2.78588 0.21144,0 0.69343,-0.14072 1.07074,-0.31264 0.95811,-0.43654 0.76563,-1.26063 -0.45372,-1.94303 -1.42558,-0.79782 -4.92295,-3.58644 -5.38779,-4.29587 -0.52114,-0.79537 -0.30527,-1.08406 0.96222,-1.28674 1.50765,-0.24108 1.3379,-0.81749 -0.66869,-2.27273 -1.94369,-1.40962 -2.19286,-1.96667 -1.71618,-3.83026 0.54697,-2.13839 0.44317,-2.99703 -0.52555,-4.35787 -0.66896,-0.93974 -0.83722,-1.39549 -0.70693,-1.91461 0.24872,-0.99097 1.28218,-1.59423 2.20452,-1.28623 0.72532,0.24221 0.7362,0.27825 0.7524,2.4722 0.009,1.22456 0.0388,2.39341 0.0661,2.59726 0.0405,0.30207 0.5227,0.3398 2.60398,0.20309 2.84745,-0.18704 3.68192,-0.59921 3.40961,-1.68414 -0.22396,-0.89234 0.45091,-2.25841 1.57354,-3.18378 1.64087,-1.35255 2.03235,-1.29321 4.1212,0.62373 1.36598,1.25356 2.03254,1.6862 2.59726,1.6862 0.63906,0 0.78537,-0.13118 0.92449,-0.82682 0.091,-0.45475 0.16536,-1.10967 0.16536,-1.45521 0,-0.66308 1.3151,-3.2636 1.65365,-3.2706 0.10914,-0.002 0.19844,0.41311 0.19844,0.92243 0,1.22131 0.61899,1.21872 1.83968,-0.008 0.76548,-0.76911 1.10121,-0.91778 2.07481,-0.91778 0.75961,0 1.3936,0.18231 1.83193,0.5271 l 0.67024,0.5271 1.34875,-0.99012 c 1.2291,-0.9025 1.50974,-0.99313 3.1626,-1.02423 2.19187,-0.0412 2.52957,0.35326 1.27951,1.495 -0.64627,0.59028 -0.83044,0.97667 -0.83044,1.7446 0,0.55309 -0.19519,1.20199 -0.44493,1.47795 -0.41023,0.45328 -0.41177,0.52614 -0.0176,0.92035 0.46512,0.46511 2.27231,0.83748 4.18372,0.86248 1.33243,0.0174 2.10513,-0.57428 3.0887,-2.36523 0.27972,-0.50933 0.75337,-0.96236 1.05213,-1.00666 0.52821,-0.0783 1.92753,-1.41995 1.92753,-1.84794 0,-0.33345 1.96946,-2.17248 2.32648,-2.17248 z m -61.067078,0.016 c -0.0026,0.84434 -0.09219,1.55667 -0.23151,1.97249 -0.08374,0.24994 -0.185307,0.39274 -0.297139,0.39274 -0.01288,0 -0.02728,-0.0114 -0.04341,-0.0331 -0.04817,-0.0648 -0.110029,-0.22337 -0.182417,-0.46044 -0.09646,-0.31592 -0.211599,-0.77049 -0.336414,-1.32705 0.124832,0.55647 0.239957,1.01133 0.336414,1.32705 0.0724,0.23696 0.134268,0.39593 0.182417,0.46044 0.01605,0.0215 0.03058,0.0325 0.04341,0.0325 0.111706,0 0.213487,-0.14279 0.297139,-0.39222 0.13939,-0.41564 0.228848,-1.12782 0.23151,-1.97249 z m 11.109917,0.3886 c -0.0575,0.0699 -0.107145,0.15619 -0.148829,0.2558 0.0417,-0.0996 0.09132,-0.18589 0.148829,-0.2558 z m 2.056205,0.39171 c 0.10914,0.002 0.793751,0.18652 1.521354,0.41083 1.092903,0.33691 1.497618,0.35157 2.325952,0.0837 0.77207,-0.24965 1.44551,-0.25544 2.92902,-0.0248 2.42783,0.37745 4.06279,1.07446 5.43947,2.31821 1.101,0.99469 1.36311,1.77798 0.7214,2.15697 -0.19703,0.11638 -0.48606,0.4557 -0.64234,0.75396 -0.17531,0.33458 -0.79828,0.68248 -1.62626,0.90795 -0.73809,0.20098 -1.34203,0.45422 -1.34203,0.56276 0,0.5677 2.02411,0.28494 2.40812,-0.33641 0.0934,-0.15116 0.22434,0.0968 0.29094,0.55087 0.0666,0.45381 -0.009,0.93211 -0.16692,1.06402 -0.45,0.37348 -3.40517,0.60332 -3.85506,0.29972 -0.31468,-0.21238 -0.33343,-0.37043 -0.0904,-0.76275 0.18931,-0.30565 0.21623,-0.63762 0.0703,-0.86816 -0.40399,-0.63818 -0.27042,-1.32396 0.41702,-2.14095 0.3638,-0.43235 0.66146,-0.99529 0.66146,-1.25057 0,-0.25529 -0.29766,-0.62334 -0.66146,-0.81804 -0.5527,-0.29546 -0.77072,-0.29511 -1.32601,0.002 -0.58424,0.31267 -0.70655,0.29829 -1.01234,-0.11989 -0.44203,-0.60452 -1.20653,-0.3859 -2.441199,0.69814 -0.949726,0.83387 -1.206536,1.92712 -0.595829,2.53783 0.172205,0.1722 0.232769,0.39356 0.134359,0.49196 -0.09842,0.0984 -0.68586,-0.38866 -1.305347,-1.0821 -0.619484,-0.69344 -1.394437,-1.36432 -1.721858,-1.49087 -0.824943,-0.31884 -0.772903,-1.03662 0.07493,-1.03662 0.976015,0 1.106814,-0.69972 0.290422,-1.55185 -0.668898,-0.69818 -0.91263,-1.36199 -0.497644,-1.35599 z m 57.678646,8.21966 c -0.0405,0.0135 -0.0833,0.0414 -0.12764,0.0858 -0.10691,0.10691 -0.33966,1.34748 -0.51728,2.75642 -0.17762,1.40893 -0.43395,3.15692 -0.56999,3.88452 -0.13599,0.72761 -0.18707,1.4232 -0.11317,1.54616 0.25493,0.4242 1.09724,-1.24748 1.54099,-3.05822 0.55854,-2.27916 0.39486,-5.41649 -0.21291,-5.21466 z m -37.75945,2.49338 -0.18345,0.66146 c -0.10087,0.3638 -0.57922,1.42264 -1.06298,2.35283 -0.48375,0.93019 -0.87954,1.88825 -0.87954,2.12907 0,0.54702 1.8012,2.30884 2.51354,2.45876 0.85404,0.17975 1.04459,-0.21065 0.68627,-1.40663 -0.21532,-0.71875 -0.26763,-1.75029 -0.15141,-2.99051 0.15757,-1.68148 0.11633,-1.9666 -0.37207,-2.5492 z m 0.0439,1.07849 c -0.011,0.006 -0.0214,0.0156 -0.032,0.0238 0.0108,-0.008 0.0208,-0.0172 0.032,-0.0238 z m -0.10594,0.0997 c -0.008,0.0112 -0.0169,0.0217 -0.0248,0.0341 0.008,-0.0126 0.0163,-0.0228 0.0248,-0.0341 z m 0.43512,0.006 c 0.0136,0.0261 0.0269,0.053 0.0377,0.0873 -0.0109,-0.0345 -0.0241,-0.0611 -0.0377,-0.0873 z m -1.40922,2.31045 c -0.18383,0.47807 -0.27265,0.86116 -0.26613,1.19424 -0.007,-0.33303 0.0823,-0.71619 0.26613,-1.19424 z m -12.66486,1.1312 c 0.34537,0.24405 0.65963,0.49452 0.88728,0.70176 -0.22775,-0.20728 -0.54191,-0.45774 -0.88728,-0.70176 z m 13.9237,0.85524 c 0.003,0.24415 -0.0144,0.43527 -0.0532,0.57309 0.0389,-0.13786 0.0566,-0.32869 0.0532,-0.57309 z m -14.06581,2.91352 c 0.59994,0.6207 1.3276,1.28354 2.08773,1.90066 -0.76,-0.61707 -1.48792,-1.28004 -2.08773,-1.90066 z m 2.08824,1.90118 c 1.14002,0.92548 2.35254,1.74852 3.3135,2.17506 0.005,0.002 0.007,0.004 0.0124,0.007 -0.005,-0.002 -0.008,-0.004 -0.0124,-0.006 -0.96112,-0.4266 -2.17336,-1.24991 -3.3135,-2.17557 z m 18.08675,1.40094 c -1.45904,6.7e-4 -4.19068,0.21987 -4.38681,0.416 -0.092,0.0921 -0.0954,0.35513 -0.007,0.58498 0.13386,0.34914 0.58682,0.40539 2.74143,0.34209 2.27062,-0.0667 2.59259,-0.13487 2.67529,-0.56689 0.0517,-0.27012 -0.006,-0.58265 -0.12919,-0.69504 -0.0626,-0.0573 -0.40714,-0.0814 -0.89349,-0.0811 z m -14.21463,1.06557 c 0.15412,0.0972 0.26948,0.19037 0.34416,0.27802 -0.0748,-0.0877 -0.18978,-0.18073 -0.34416,-0.27802 z m -1.12913,3.36724 c 0.51814,0.42009 1.07262,0.81282 1.62626,1.1746 -0.55353,-0.36175 -1.10822,-0.75457 -1.62626,-1.1746 z m 2.05,1.45417 c 0.34005,0.20893 0.67613,0.39964 0.99942,0.56483 -0.32331,-0.16523 -0.65936,-0.35586 -0.99942,-0.56483 z m 1.865,1.02526 c 0.56124,0.30972 1.0731,0.61442 1.41852,0.84491 -0.34555,-0.23056 -0.85703,-0.53508 -1.41852,-0.84491 z m 2.23243,1.48363 c 0.12878,0.0913 0.23188,0.1478 0.2775,0.1478 0.0914,0 1.51244,0.78732 3.15795,1.74976 0.0236,0.0138 0.0482,0.0275 0.0718,0.0413 -0.026,-0.0151 -0.0457,-0.0255 -0.0718,-0.0408 -1.64551,-0.96244 -3.06655,-1.74976 -3.15795,-1.74976 -0.0457,0 -0.14845,-0.0567 -0.2775,-0.14832 z m 5.18211,2.88407 c 0.19022,0.10451 0.38294,0.21103 0.56327,0.30799 -0.17758,-0.0945 -0.37451,-0.20457 -0.56327,-0.30799 z m 2.60191,1.30793 c 0.60352,0.23542 1.22179,0.43079 1.4211,0.43718 0.0204,6.6e-4 0.0449,-0.004 0.0656,-0.004 -0.019,7.3e-4 -0.05,0.005 -0.0651,0.005 -0.2896,-0.009 -0.77231,-0.1603 -1.42162,-0.43821 z m 4.14341,1.156 c 7e-5,-7e-5 4.6e-4,6e-5 5.2e-4,0 -0.0503,0.0527 -0.077,0.0887 -0.077,0.10593 h 5.2e-4 c 0,0.23433 0.93401,0.25951 2.17454,0.15038 -1.43171,0.14091 -2.17506,0.0945 -2.17506,-0.15038 0,-0.0172 0.0262,-0.0532 0.0765,-0.10593 z m -10.81742,2.32854 c -0.0109,0.005 -0.0215,0.0111 -0.032,0.0176 0.0105,-0.006 0.0212,-0.0125 0.032,-0.0176 z m -0.2496,0.29662 c -0.0457,0.0955 -0.0885,0.20555 -0.12712,0.34623 -0.0388,0.14108 -0.0737,0.3131 -0.10646,0.50178 0.0328,-0.18846 0.0677,-0.36083 0.10646,-0.50178 0.0386,-0.14047 0.0815,-0.2508 0.12712,-0.34623 z m 1.15083,0.21342 c 0.0594,0.0815 0.0996,0.16137 0.12196,0.24443 -0.0223,-0.0831 -0.0626,-0.16295 -0.12196,-0.24443 z m -1.41283,0.81753 c -0.0172,0.11229 -0.0333,0.23939 -0.0491,0.3669 0.0157,-0.12692 0.0319,-0.25507 0.0491,-0.3669 z m 15.45745,0.0816 c -0.50431,0.0873 -0.93814,0.16789 -1.28829,0.24133 0.35531,-0.074 0.78308,-0.15393 1.28829,-0.24133 z m -12.65607,0.19792 c -0.12296,0.1076 -0.24799,0.24217 -0.38861,0.40928 -0.4286,0.50935 -0.66825,1.10032 -0.68058,1.65933 0.0125,-0.55887 0.2516,-1.15013 0.68007,-1.65933 0.14079,-0.16733 0.26601,-0.30163 0.38912,-0.40928 z m 10.01903,0.42013 c -0.0372,0.0171 -0.0747,0.0344 -0.10594,0.0517 0.0321,-0.0172 0.0678,-0.0346 0.10594,-0.0517 z m -0.20309,0.10801 c -0.0536,0.0368 -0.10028,0.0739 -0.13384,0.11265 0.0335,-0.0384 0.079,-0.076 0.13384,-0.11265 z m -0.786,1.62574 c -0.0923,0.32698 -0.17087,0.67001 -0.22634,0.9958 0.0555,-0.32576 0.13403,-0.66886 0.22634,-0.9958 z m -10.09137,0.22479 c 0.026,0.24916 0.0975,0.46029 0.25528,0.69298 -0.15784,-0.23282 -0.22936,-0.44361 -0.25528,-0.69298 z m 0.44338,0.93534 c 0.21986,0.25397 0.53938,0.54954 0.99942,0.94672 0.33116,0.2859 0.58747,0.51344 0.786,0.70951 -0.19849,-0.196 -0.455,-0.42375 -0.786,-0.70951 -0.46004,-0.39718 -0.77956,-0.69278 -0.99942,-0.94672 z m 14.52418,1.08263 -0.10852,1.50275 c -0.15319,2.11781 0.19901,2.38297 3.34036,2.51871 2.75603,0.11909 3.17954,0.34684 3.98684,2.14095 0.266,0.59113 0.79776,1.36338 1.18132,1.71617 0.94599,0.87007 0.8919,1.53063 -0.16278,1.99471 -1.0357,0.45574 -4.06415,1.34483 -5.88698,1.72858 -2.6338,0.55448 -6.10045,2.13766 -8.03155,3.66748 -0.63403,0.50228 -1.58654,1.0679 -2.11667,1.25729 -1.82817,0.65312 -1.95824,0.5902 -4.91701,-2.38487 -1.51728,-1.52564 -3.01916,-2.7496 -4.09226,-3.33468 -2.4639,-1.34338 -2.49722,-1.49101 -0.73845,-3.26389 1.35037,-1.36119 1.54255,-1.47011 2.17299,-1.23041 1.00325,0.38143 1.15852,0.3359 1.34152,-0.39326 0.13829,-0.55096 0.24583,-0.61244 0.6718,-0.38447 0.57357,0.30697 1.02526,0.12645 1.02526,-0.40928 0,-0.19813 0.35856,-0.43875 0.79633,-0.53485 0.43778,-0.0961 0.91964,-0.40659 1.07125,-0.68988 0.15685,-0.29305 0.41262,-0.43643 0.59325,-0.3328 0.17462,0.10016 0.22931,0.0845 0.12144,-0.0346 -0.48993,-0.54081 0.39893,-0.80271 2.55385,-0.75241 2.20967,0.0516 2.26934,0.0368 2.5988,-0.6506 0.29483,-0.61519 0.4727,-0.69381 1.41439,-0.62581 0.74585,0.0539 1.18672,-0.0549 1.43454,-0.35346 0.19683,-0.23717 0.67128,-0.59316 1.0542,-0.79117 z m -5.27513,0.17363 c -0.055,0.16092 -0.13485,0.30612 -0.23513,0.4346 -0.0502,0.0643 -0.10559,0.12423 -0.16537,0.17983 0.0597,-0.0555 0.11523,-0.11559 0.16537,-0.17983 0.10028,-0.12849 0.18017,-0.27367 0.23513,-0.4346 z m -6.90552,1.1591 c 0.0929,0.24233 0.1111,0.50393 0.1111,0.87488 0,0.45362 -0.082,0.92473 -0.19792,1.20303 0.11582,-0.27837 0.19792,-0.74989 0.19792,-1.20303 0,-0.37095 -0.0182,-0.63256 -0.1111,-0.87488 z m -7.01043,1.97352 c -0.36911,0.67727 -0.67122,1.45247 -0.83974,2.09703 0.006,-0.0335 0.007,-0.0557 0.0129,-0.0904 0.0892,-0.48787 0.43165,-1.29876 0.82682,-2.0066 z m 6.8063,0.30231 c -7.5e-4,7.7e-4 -0.001,0.003 -0.002,0.004 -9e-5,8e-5 -4.4e-4,-8e-5 -5.2e-4,0 -0.0464,0.0462 -0.13596,0.0893 -0.26148,0.12764 0.12545,-0.0384 0.21527,-0.0814 0.26148,-0.12764 9.1e-4,-9.1e-4 0.002,-0.003 0.003,-0.004 z m -3.75016,0.45889 c -0.13024,0.0419 -0.25208,0.0964 -0.37103,0.16743 0.119,-0.0711 0.24071,-0.12558 0.37103,-0.16743 z m -2.07429,0.88366 c -0.2452,0.34297 -0.45804,0.62116 -0.65474,0.86662 0.19515,-0.24357 0.40601,-0.51872 0.65474,-0.86662 z m 35.81952,0.61082 c -0.20861,0.0192 -0.37722,0.17388 -0.7059,0.48266 -0.37814,0.35524 -0.66352,0.91919 -0.66352,1.31103 0,0.37814 0.76817,2.19566 1.70687,4.03903 0.93871,1.84337 2.0698,4.38017 2.51354,5.63738 0.78321,2.21888 0.80667,2.42323 0.80667,6.98097 0,4.53504 0.0203,4.71381 0.59531,5.2281 0.32742,0.29285 1.01204,0.69373 1.52136,0.89091 0.50933,0.19717 1.28322,0.55522 1.71979,0.79581 3.109997,1.71392 4.064227,2.27767 4.762497,2.81379 0.89045,0.68367 0.92358,0.69291 1.4025,0.38912 0.25026,-0.15874 0.35655,-1.18465 0.39015,-3.76618 0.044,-3.38113 0.014,-3.60413 -0.6413,-4.73873 -1.28698,-2.22834 -4.458327,-8.19302 -4.464327,-8.39638 -0.003,-0.11143 -0.23891,-0.50024 -0.52348,-0.86403 -0.74143,-0.94785 -0.66468,-1.26003 0.58963,-2.40658 l 1.118277,-1.02216 -1.449007,-1.3503 c -1.78638,-1.66456 -6.39244,-5.0566 -7.73131,-5.69371 -0.4905,-0.23341 -0.73913,-0.34993 -0.94775,-0.33073 z m -36.83238,0.68368 c -0.006,0.006 -0.0125,0.0146 -0.0181,0.0207 0.006,-0.006 0.0125,-0.0146 0.0181,-0.0207 z m -5.10149,0.16175 c -0.0263,0.002 -0.0554,0.007 -0.0832,0.0109 0.0277,-0.004 0.057,-0.009 0.0832,-0.0109 z m -0.24288,0.0372 c -0.14598,0.028 -0.3082,0.0684 -0.49041,0.12558 0.18261,-0.0574 0.34416,-0.0976 0.49041,-0.12558 z m 0.68523,0.004 c 0.0165,0.006 0.0327,0.0125 0.0481,0.0196 -0.0155,-0.007 -0.0314,-0.0136 -0.0481,-0.0196 z m 4.34857,0.0982 c -0.25501,0.21843 -0.43062,0.27036 -0.52038,0.13333 0.11187,0.10583 0.27891,0.0684 0.52038,-0.13333 z m -5.64617,0.0651 c -0.12324,0.0411 -0.26283,0.0947 -0.40256,0.14831 0.13942,-0.0535 0.27955,-0.10727 0.40256,-0.14831 z m 1.60145,0.11523 c 0.007,0.0158 0.0147,0.0322 0.0212,0.0491 -0.006,-0.017 -0.0137,-0.0332 -0.0212,-0.0491 z m -2.67993,0.31265 c -0.1047,0.0457 -0.20164,0.0861 -0.31368,0.13694 0.11106,-0.0504 0.20983,-0.0916 0.31368,-0.13694 z m 2.6572,0.39119 c -0.0889,0.15603 -0.23565,0.32194 -0.44752,0.50746 0.21173,-0.18541 0.3587,-0.3515 0.44752,-0.50746 z m 3.69073,0.25838 c -0.2451,0.14461 -0.46788,0.30078 -0.62942,0.43563 0.16158,-0.13488 0.38432,-0.29102 0.62942,-0.43563 z m -0.82114,0.61805 c 6e-5,-8e-5 4.5e-4,7e-5 5.2e-4,0 -0.0453,0.0528 -0.0708,0.0961 -0.0708,0.12609 0,-0.03 0.025,-0.0733 0.0703,-0.12609 z m -0.016,0.27492 c 0.10435,0.20224 0.34841,0.54736 0.63097,0.88315 0.11478,0.13642 0.20476,0.25566 0.27233,0.35708 -0.0676,-0.10154 -0.15788,-0.22045 -0.27285,-0.35708 -0.28255,-0.33579 -0.52617,-0.68097 -0.63045,-0.88315 z m 1.04541,1.50998 c 0.0289,0.0889 0.0201,0.14538 -0.0248,0.16588 0.0444,-0.0207 0.0535,-0.0775 0.0248,-0.16588 z m -12.722217,0.29973 c -0.262745,0.20255 -0.507325,0.41042 -0.743624,0.632 0.236311,-0.22159 0.480867,-0.42944 0.743624,-0.632 z m 4.656567,0.002 c -0.84484,0.50622 -1.59916,0.93296 -1.98696,1.11466 0.3878,-0.18169 1.14213,-0.60846 1.98696,-1.11466 z m 1.09347,0.75035 c -0.40331,0.21008 -0.78666,0.4264 -1.15032,0.64905 0.36367,-0.22265 0.74699,-0.43898 1.15032,-0.64905 z m 54.455587,0.0946 c -0.0213,0.0234 0.11983,0.22507 0.38344,0.58808 0.35373,0.48712 1.00005,1.07015 1.4366,1.29553 0.43657,0.22538 1.62719,1.14536 2.64584,2.04484 1.01864,0.89947 2.14651,1.83449 2.5063,2.0779 l 0.65423,0.44287 h -0.66146 c -0.80255,0 -1.58343,-0.50015 -3.18947,-2.04277 -1.01835,-0.97814 -1.36296,-1.15722 -2.08979,-1.08572 -1.80092,0.17729 -1.61989,1.05863 1.21801,5.93401 0.60177,1.03378 1.59841,2.87926 2.21485,4.10104 l 1.10639,2.19314 c -0.22367,-1.67956 -0.75654,-2.51534 -2.30993,-5.13095 -2.09706,-3.53102 -2.51325,-4.4512 -2.33474,-5.16247 0.10281,-0.40962 0.41626,-0.72598 0.8201,-0.82734 0.52473,-0.1317 0.8723,0.0506 1.76268,0.92449 1.12512,1.10421 2.49982,1.76213 6.75308,3.23081 1.21909,0.42097 2.7192,1.05998 3.33365,1.42007 1.66925,0.97824 4.06679,3.71545 4.91959,5.61619 1.93424,4.31106 4.21422,12.16385 4.21422,14.51436 v 0.9617 l -0.68472,-0.8139 c -0.92163,-1.09533 -1.80704,-1.07886 -2.49287,0.046 -0.28836,0.47295 -0.52502,1.20735 -0.52555,1.63246 -5.5e-4,0.4251 -0.1979,0.99065 -0.43873,1.25677 v 5.1e-4 c -0.41135,0.45455 -0.40333,0.4837 0.13229,0.4837 0.49037,0 0.56999,-0.15078 0.56999,-1.07591 0,-1.25533 0.3816,-2.09909 0.94878,-2.09909 0.66691,0 1.96164,0.78214 1.96164,1.18494 0,0.74746 0.62435,1.72547 1.10122,1.72547 0.62018,0 0.61549,-0.10835 -0.16794,-4.01371 -0.74686,-3.72301 -1.38564,-6.10403 -2.64997,-9.87691 -1.52151,-4.54037 -2.35533,-5.97845 -5.27151,-9.09144 l -1.08159,-1.15445 0.84956,0.42788 c 1.47197,0.74143 3.62728,3.08627 4.16047,4.52634 0.2694,0.7276 0.88968,2.17478 1.37821,3.21582 0.48853,1.04106 0.89317,2.05309 0.89917,2.24896 0.006,0.19587 0.25132,0.77278 0.54518,1.2821 0.29384,0.50931 0.45307,0.68791 0.35347,0.39687 -0.0996,-0.29104 -0.3019,-0.88636 -0.44958,-1.32292 -2.80585,-8.29442 -4.55846,-10.21381 -11.83752,-12.96458 -1.38244,-0.52243 -2.84735,-1.08072 -3.25562,-1.24075 -0.40827,-0.16002 -1.64101,-1.10713 -2.73937,-2.10478 -1.09835,-0.99764 -2.10644,-1.81384 -2.24017,-1.81384 -0.13374,0 -0.79798,-0.50601 -1.47588,-1.12448 -0.64952,-0.59257 -0.94516,-0.85691 -0.97255,-0.82683 z m 6.22494,15.54892 c 0.005,0.035 0.006,0.08 0.0109,0.11576 l 0.004,-0.0873 z m 0.0109,0.11576 -0.1788,4.64209 -0.18242,4.72995 1.20147,1.22318 c 0.85295,0.86859 1.51378,1.95274 2.27842,3.73724 0.59237,1.38244 1.00279,2.11517 0.91209,1.62832 -0.26361,-1.41448 -1.84088,-4.64485 -2.80138,-5.73763 l -0.88264,-1.00407 -0.14262,-5.04983 c -0.0562,-1.98506 -0.0862,-3.21024 -0.20412,-4.16925 z M 42.508753,-33.98903 c -0.12958,0 -0.3699,0.1664 -0.670764,0.44131 0.300854,-0.27492 0.541184,-0.44131 0.670764,-0.44131 z m 2.18488,0.19068 c -0.35764,0.21898 -0.69547,0.44457 -1.01545,0.67645 0.31995,-0.23185 0.65785,-0.4575 1.01545,-0.67645 z m 11.99926,0.11059 c 0.0303,0.005 0.0717,0.0204 0.11783,0.0403 -0.0458,-0.0198 -0.0877,-0.0356 -0.11783,-0.0403 z m 0,0 c -0.0346,-0.005 -0.0554,0.002 -0.0698,0.016 0.0143,-0.0137 0.0352,-0.0214 0.0698,-0.016 z m -0.0785,0.0315 c -0.006,0.0146 -0.007,0.0344 -0.002,0.0594 -0.005,-0.025 -0.005,-0.0449 0.002,-0.0594 z m 0.004,0.0853 c 0.004,0.0115 0.0141,0.0288 0.0196,0.0419 -0.006,-0.0132 -0.0159,-0.0303 -0.0196,-0.0419 z m 0.46354,0.0749 c 0.15006,0.0939 0.32639,0.21492 0.55139,0.38654 -0.2246,-0.17131 -0.40144,-0.29255 -0.55139,-0.38654 z m -0.33538,0.15916 c 0.016,0.0241 0.0308,0.0469 0.0496,0.0734 -0.0188,-0.0265 -0.0336,-0.0492 -0.0496,-0.0734 z m -21.686531,0.0465 c 0.0369,0.0369 0.06399,0.0936 0.08165,0.16692 -0.01766,-0.0733 -0.04475,-0.13001 -0.08165,-0.16692 z m 21.839491,0.15968 c 0.0929,0.1209 0.21019,0.26151 0.3483,0.41755 -0.13922,-0.15722 -0.25494,-0.29598 -0.3483,-0.41755 z m 1.37201,0.56792 c 0.004,0.004 0.007,0.006 0.0114,0.0103 0.47245,0.44591 1.0457,1.06449 1.84898,1.99523 -0.80336,-0.93087 -1.37653,-1.54932 -1.84898,-1.99523 -0.004,-0.004 -0.007,-0.007 -0.0114,-0.0103 z m -0.86351,0.0284 c 0.19961,0.21706 0.42346,0.45196 0.69505,0.71882 -0.27186,-0.26713 -0.49532,-0.50162 -0.69505,-0.71882 z m -15.07918,0.53433 c -0.66911,0.64373 -1.221501,1.33413 -1.661919,2.07688 -0.176213,0.29717 -0.334553,0.60288 -0.475423,0.91725 0.140867,-0.31438 0.299214,-0.62007 0.475423,-0.91725 0.440525,-0.74296 0.992582,-1.433 1.661919,-2.07688 z m 27.0247,0.74207 c 0.0336,0.0336 -0.1754,0.27571 -0.54002,0.63873 0.36451,-0.36305 0.57367,-0.60508 0.54002,-0.63873 z M 23.1269,-30.58879 c -0.560729,0.20974 -1.127116,0.44204 -1.766817,0.71727 0.6397,-0.27523 1.20611,-0.50754 1.766817,-0.71727 z m 10.801924,0.12713 c -0.343359,0.39684 -0.775534,0.86653 -1.311547,1.42678 0.536004,-0.56029 0.9682,-1.02989 1.311547,-1.42678 z m 26.247489,1.10277 c 0.20947,0.43656 0.6151,1.06165 0.90176,1.38907 0.0269,0.0308 0.0531,0.0554 0.0796,0.0832 -0.35281,-0.29762 -0.63611,-0.75277 -0.98134,-1.47226 z m 1.34928,0.44959 c 0.15918,0.19087 0.28618,0.33651 0.40514,0.44493 -0.11897,-0.1084 -0.24596,-0.25406 -0.40514,-0.44493 z m -41.863081,0.18965 c -0.282577,0.23957 -0.572227,0.49817 -0.872298,0.78807 0.299989,-0.2898 0.589794,-0.54856 0.872298,-0.78807 z m 44.362151,0.30438 c -0.20374,0.0618 -0.40152,0.10852 -0.58756,0.13642 0.18594,-0.0279 0.38393,-0.0746 0.58756,-0.13642 z m -24.203692,0.3793 c -0.186089,0.58208 -0.442566,1.17124 -0.570508,1.30948 -0.03199,0.0346 -0.0632,0.083 -0.09147,0.14056 -0.08479,0.17277 -0.146703,0.42946 -0.150378,0.65319 -0.0049,0.29832 -0.239215,1.01886 -0.520382,1.60094 -0.281168,0.58209 -0.514965,1.30747 -0.519865,1.6123 -0.0025,0.15242 -0.06384,0.46695 -0.160197,0.8506 0.09639,-0.38365 0.15723,-0.69818 0.15968,-0.8506 0.0049,-0.30483 0.239214,-1.03021 0.520382,-1.6123 0.281167,-0.58208 0.514965,-1.30262 0.519865,-1.60094 0.0037,-0.22373 0.06604,-0.48042 0.150895,-0.65319 0.02828,-0.0576 0.05897,-0.106 0.09095,-0.14056 0.127942,-0.13824 0.384935,-0.7274 0.571024,-1.30948 z m 22.910742,0.64596 c 0.20438,0.007 0.39973,0.0155 0.6718,0.0155 -0.2469,0 -0.46919,-0.005 -0.6718,-0.0155 z m -44.533195,0.0501 c -0.398606,0.41214 -0.803981,0.85747 -1.207161,1.3255 -0.40318,0.46804 -0.804475,0.95887 -1.194242,1.46193 -0.389768,0.50305 -0.768179,1.01863 -1.126547,1.53582 0.358387,-0.51719 0.736755,-1.03277 1.126547,-1.53582 0.389791,-0.50306 0.791036,-0.99389 1.194242,-1.46193 0.403206,-0.46804 0.808531,-0.91336 1.207161,-1.3255 z m 41.002665,2.04277 c -0.90061,0.008 -1.76751,0.0923 -2.23707,0.27079 -0.92329,0.35104 -1.46372,1.91781 -1.66967,4.84104 -0.1786,2.53497 0.20264,4.0079 1.11156,4.29638 0.2768,0.0879 1.3399,0.18898 2.36265,0.22428 2.258,0.078 2.5855,-0.14306 3.19309,-2.15336 l 0.44958,-1.48673 0.15606,1.26194 c 0.21588,1.74599 0.92452,2.39309 2.84686,2.59881 0.83423,0.0893 1.60799,0.17962 1.71927,0.20102 0.11128,0.0214 0.62105,-0.34767 1.13275,-0.82062 0.91721,-0.84774 0.93385,-0.90209 1.18856,-3.84576 0.21771,-2.51602 0.19517,-3.10895 -0.1447,-3.76618 -0.54804,-1.05979 -1.6728,-1.58233 -3.40392,-1.58233 -1.18237,0 -1.60163,0.12929 -2.28565,0.70486 -0.68473,0.57617 -0.88127,0.63657 -1.07487,0.33073 -0.13026,-0.20579 -0.23881,-0.4543 -0.24081,-0.5519 -0.008,-0.33493 -1.60267,-0.5356 -3.10369,-0.52297 z m 0.0186,0.43615 c 0.68291,0 1.20056,0.004 1.59267,0.0408 -0.39211,-0.0368 -0.90976,-0.0408 -1.59267,-0.0408 z m 5.94693,0.15503 c -0.60847,0.0439 -0.89417,0.1646 -1.22008,0.47077 0.32603,-0.30633 0.61143,-0.42693 1.22008,-0.47077 z m 1.83451,0 c 0.24638,0.0182 0.43935,0.0497 0.60617,0.10335 -0.16669,-0.0536 -0.36006,-0.0852 -0.60617,-0.10335 z m -5.50147,0.0362 c 0.11313,0.0512 0.20255,0.11629 0.27285,0.19844 -0.0703,-0.0822 -0.15971,-0.14721 -0.27285,-0.19844 z m 6.34121,0.16537 c 0.1472,0.0778 0.28167,0.18221 0.42995,0.32142 -0.14828,-0.13922 -0.28275,-0.24358 -0.42995,-0.32142 z m -31.167603,0.9126 c -0.140468,0.39378 -0.334494,0.87121 -0.54777,1.33687 0.213276,-0.46566 0.407202,-0.94317 0.54777,-1.33687 z m 0.771012,2.96261 c -0.003,0.009 -0.0048,0.0174 -0.0078,0.0264 -0.475744,1.42217 -0.62552,2.28345 -0.447002,2.53938 -0.17899,-0.25558 -0.02946,-1.11662 0.446485,-2.53938 0.0029,-0.009 0.0054,-0.0176 0.0083,-0.0264 z m -2.286682,1.09296 c -0.06094,0.32539 -0.139681,0.64907 -0.230477,0.95705 -0.09079,0.30798 -0.193661,0.60011 -0.302824,0.86299 0.109181,-0.2629 0.212014,-0.555 0.302824,-0.86299 0.09081,-0.308 0.16954,-0.63166 0.230477,-0.95705 z m 25.315253,0.3359 c -0.0352,0.37744 -0.0936,0.74379 -0.17364,1.02991 0.08,-0.28599 0.13843,-0.65265 0.17364,-1.02991 z m -2.11977,0.40411 c -0.13029,0.23703 -0.226,0.44518 -0.26562,0.59531 0.0395,-0.15005 0.13534,-0.35828 0.26562,-0.59531 z m -31.847668,0.16226 c -0.04581,0.75914 -0.109168,1.55983 -0.184485,2.33216 -0.07703,0.78987 -0.165807,1.54906 -0.258899,2.2009 0.09311,-0.65183 0.181852,-1.41104 0.258899,-2.2009 0.07534,-0.77241 0.138661,-1.57295 0.184485,-2.33216 z m 1.889807,0.2806 c 0.01216,1.10076 0.03957,2.12788 0.0739,2.89595 -0.03439,-0.76803 -0.06174,-1.79519 -0.0739,-2.89595 z m 29.672091,0.28216 c 0,0.0518 0.01,0.10426 0.0222,0.15554 -0.014,-0.0492 -0.0222,-0.10084 -0.0222,-0.15554 z m -20.789946,0.0605 c -0.0663,0.0254 -0.123538,0.0336 -0.171566,0.0248 0.04802,0.009 0.105262,6.4e-4 0.171566,-0.0248 z m 0.485759,0.0398 c 0.02981,0.0273 0.05669,0.0602 0.08113,0.10025 -0.02429,-0.0398 -0.05155,-0.073 -0.08113,-0.10025 z m 22.400187,0.16071 c -0.0315,0.0588 -0.0719,0.11004 -0.11679,0.15762 0.0465,-0.0475 0.0859,-0.0999 0.11679,-0.15762 z m 8.73021,0.14625 c -0.0583,0.23224 -0.13532,0.39756 -0.24339,0.54467 0.10809,-0.14711 0.18504,-0.31243 0.24339,-0.54467 z m -8.8501,0.0145 c -0.29688,0.31146 -0.84798,0.37719 -1.29553,0.25683 0.52029,0.11108 1.0267,0.0149 1.29553,-0.25683 z m 3.15588,0.0966 c 0.0385,0.21687 0.0893,0.38605 0.16071,0.52555 -0.0713,-0.13941 -0.12225,-0.3089 -0.16071,-0.52555 z m -25.208801,0.20877 c 0.01821,0.16288 0.02579,0.35314 0.02222,0.5762 -0.0069,0.4343 -0.05497,0.98566 -0.142627,1.66553 -0.04383,0.33993 -0.09717,0.71212 -0.160714,1.11776 -0.271082,1.7306 -0.692014,4.63485 -0.935343,6.45387 -0.294955,2.20493 -0.453431,3.04797 -0.853695,3.84472 0.40045,-0.79679 0.558171,-1.6394 0.853178,-3.84472 0.243329,-1.81902 0.664263,-4.72327 0.935343,-6.45387 0.06354,-0.40564 0.117398,-0.77782 0.161231,-1.11776 0.08767,-0.67988 0.135653,-1.23122 0.142627,-1.66553 0.0036,-0.22277 -0.0041,-0.41345 -0.02222,-0.5762 z m 18.290871,0.55553 c 0.30401,0.20139 0.91143,0.4143 1.40508,0.50281 -0.53488,-0.0953 -1.034,-0.25699 -1.40508,-0.50281 z m 4.639,0.0408 c -0.0673,0.0508 -0.14157,0.0977 -0.22066,0.14159 0.077,-0.0445 0.15253,-0.0902 0.22066,-0.14159 z m -3.07734,0.49041 c 0.13021,0.0179 0.25787,0.0313 0.38344,0.0424 -0.12967,-0.0105 -0.2563,-0.0235 -0.38344,-0.0424 z m 0.63356,0.0584 c 0.0752,0.004 0.15103,0.009 0.22427,0.0103 -0.075,-2.1e-4 -0.14913,-0.007 -0.22427,-0.0103 z m -26.375137,0.66405 c -0.820678,0.43426 -1.769947,0.98384 -2.109432,1.22163 -0.171786,0.12032 -0.332011,0.21496 -0.479041,0.2837 0.147034,-0.0687 0.307255,-0.16338 0.479041,-0.2837 0.339486,-0.23779 1.288753,-0.78737 2.109432,-1.22163 z m -21.217827,0.67179 c -0.23474,0.82198 -0.351625,1.42611 -0.255281,1.53531 -0.0022,-0.002 -0.0062,-0.003 -0.0083,-0.005 -0.09659,-0.0966 0.02537,-0.70469 0.263549,-1.53014 z m 17.641301,0.3421 c 0.01953,0.22982 0.04006,0.37296 0.05994,0.40514 -0.01989,-0.0322 -0.04039,-0.17531 -0.05994,-0.40514 z m -16.104443,0.97048 c 0.07998,-0.006 0.156351,-2.7e-4 0.232027,0.01 -0.229234,-0.0143 -0.485049,0.0371 -0.854212,0.15038 -0.0851,0.0261 -0.165289,0.0424 -0.247013,0.0615 0.06596,-0.0187 0.128391,-0.0326 0.197921,-0.0568 0.273313,-0.0953 0.482716,-0.15159 0.671277,-0.16485 z m -1.765784,0.23978 c 0.01537,0.0122 0.03898,0.0191 0.05891,0.0284 -0.02298,-0.008 -0.04186,-0.0177 -0.05891,-0.0284 z m 14.838887,1.37253 c -0.148795,0.25305 -0.350303,0.55488 -0.599963,0.89968 0.249685,-0.34482 0.45115,-0.64661 0.599963,-0.89968 z m -3.95428,5.00486 c -0.293369,0.36591 -0.544346,0.69981 -0.751892,1.00097 0.207563,-0.30114 0.458515,-0.63508 0.751892,-1.00097 z m -1.062468,1.46554 c -0.118934,0.19717 -0.224731,0.38723 -0.308508,0.56948 -0.10291,0.22386 -0.18077,0.44005 -0.237712,0.6568 0.05696,-0.21689 0.134723,-0.43279 0.237712,-0.6568 0.08383,-0.18233 0.189484,-0.3722 0.308508,-0.56948 z" /></g></svg>
